<?xml version="1.0" encoding="UTF-8"?>
<svg id="Layer_1" data-name="Layer 1" xmlns="http://www.w3.org/2000/svg" viewBox="0 0 809.12779 517.39634">
  <defs>
    <style>
      .cls-1 {
        stroke: #008c95;
      }

      .cls-1, .cls-2, .cls-3, .cls-4, .cls-5, .cls-6, .cls-7, .cls-8, .cls-9, .cls-10 {
        fill: none;
      }

      .cls-1, .cls-2, .cls-3, .cls-4, .cls-5, .cls-7, .cls-8, .cls-9, .cls-10 {
        stroke-linejoin: round;
      }

      .cls-1, .cls-5 {
        stroke-width: 2px;
      }

      .cls-2 {
        stroke: #76ac42;
      }

      .cls-2, .cls-3, .cls-4, .cls-7, .cls-8, .cls-9, .cls-10 {
        stroke-width: .5px;
      }

      .cls-3 {
        stroke: #7f2f8d;
      }

      .cls-4 {
        stroke: #ecb120;
      }

      .cls-5 {
        stroke: #f78e1e;
      }

      .cls-6 {
        stroke: #c7c8ca;
        stroke-miterlimit: 10;
      }

      .cls-7 {
        stroke: #d85427;
      }

      .cls-8 {
        stroke: #a21d31;
      }

      .cls-9 {
        stroke: #50beed;
      }

      .cls-10 {
        stroke: #0d72ba;
      }

      .cls-11 {
        fill: #231f20;
        font-family: MyriadPro-Regular, 'Myriad Pro';
        font-size: 12px;
      }
    </style>
  </defs>
  <line class="cls-6" x1="455.57302" y1=".70982" x2="455.57302" y2="448.81553"/>
  <line class="cls-6" x1="14.6341" y1="388.1262" x2="808.46503" y2="388.1262"/>
  <line class="cls-6" x1="14.90031" y1="304.5012" x2="807.94186" y2="304.5012"/>
  <line class="cls-6" x1="14.90031" y1="220.87621" x2="807.94186" y2="220.87621"/>
  <line class="cls-6" x1="14.90031" y1="137.25123" x2="807.94186" y2="137.25123"/>
  <line class="cls-6" x1="546.39378" y1=".92503" x2="546.39378" y2="449.03074"/>
  <line class="cls-6" x1="808.46503" y1=".92503" x2="808.46503" y2="449.03074"/>
  <line class="cls-6" x1="196.96501" y1=".84199" x2="196.96501" y2="448.9477"/>
  <line class="cls-6" x1="284.32226" y1=".92503" x2="284.32226" y2="449.03074"/>
  <line class="cls-6" x1="371.6795" y1=".81507" x2="371.6795" y2="448.92078"/>
  <line class="cls-6" x1="14.6341" y1="53.33403" x2="808.46503" y2="53.33403"/>
  <line class="cls-6" x1="633.75104" y1=".92503" x2="633.75104" y2="449.03074"/>
  <line class="cls-6" x1="109.608" y1=".81507" x2="109.608" y2="448.92078"/>
  <polyline class="cls-7" points="109.608 304.5012 240.64352 346.3137 371.6795 388.1262 633.75104 388.1262 633.75104 304.5012 633.75104 276.62623 633.75104 262.68874 633.75104 248.75121 633.75104 220.87621 633.75104 193.00123 633.75104 179.06371 633.75104 165.12623 633.75104 137.25123 502.71503 95.43874 371.6795 53.62623 240.64352 53.62623 109.608 53.62623 109.608 137.25123 109.608 220.87621 109.608 304.5012"/>
  <polyline class="cls-3" points="109.608 304.5012 240.64352 346.3137 371.6795 388.1262 633.75104 388.1262 633.75104 304.5012 633.75104 276.62623 633.75104 262.68874 633.75104 248.75121 633.75104 220.87621 633.75104 193.00123 633.75104 179.06371 633.75104 165.12623 633.75104 137.25123 502.71503 95.43874 371.6795 53.62623 240.64352 53.62623 109.608 53.62623 109.608 137.25123 109.608 220.87621 109.608 304.5012"/>
  <polyline class="cls-9" points="109.608 304.5012 240.64352 346.3137 371.6795 388.1262 633.75104 388.1262 633.75104 304.5012 633.75104 276.62623 633.75104 262.68874 633.75104 248.75121 633.75104 220.87621 633.75104 193.00123 633.75104 179.06371 633.75104 165.12623 633.75104 137.25123 502.71503 95.43874 371.6795 53.62623 240.64352 53.62623 109.608 53.62623 109.608 137.25123 109.608 220.87621 109.608 304.5012"/>
  <polyline class="cls-10" points="109.608 304.5012 240.64352 346.3137 371.6795 388.1262 633.75104 388.1262 633.75104 304.5012 633.75104 276.62623 633.75104 262.68874 633.75104 248.75121 633.75104 220.87621 633.75104 193.00123 633.75104 179.06371 633.75104 165.12623 633.75104 137.25123 502.71503 95.43874 371.6795 53.62623 240.64352 53.62623 109.608 53.62623 109.608 137.25123 109.608 220.87621 109.608 304.5012"/>
  <polyline class="cls-4" points="109.608 304.5012 240.64352 346.3137 371.6795 388.1262 633.75104 388.1262 633.75104 304.5012 633.75104 276.62623 633.75104 262.68874 633.75104 248.75121 633.75104 220.87621 633.75104 193.00123 633.75104 179.06371 633.75104 165.12623 633.75104 137.25123 502.71503 95.43874 371.6795 53.62623 240.64352 53.62623 109.608 53.62623 109.608 137.25123 109.608 220.87621 109.608 304.5012"/>
  <polyline class="cls-2" points="109.608 304.5012 240.64352 346.3137 371.6795 388.1262 633.75104 388.1262 633.75104 304.5012 633.75104 276.62623 633.75104 262.68874 633.75104 248.75121 633.75104 220.87621 633.75104 193.00123 633.75104 179.06371 633.75104 165.12623 633.75104 137.25123 502.71503 95.43874 371.6795 53.62623 240.64352 53.62623 109.608 53.62623 109.608 137.25123 109.608 220.87621 109.608 304.5012"/>
  <polyline class="cls-8" points="109.608 304.5012 240.64352 346.3137 371.6795 388.1262 633.75104 388.1262 633.75104 304.5012 633.75104 276.62623 633.75104 262.68874 633.75104 248.75121 633.75104 220.87621 633.75104 193.00123 633.75104 179.06371 633.75104 165.12623 633.75104 137.25123 502.71503 95.43874 371.6795 53.62623 240.64352 53.62623 109.608 53.62623 109.608 137.25123 109.608 220.87621 109.608 304.5012"/>
  <polyline class="cls-7" points="109.608 304.5012 240.64352 346.3137 371.6795 388.1262 633.75104 388.1262 633.75104 304.5012 633.75104 276.62623 633.75104 262.68874 633.75104 248.75121 633.75104 220.87621 633.75104 193.00123 633.75104 179.06371 633.75104 165.12623 633.75104 137.25123 502.71503 95.43874 371.6795 53.62623 240.64352 53.62623 109.608 53.62623 109.608 137.25123 109.608 220.87621 109.608 304.5012"/>
  <polyline class="cls-3" points="109.608 304.5012 240.64352 346.3137 371.6795 388.1262 633.75104 388.1262 633.75104 304.5012 633.75104 276.62623 633.75104 262.68874 633.75104 248.75121 633.75104 220.87621 633.75104 193.00123 633.75104 179.06371 633.75104 165.12623 633.75104 137.25123 502.71503 95.43874 371.6795 53.62623 240.64352 53.62623 109.608 53.62623 109.608 137.25123 109.608 220.87621 109.608 304.5012"/>
  <polyline class="cls-9" points="109.608 304.5012 240.64352 346.3137 371.6795 388.1262 633.75104 388.1262 633.75104 304.5012 633.75104 276.62623 633.75104 262.68874 633.75104 248.75121 633.75104 220.87621 633.75104 193.00123 633.75104 179.06371 633.75104 165.12623 633.75104 137.25123 502.71503 95.43874 371.6795 53.62623 240.64352 53.62623 109.608 53.62623 109.608 137.25123 109.608 220.87621 109.608 304.5012"/>
  <polyline class="cls-10" points="109.608 304.5012 240.64352 346.3137 371.6795 388.1262 633.75104 388.1262 633.75104 304.5012 633.75104 276.62623 633.75104 262.68874 633.75104 248.75121 633.75104 220.87621 633.75104 193.00123 633.75104 179.06371 633.75104 165.12623 633.75104 137.25123 502.71503 95.43874 371.6795 53.62623 240.64352 53.62623 109.608 53.62623 109.608 137.25123 109.608 220.87621 109.608 304.5012"/>
  <polyline class="cls-4" points="109.608 304.5012 240.64352 346.3137 371.6795 388.1262 633.75104 388.1262 633.75104 304.5012 633.75104 276.62623 633.75104 262.68874 633.75104 248.75121 633.75104 220.87621 633.75104 193.00123 633.75104 179.06371 633.75104 165.12623 633.75104 137.25123 502.71503 95.43874 371.6795 53.62623 240.64352 53.62623 109.608 53.62623 109.608 137.25123 109.608 220.87621 109.608 304.5012"/>
  <polyline class="cls-2" points="109.608 304.5012 240.64352 346.3137 371.6795 388.1262 633.75104 388.1262 633.75104 304.5012 633.75104 276.62623 633.75104 262.68874 633.75104 248.75121 633.75104 220.87621 633.75104 193.00123 633.75104 179.06371 633.75104 165.12623 633.75104 137.25123 502.71503 95.43874 371.6795 53.62623 240.64352 53.62623 109.608 53.62623 109.608 137.25123 109.608 220.87621 109.608 304.5012"/>
  <polyline class="cls-8" points="109.608 304.5012 240.64352 346.3137 371.6795 388.1262 633.75104 388.1262 633.75104 304.5012 633.75104 276.62623 633.75104 262.68874 633.75104 248.75121 633.75104 220.87621 633.75104 193.00123 633.75104 179.06371 633.75104 165.12623 633.75104 137.25123 502.71503 95.43874 371.6795 53.62623 240.64352 53.62623 109.608 53.62623 109.608 137.25123 109.608 220.87621 109.608 304.5012"/>
  <polyline class="cls-7" points="109.608 304.5012 240.64352 346.3137 371.6795 388.1262 633.75104 388.1262 633.75104 304.5012 633.75104 276.62623 633.75104 262.68874 633.75104 248.75121 633.75104 220.87621 633.75104 193.00123 633.75104 179.06371 633.75104 165.12623 633.75104 137.25123 502.71503 95.43874 371.6795 53.62623 240.64352 53.62623 109.608 53.62623 109.608 137.25123 109.608 220.87621 109.608 304.5012"/>
  <polyline class="cls-3" points="109.608 304.5012 240.64352 346.3137 371.6795 388.1262 633.75104 388.1262 633.75104 304.5012 633.75104 276.62623 633.75104 262.68874 633.75104 248.75121 633.75104 220.87621 633.75104 193.00123 633.75104 179.06371 633.75104 165.12623 633.75104 137.25123 502.71503 95.43874 371.6795 53.62623 240.64352 53.62623 109.608 53.62623 109.608 137.25123 109.608 220.87621 109.608 304.5012"/>
  <polyline class="cls-2" points="109.608 304.5012 109.608 279.41373 109.608 254.32623 109.608 229.23872 109.608 204.15121 109.608 179.06371 109.608 153.9762 109.608 128.88871 109.608 103.80122 109.608 78.71372 109.608 53.62623"/>
  <polyline class="cls-8" points="109.608 304.5012 240.64352 346.3137 371.6795 388.1262 633.75104 388.1262 633.75104 304.5012 633.75104 276.62623 633.75104 262.68874 633.75104 248.75121 633.75104 220.87621 633.75104 193.00123 633.75104 179.06371 633.75104 165.12623 633.75104 137.25123 502.71503 95.43874 371.6795 53.62623 240.64352 53.62623 109.608 53.62623 109.608 137.25123 109.608 220.87621 109.608 304.5012"/>
  <polyline class="cls-4" points="109.608 304.5012 240.64352 346.3137 371.6795 388.1262 633.75104 388.1262 633.75104 304.5012 633.75104 276.62623 633.75104 262.68874 633.75104 248.75121 633.75104 220.87621 633.75104 193.00123 633.75104 179.06371 633.75104 165.12623 633.75104 137.25123 502.71503 95.43874 371.6795 53.62623 240.64352 53.62623 109.608 53.62623 109.608 137.25123 109.608 220.87621 109.608 304.5012"/>
  <polyline class="cls-5" points="633.75104 388.1262 642.39105 384.7812 649.66205 381.43623 656.06104 378.09122 661.73706 374.74622 666.76501 371.40122 671.18848 368.05622 675.03906 364.71122 678.3385 361.36622 681.10901 358.02122 683.37103 354.67622 685.36603 351.33121 687.36102 347.98621 689.35547 344.64124 691.35046 341.29624 693.34503 337.95124 695.34003 334.60624 697.33508 331.26124 699.32947 327.91624 701.32452 324.57124 703.31903 321.2262 705.31409 317.8812 707.30847 314.5362 709.30353 311.1912 711.25049 307.8462 712.76001 304.5012 713.57397 301.1562 713.67004 297.8112 713.67004 294.46619 713.67004 291.12121 713.67004 287.77621 713.67004 284.43121 713.67004 281.0862 713.67004 277.74123 713.67004 274.3962 713.67004 271.0512 713.67004 267.70621 713.67004 264.36123 713.67004 261.01623 713.67004 257.67123 713.67004 254.32623 713.67004 250.98121 713.67004 247.63621 713.67004 244.29121 713.67004 240.94622 713.67004 237.60122 713.67004 234.25622 713.67004 230.91122 713.67004 227.56622 713.67004 224.22121 713.67004 220.87621 713.67004 217.53123 713.67004 214.18623 713.67004 210.84122 713.67004 207.49622 713.67004 204.15121 713.67004 200.80621 713.67004 197.46122 713.67004 194.11622 713.67004 190.77122 713.67004 187.42622 713.67004 184.08121 713.67004 180.73621 713.67004 177.39121 713.67004 174.04621 713.67004 170.70124 713.67004 167.35621 713.67004 164.01121 713.46155 160.66621 712.54456 157.32124 710.82996 153.9762 708.24005 150.63123 704.80249 147.2862 700.83545 143.94123 696.20349 140.5962 689.70544 137.25123 681.86401 133.90623 673.9425 130.56123 666.00806 127.21622 658.06799 123.87122 650.12604 120.52622 642.18304 117.18122 634.23853 113.83622 626.29352 110.49122 617.73553 107.14622 606.02454 103.80122 590.992 100.45621 575.32703 97.11121 559.66156 93.76621 543.99652 90.42121 528.33154 87.07621 512.66605 83.73121 497.00104 80.38621 481.33603 77.04121 465.67053 73.69624 450.00549 70.3512 434.34003 67.00623 418.67502 63.6612 403.01004 60.31623 371.6795 53.62623"/>
  <polyline class="cls-1" points="109.608 304.5012 240.64352 346.3137 371.6795 388.1262 633.75104 388.1262 633.75104 304.5012 633.75104 276.62623 633.75104 262.68874 633.75104 248.75121 633.75104 220.87621 633.75104 193.00123 633.75104 179.06371 633.75104 165.12623 633.75104 137.25123 502.71503 95.43874 371.6795 53.62623 240.64352 53.62623 109.608 53.62623 109.608 137.25123 109.608 220.87621 109.608 304.5012"/>
  <polyline class="cls-1" points="109.608 304.5012 240.64352 346.3137 371.6795 388.1262 633.75104 388.1262 633.75104 304.5012 633.75104 276.62623 633.75104 262.68874 633.75104 248.75121 633.75104 220.87621 633.75104 193.00123 633.75104 179.06371 633.75104 165.12623 633.75104 137.25123 502.71503 95.43874 371.6795 53.62623 240.64352 53.62623 109.608 53.62623 109.608 137.25123 109.608 220.87621"/>
  <line class="cls-6" x1="721.10803" y1=".81507" x2="721.10803" y2="448.92078"/>
  <path class="cls-6" d="M14.6341.5v448.10571V.5Z"/>
  <line class="cls-6" x1="14.50562" y1=".5" x2="808.33655" y2=".5"/>
  <line class="cls-6" x1="15.29686" y1="448.60571" x2="809.12779" y2="448.60571"/>
  <text class="cls-11" transform="translate(102.42041 460.75025)"><tspan x="0" y="0">-4</tspan></text>
  <text class="cls-11" transform="translate(191.93109 460.75025)"><tspan x="0" y="0">-3</tspan></text>
  <text class="cls-11" transform="translate(280.27881 460.7501)"><tspan x="0" y="0">-2</tspan></text>
  <text class="cls-11" transform="translate(365.98263 460.88209)"><tspan x="0" y="0">-1</tspan></text>
  <text class="cls-11" transform="translate(453.0837 460.59029)"><tspan x="0" y="0">0</tspan></text>
  <text class="cls-11" transform="translate(543.29548 460.5901)"><tspan x="0" y="0">1</tspan></text>
  <text class="cls-11" transform="translate(630.64017 459.81243)"><tspan x="0" y="0">2</tspan></text>
  <text class="cls-11" transform="translate(718.12018 460.30301)"><tspan x="0" y="0">3</tspan></text>
  <text class="cls-11" transform="translate(5.22392 54.92298)"><tspan x="0" y="0">2</tspan></text>
  <text class="cls-11" transform="translate(3.97588 138.94392)"><tspan x="0" y="0">1</tspan></text>
  <text class="cls-11" transform="translate(3.54375 222.57777)"><tspan x="0" y="0">0</tspan></text>
  <text class="cls-11" transform="translate(.78906 307.2572)"><tspan x="0" y="0">-1</tspan></text>
  <text class="cls-11" transform="translate(.00021 390.64086)"><tspan x="0" y="0">-2</tspan></text>
</svg>