<?xml version="1.0" encoding="UTF-8"?>
<svg id="Layer_1" data-name="Layer 1" xmlns="http://www.w3.org/2000/svg" version="1.1" viewBox="0 0 120.13 213.84">
  <defs>
    <style>
      .cls-1, .cls-2, .cls-3, .cls-4 {
        fill: none;
        stroke: #231f20;
      }

      .cls-1, .cls-3 {
        stroke-miterlimit: 10;
      }

      .cls-5 {
        fill: #c4538a;
      }

      .cls-5, .cls-6, .cls-7, .cls-8, .cls-9, .cls-10, .cls-11, .cls-12, .cls-13, .cls-14, .cls-15, .cls-16, .cls-17, .cls-18, .cls-19, .cls-20 {
        stroke-width: 0px;
      }

      .cls-2 {
        stroke-dasharray: 0 0 0 0 0 0 12 12 12 12 12 12;
      }

      .cls-2, .cls-3, .cls-4 {
        stroke-linecap: round;
      }

      .cls-2, .cls-4 {
        stroke-linejoin: round;
      }

      .cls-6 {
        fill: #e1516c;
      }

      .cls-7 {
        fill: #8c5a89;
      }

      .cls-8 {
        fill: #ea8699;
      }

      .cls-9 {
        fill: #4478bc;
      }

      .cls-10 {
        fill: #eda135;
      }

      .cls-11 {
        fill: #f9d436;
      }

      .cls-12 {
        fill: #87c9d9;
      }

      .cls-13 {
        fill: #72c169;
      }

      .cls-14 {
        fill: #248541;
      }

      .cls-15 {
        fill: #b7bcbd;
        opacity: .6;
      }

      .cls-16 {
        fill: #bd91b6;
      }

      .cls-17 {
        fill: #c0d78f;
      }

      .cls-18 {
        fill: #26b0ad;
      }

      .cls-19 {
        fill: #e67737;
      }

      .cls-20 {
        fill: #b91e4d;
      }
    </style>
  </defs>
  <rect class="cls-15" x="10.86" y="5.04" width="32" height="32"/>
  <rect class="cls-7" x="78.52" y="107.35" width="32" height="32"/>
  <rect class="cls-20" x="78.52" y="73.28" width="32" height="32"/>
  <rect class="cls-19" x="78.52" y="39.22" width="32" height="32"/>
  <rect class="cls-5" x="44.69" y="107.47" width="32" height="32"/>
  <rect class="cls-6" x="44.69" y="73.41" width="32" height="32"/>
  <rect class="cls-10" x="44.69" y="39.35" width="32" height="32"/>
  <rect class="cls-16" x="10.86" y="107.22" width="32" height="32"/>
  <rect class="cls-8" x="10.86" y="73.16" width="32" height="32"/>
  <rect class="cls-11" x="10.86" y="39.1" width="32" height="32"/>
  <rect class="cls-9" x="78.52" y="141.66" width="32" height="32"/>
  <rect class="cls-18" x="44.69" y="141.78" width="32" height="32"/>
  <rect class="cls-12" x="10.86" y="141.53" width="32" height="32"/>
  <rect class="cls-14" x="78.52" y="176.21" width="32" height="32"/>
  <rect class="cls-13" x="44.69" y="176.34" width="32" height="32"/>
  <rect class="cls-17" x="10.86" y="176.09" width="32" height="32"/>
  <path class="cls-4" d="M26.72,192"/>
  <path class="cls-4" d="M26.72,192"/>
  <path class="cls-4" d="M59.52,192"/>
  <path class="cls-4" d="M59.52,192"/>
  <path class="cls-4" d="M93.17,123.56"/>
  <path class="cls-4" d="M93.17,123.56"/>
  <path class="cls-4" d="M93.17,123.56"/>
  <path class="cls-4" d="M93.17,123.56"/>
  <path class="cls-4" d="M93.17,123.56"/>
  <path class="cls-4" d="M93.17,158.26"/>
  <path class="cls-4" d="M93.17,158.26"/>
  <path class="cls-4" d="M93.17,158.26"/>
  <path class="cls-4" d="M93.17,158.26"/>
  <path class="cls-4" d="M93.17,192"/>
  <path class="cls-4" d="M93.17,192"/>
  <path class="cls-4" d="M93.17,192"/>
  <path class="cls-4" d="M93.17,192"/>
  <path class="cls-1" d="M93.17,55.7"/>
  <path class="cls-1" d="M93.17,55.7"/>
  <g>
    <path class="cls-2" d="M26.14,16.78c-.05,2.83-.09,5.66-.13,8.49"/>
    <path class="cls-2" d="M27.77,14.91c-.05,3.45-.09,6.91-.13,10.36"/>
    <path class="cls-2" d="M24.74,25.71c1.45-.07,2.89-.15,4.34-.23h.03"/>
    <path class="cls-2" d="M24.34,18.74c.95-1.4,2.08-2.67,3.36-3.78"/>
  </g>
  <g>
    <path class="cls-4" d="M55.26,154.29"/>
    <g>
      <path class="cls-4" d="M50.79,162.23c.5-3.01,1.24-5.96,2.2-8.81.09-.26.23-.56.46-.58.28-.02.43.36.52.68.73,2.83,1.46,5.67,2.19,8.5"/>
      <path class="cls-4" d="M51.46,159.35c1.25-.3,2.52-.48,3.79-.55"/>
    </g>
    <path class="cls-4" d="M62.86,154.32"/>
    <g>
      <path class="cls-3" d="M66.53,160.87c.14-.37.46-.66.83-.76.23-.06.51-.03.64.18.11.17.09.41.04.61-.25.98-.97,1.74-1.67,2.44"/>
      <path class="cls-3" d="M68.24,163.25c-.63-.04-1.26-.01-1.88.1"/>
      <path class="cls-4" d="M65.69,163.67"/>
      <path class="cls-4" d="M65.91,159.76"/>
    </g>
    <path class="cls-4" d="M61.28,162.17v.02c-.12-2.84-.21-5.69-.19-8.51.48-.28.97-.57,1.5-.72s1.11-.17,1.61.08.88.8.85,1.38c-.02.45-.27.85-.55,1.19-.81,1.04-2.11,1.61-3.1,2.14.46-.24,1.16-.21,1.67-.28s1.05.03,1.46.34c.65.49.89,1.46.66,2.26s-.86,1.45-1.58,1.79-1.54.43-2.33.31Z"/>
    <g>
      <path class="cls-3" d="M57.84,160.86c.14-.37.46-.66.83-.76.23-.06.51-.03.64.18.11.17.09.41.04.61-.25.98-.97,1.74-1.67,2.44"/>
      <path class="cls-3" d="M59.55,163.24c-.63-.04-1.26-.01-1.88.1"/>
      <path class="cls-4" d="M57,163.67"/>
      <path class="cls-4" d="M57.22,159.75"/>
    </g>
  </g>
  <g>
    <path class="cls-3" d="M26.42,125.6c-.04,1.06-.03,2.13.02,3.2"/>
    <path class="cls-3" d="M34.12,125.21c-.04,1.06-.03,2.13.02,3.2"/>
    <g>
      <path class="cls-4" d="M19.3,127.71c.5-3.01,1.24-5.96,2.2-8.81.09-.26.23-.56.46-.58.28-.02.43.36.52.68.73,2.83,1.46,5.67,2.19,8.5"/>
      <path class="cls-4" d="M19.97,124.83c1.25-.3,2.52-.48,3.79-.55"/>
    </g>
    <path class="cls-4" d="M28.37,127.65v.02c-.12-2.84-.21-5.69-.19-8.51.48-.28.97-.57,1.5-.72s1.11-.17,1.61.08.88.8.85,1.38c-.02.45-.27.85-.55,1.19-.81,1.04-2.11,1.61-3.1,2.14.46-.24,1.16-.21,1.67-.28s1.05.03,1.46.34c.65.49.89,1.46.66,2.26s-.86,1.45-1.58,1.79-1.54.43-2.33.31Z"/>
  </g>
  <g>
    <path class="cls-4" d="M56.25,119.53"/>
    <path class="cls-4" d="M62.15,119.62"/>
    <g>
      <path class="cls-3" d="M65.82,126.16c.14-.37.46-.66.83-.76.23-.06.51-.03.64.18.11.17.09.41.04.61-.25.98-.97,1.74-1.67,2.44"/>
      <path class="cls-3" d="M67.53,128.55c-.63-.04-1.26-.01-1.88.1"/>
      <path class="cls-4" d="M64.98,128.97"/>
      <path class="cls-4" d="M65.2,125.06"/>
    </g>
    <path class="cls-3" d="M58.63,125.42c-.04,1.06-.03,2.13.02,3.2"/>
    <g>
      <path class="cls-4" d="M51.5,127.53c.5-3.01,1.24-5.96,2.2-8.81.09-.26.23-.56.46-.58.28-.02.43.36.52.68.73,2.83,1.46,5.67,2.19,8.5"/>
      <path class="cls-4" d="M52.17,124.65c1.25-.3,2.52-.48,3.79-.55"/>
    </g>
    <path class="cls-4" d="M60.57,127.47v.02c-.12-2.84-.21-5.69-.19-8.51.48-.28.97-.57,1.5-.72s1.11-.17,1.61.08.88.8.85,1.38c-.02.45-.27.85-.55,1.19-.81,1.04-2.11,1.61-3.1,2.14.46-.24,1.16-.21,1.67-.28s1.05.03,1.46.34c.65.49.89,1.46.66,2.26s-.86,1.45-1.58,1.79-1.54.43-2.33.31Z"/>
  </g>
  <g>
    <g>
      <path class="cls-3" d="M99.36,125.88c.2-.4.63-.69,1.09-.74.24-.03.51.02.65.2.1.12.13.29.09.45s-.12.29-.21.42c-.31.41-.75.73-1.26.89"/>
      <path class="cls-3" d="M99.21,128.42c.07.16.23.28.41.33s.37.05.55.02c.37-.05.74-.21.95-.5s.25-.71.02-.98c-.16-.19-.42-.28-.67-.3s-.51.04-.75.11"/>
    </g>
    <path class="cls-4" d="M89.39,119.89"/>
    <path class="cls-4" d="M95.29,119.98"/>
    <path class="cls-3" d="M92.17,125.6c-.04,1.06-.03,2.13.02,3.2"/>
    <g>
      <path class="cls-4" d="M85.04,127.71c.5-3.01,1.24-5.96,2.2-8.81.09-.26.23-.56.46-.58.28-.02.43.36.52.68.73,2.83,1.46,5.67,2.19,8.5"/>
      <path class="cls-4" d="M85.72,124.83c1.25-.3,2.52-.48,3.79-.55"/>
    </g>
    <path class="cls-4" d="M94.11,127.65v.02c-.12-2.84-.21-5.69-.19-8.51.48-.28.97-.57,1.5-.72s1.11-.17,1.61.08.88.8.85,1.38c-.02.45-.27.85-.55,1.19-.81,1.04-2.11,1.61-3.1,2.14.46-.24,1.16-.21,1.67-.28s1.05.03,1.46.34c.65.49.89,1.46.66,2.26s-.86,1.45-1.58,1.79-1.54.43-2.33.31Z"/>
  </g>
  <g>
    <g>
      <path class="cls-4" d="M18.45,162.48c.5-3.01,1.24-5.96,2.2-8.81.09-.26.23-.56.46-.58.28-.02.43.36.52.68.73,2.83,1.46,5.67,2.19,8.5"/>
      <path class="cls-4" d="M19.12,159.6c1.25-.3,2.52-.48,3.79-.55"/>
    </g>
    <path class="cls-3" d="M34.97,159.93c-.04,1.06-.03,2.13.02,3.2"/>
    <path class="cls-4" d="M29.22,162.37v.02c-.12-2.84-.21-5.69-.19-8.51.48-.28.97-.57,1.5-.72s1.11-.17,1.61.08.88.8.85,1.38c-.02.45-.27.85-.55,1.19-.81,1.04-2.11,1.61-3.1,2.14.46-.24,1.16-.21,1.67-.28s1.05.03,1.46.34c.65.49.89,1.46.66,2.26s-.86,1.45-1.58,1.79-1.54.43-2.33.31Z"/>
    <g>
      <path class="cls-3" d="M25.5,160.67c.14-.37.46-.66.83-.76.23-.06.51-.03.64.18.11.17.09.41.04.61-.25.98-.97,1.74-1.67,2.44"/>
      <path class="cls-3" d="M27.21,163.06c-.63-.04-1.26-.01-1.88.1"/>
      <path class="cls-4" d="M24.66,163.48"/>
      <path class="cls-4" d="M24.88,159.57"/>
    </g>
  </g>
  <g>
    <g>
      <path class="cls-3" d="M25.28,194.37c.2-.4.63-.69,1.09-.74.24-.03.51.02.65.2.1.12.13.29.09.45s-.12.29-.21.42c-.31.41-.75.73-1.26.89"/>
      <path class="cls-3" d="M25.13,196.9c.07.16.23.28.41.33s.37.05.55.02c.37-.05.74-.21.95-.5s.25-.71.02-.98c-.16-.19-.42-.28-.67-.3s-.51.04-.75.11"/>
    </g>
    <g>
      <path class="cls-4" d="M18.45,196.17c.5-3.01,1.24-5.96,2.2-8.81.09-.26.23-.56.46-.58.28-.02.43.36.52.68.73,2.83,1.46,5.67,2.19,8.5"/>
      <path class="cls-4" d="M19.12,193.3c1.25-.3,2.52-.48,3.79-.55"/>
    </g>
    <path class="cls-3" d="M34.97,193.62c-.04,1.06-.03,2.13.02,3.2"/>
    <path class="cls-4" d="M29.22,196.06v.02c-.12-2.84-.21-5.69-.19-8.51.48-.28.97-.57,1.5-.72s1.11-.17,1.61.08.88.8.85,1.38c-.02.45-.27.85-.55,1.19-.81,1.04-2.11,1.61-3.1,2.14.46-.24,1.16-.21,1.67-.28s1.05.03,1.46.34c.65.49.89,1.46.66,2.26s-.86,1.45-1.58,1.79-1.54.43-2.33.31Z"/>
  </g>
  <g>
    <g>
      <path class="cls-3" d="M57.72,194.37c.2-.4.63-.69,1.09-.74.24-.03.51.02.65.2.1.12.13.29.09.45s-.12.29-.21.42c-.31.41-.75.73-1.26.89"/>
      <path class="cls-3" d="M57.57,196.91c.07.16.23.28.41.33s.37.05.55.02c.37-.05.74-.21.95-.5s.25-.71.02-.98c-.16-.19-.42-.28-.67-.3s-.51.04-.75.11"/>
    </g>
    <g>
      <path class="cls-4" d="M50.79,195.97c.5-3.01,1.24-5.96,2.2-8.81.09-.26.23-.56.46-.58.28-.02.43.36.52.68.73,2.83,1.46,5.67,2.19,8.5"/>
      <path class="cls-4" d="M51.46,193.1c1.25-.3,2.52-.48,3.79-.55"/>
    </g>
    <g>
      <path class="cls-3" d="M66.53,194.61c.14-.37.46-.66.83-.76.23-.06.51-.03.64.18.11.17.09.41.04.61-.25.98-.97,1.74-1.67,2.44"/>
      <path class="cls-3" d="M68.24,196.99c-.63-.04-1.26-.01-1.88.1"/>
      <path class="cls-4" d="M65.69,197.42"/>
      <path class="cls-4" d="M65.91,193.5"/>
    </g>
    <path class="cls-4" d="M61.28,195.92v.02c-.12-2.84-.21-5.69-.19-8.51.48-.28.97-.57,1.5-.72s1.11-.17,1.61.08.88.8.85,1.38c-.02.45-.27.85-.55,1.19-.81,1.04-2.11,1.61-3.1,2.14.46-.24,1.16-.21,1.67-.28s1.05.03,1.46.34c.65.49.89,1.46.66,2.26s-.86,1.45-1.58,1.79-1.54.43-2.33.31Z"/>
  </g>
  <g>
    <g>
      <path class="cls-3" d="M91.2,194.4c.2-.4.63-.69,1.09-.74.24-.03.51.02.65.2.1.12.13.29.09.45s-.12.29-.21.42c-.31.41-.75.73-1.26.89"/>
      <path class="cls-3" d="M91.06,196.94c.07.16.23.28.41.33s.37.05.55.02c.37-.05.74-.21.95-.5s.25-.71.02-.98c-.16-.19-.42-.28-.67-.3s-.51.04-.75.11"/>
    </g>
    <path class="cls-4" d="M88.64,188.32"/>
    <g>
      <path class="cls-4" d="M84.46,196.08c.5-3.01,1.24-5.96,2.2-8.81.09-.26.23-.56.46-.58.28-.02.43.36.52.68.73,2.83,1.46,5.67,2.19,8.5"/>
      <path class="cls-4" d="M85.13,193.21c1.25-.3,2.52-.48,3.79-.55"/>
    </g>
    <g>
      <path class="cls-3" d="M99.94,194.26c.2-.4.63-.69,1.09-.74.24-.03.51.02.65.2.1.12.13.29.09.45s-.12.29-.21.42c-.31.41-.75.73-1.26.89"/>
      <path class="cls-3" d="M99.8,196.8c.07.16.23.28.41.33s.37.05.55.02c.37-.05.74-.21.95-.5s.25-.71.02-.98c-.16-.19-.42-.28-.67-.3s-.51.04-.75.11"/>
    </g>
    <path class="cls-4" d="M95.88,188.35"/>
    <path class="cls-4" d="M94.7,196.03v.02c-.12-2.84-.21-5.69-.19-8.51.48-.28.97-.57,1.5-.72s1.11-.17,1.61.08.88.8.85,1.38c-.02.45-.27.85-.55,1.19-.81,1.04-2.11,1.61-3.1,2.14.46-.24,1.16-.21,1.67-.28s1.05.03,1.46.34c.65.49.89,1.46.66,2.26s-.86,1.45-1.58,1.79-1.54.43-2.33.31Z"/>
  </g>
  <g>
    <path class="cls-4" d="M88.64,154.57"/>
    <g>
      <path class="cls-4" d="M84.46,162.33c.5-3.01,1.24-5.96,2.2-8.81.09-.26.23-.56.46-.58.28-.02.43.36.52.68.73,2.83,1.46,5.67,2.19,8.5"/>
      <path class="cls-4" d="M85.13,159.45c1.25-.3,2.52-.48,3.79-.55"/>
    </g>
    <g>
      <path class="cls-3" d="M99.94,160.51c.2-.4.63-.69,1.09-.74.24-.03.51.02.65.2.1.12.13.29.09.45s-.12.29-.21.42c-.31.41-.75.73-1.26.89"/>
      <path class="cls-3" d="M99.8,163.04c.07.16.23.28.41.33s.37.05.55.02c.37-.05.74-.21.95-.5s.25-.71.02-.98c-.16-.19-.42-.28-.67-.3s-.51.04-.75.11"/>
    </g>
    <path class="cls-4" d="M95.88,154.6"/>
    <path class="cls-4" d="M94.7,162.27v.02c-.12-2.84-.21-5.69-.19-8.51.48-.28.97-.57,1.5-.72s1.11-.17,1.61.08.88.8.85,1.38c-.02.45-.27.85-.55,1.19-.81,1.04-2.11,1.61-3.1,2.14.46-.24,1.16-.21,1.67-.28s1.05.03,1.46.34c.65.49.89,1.46.66,2.26s-.86,1.45-1.58,1.79-1.54.43-2.33.31Z"/>
    <g>
      <path class="cls-3" d="M91.39,160.77c.14-.37.46-.66.83-.76.23-.06.51-.03.64.18.11.17.09.41.04.61-.25.98-.97,1.74-1.67,2.44"/>
      <path class="cls-3" d="M93.11,163.15c-.63-.04-1.26-.01-1.88.1"/>
      <path class="cls-4" d="M90.55,163.57"/>
      <path class="cls-4" d="M90.77,159.66"/>
    </g>
  </g>
  <path class="cls-1" d="M26.72,55.7"/>
  <path class="cls-1" d="M59.52,55.7"/>
  <path class="cls-1" d="M59.52,55.7"/>
  <path class="cls-4" d="M59.52,55.7"/>
  <path class="cls-1" d="M93.17,55.7"/>
  <path class="cls-1" d="M93.17,89.17"/>
  <g>
    <path class="cls-1" d="M29.97,55.07"/>
    <path class="cls-4" d="M27.89,51.85"/>
    <path class="cls-3" d="M30.27,57.74c-.04,1.06-.03,2.13.02,3.2"/>
    <g>
      <path class="cls-4" d="M23.15,59.85c.5-3.01,1.24-5.96,2.2-8.81.09-.26.23-.56.46-.58.28-.02.43.36.52.68.73,2.83,1.46,5.67,2.19,8.5"/>
      <path class="cls-4" d="M23.82,56.97c1.25-.3,2.52-.48,3.79-.55"/>
    </g>
  </g>
  <g>
    <path class="cls-1" d="M89.81,55.46"/>
    <path class="cls-1" d="M95.68,55.46"/>
    <g>
      <path class="cls-3" d="M95.57,58.1c.2-.4.63-.69,1.09-.74.24-.03.51.02.65.2.1.12.13.29.09.45s-.12.29-.21.42c-.31.41-.75.73-1.26.89"/>
      <path class="cls-3" d="M95.43,60.63c.07.16.23.28.41.33s.37.05.55.02c.37-.05.74-.21.95-.5s.25-.71.02-.98c-.16-.19-.42-.28-.67-.3s-.51.04-.75.11"/>
    </g>
    <g>
      <path class="cls-4" d="M88.83,59.78c.5-3.01,1.24-5.96,2.2-8.81.09-.26.23-.56.46-.58.28-.02.43.36.52.68.73,2.83,1.46,5.67,2.19,8.5"/>
      <path class="cls-4" d="M89.5,56.9c1.25-.3,2.52-.48,3.79-.55"/>
    </g>
  </g>
  <g>
    <path class="cls-3" d="M29.68,91.02c-.04,1.06-.03,2.13.02,3.2"/>
    <path class="cls-4" d="M23.93,93.46v.02c-.12-2.84-.21-5.69-.19-8.51.48-.28.97-.57,1.5-.72s1.11-.17,1.61.08.88.8.85,1.38c-.02.45-.27.85-.55,1.19-.81,1.04-2.11,1.61-3.1,2.14.46-.24,1.16-.21,1.67-.28s1.05.03,1.46.34c.65.49.89,1.46.66,2.26s-.86,1.45-1.58,1.79-1.54.43-2.33.31Z"/>
  </g>
  <g>
    <path class="cls-1" d="M62.57,55.18"/>
    <path class="cls-1" d="M62.57,55.18"/>
    <path class="cls-4" d="M62.57,55.18"/>
    <path class="cls-4" d="M59.38,52.01"/>
    <g>
      <path class="cls-4" d="M55.19,59.77c.5-3.01,1.24-5.96,2.2-8.81.09-.26.23-.56.46-.58.28-.02.43.36.52.68.73,2.83,1.46,5.67,2.19,8.5"/>
      <path class="cls-4" d="M55.86,56.89c1.25-.3,2.52-.48,3.79-.55"/>
    </g>
    <g>
      <path class="cls-3" d="M62.13,58.21c.14-.37.46-.66.83-.76.23-.06.51-.03.64.18.11.17.09.41.04.61-.25.98-.97,1.74-1.67,2.44"/>
      <path class="cls-3" d="M63.84,60.59c-.63-.04-1.26-.01-1.88.1"/>
      <path class="cls-4" d="M61.29,61.02"/>
      <path class="cls-4" d="M61.51,57.1"/>
    </g>
  </g>
  <g>
    <g>
      <path class="cls-3" d="M61.38,91.78c.14-.37.46-.66.83-.76.23-.06.51-.03.64.18.11.17.09.41.04.61-.25.98-.97,1.74-1.67,2.44"/>
      <path class="cls-3" d="M63.09,94.16c-.63-.04-1.26-.01-1.88.1"/>
      <path class="cls-4" d="M60.54,94.59"/>
      <path class="cls-4" d="M60.76,90.67"/>
    </g>
    <path class="cls-4" d="M56.13,93.09v.02c-.12-2.84-.21-5.69-.19-8.51.48-.28.97-.57,1.5-.72s1.11-.17,1.61.08.88.8.85,1.38c-.02.45-.27.85-.55,1.19-.81,1.04-2.11,1.61-3.1,2.14.46-.24,1.16-.21,1.67-.28s1.05.03,1.46.34c.65.49.89,1.46.66,2.26s-.86,1.45-1.58,1.79-1.54.43-2.33.31Z"/>
  </g>
  <g>
    <path class="cls-1" d="M96.23,88.67"/>
    <g>
      <path class="cls-3" d="M94.92,91.5c.2-.4.63-.69,1.09-.74.24-.03.51.02.65.2.1.12.13.29.09.45s-.12.29-.21.42c-.31.41-.75.73-1.26.89"/>
      <path class="cls-3" d="M94.77,94.03c.07.16.23.28.41.33s.37.05.55.02c.37-.05.74-.21.95-.5s.25-.71.02-.98c-.16-.19-.42-.28-.67-.3s-.51.04-.75.11"/>
    </g>
    <path class="cls-4" d="M90.85,85.59"/>
    <path class="cls-4" d="M89.68,93.27v.02c-.12-2.84-.21-5.69-.19-8.51.48-.28.97-.57,1.5-.72s1.11-.17,1.61.08.88.8.85,1.38c-.02.45-.27.85-.55,1.19-.81,1.04-2.11,1.61-3.1,2.14.46-.24,1.16-.21,1.67-.28s1.05.03,1.46.34c.65.49.89,1.46.66,2.26s-.86,1.45-1.58,1.79-1.54.43-2.33.31Z"/>
  </g>
</svg>