<?xml version="1.0" encoding="UTF-8"?>
<svg id="Layer_1" data-name="Layer 1" xmlns="http://www.w3.org/2000/svg" viewBox="0 0 178.7573806186 155.3297000028">
  <defs>
    <style>
      .cls-1, .cls-2, .cls-3, .cls-4 {
        fill: none;
        stroke-linecap: round;
      }

      .cls-1, .cls-2, .cls-4 {
        stroke-linejoin: round;
      }

      .cls-1, .cls-3, .cls-4 {
        stroke: #231f20;
      }

      .cls-2 {
        stroke: #010101;
      }

      .cls-3 {
        stroke-miterlimit: 10;
      }

      .cls-4 {
        opacity: .15;
      }
    </style>
  </defs>
  <g>
    <polyline class="cls-1" points="36.3318898377 .5 143.8275593509 .5 143.8275593509 143.8275593509 .5 143.8275593509 .5 36.3318898377"/>
    <line class="cls-1" x1=".5" y1="107.9956695132" x2="143.8275593509" y2="107.9956695132"/>
    <line class="cls-1" x1=".5" y1="72.1637796754" x2="143.8275593509" y2="72.1637796754"/>
    <line class="cls-1" x1=".5" y1="36.3318898377" x2="143.8275593509" y2="36.3318898377"/>
    <line class="cls-1" x1="107.9956695132" y1="1.0652792533" x2="107.9956695132" y2="143.8275593509"/>
    <line class="cls-1" x1="72.1637796754" y1=".5" x2="72.1637796754" y2="143.8275593509"/>
    <line class="cls-1" x1="36.3318898377" y1=".5" x2="36.3318898377" y2="143.8275593509"/>
    <line class="cls-1" x1="17.7600890277" y1="36.3318898377" x2="17.7600890277" y2="143.8275593509"/>
    <line class="cls-1" x1="36.3318898377" y1="17.19614223" x2="143.8275593509" y2="17.19614223"/>
    <line class="cls-1" x1="54.1102504582" y1="17.19614223" x2="54.1102504582" y2="36.3318898377"/>
    <line class="cls-1" x1="90.0797245943" y1="17.19614223" x2="90.0797245943" y2="36.3318898377"/>
    <line class="cls-1" x1="126.1673645434" y1="17.19614223" x2="126.1673645434" y2="36.3318898377"/>
    <line class="cls-1" x1="17.7600890277" y1="54.0239201365" x2="36.3318898377" y2="54.0239201365"/>
    <line class="cls-1" x1="17.7600890277" y1="90.0797245943" x2="36.3318898377" y2="90.0797245943"/>
    <line class="cls-1" x1="17.7600890277" y1="126.0146945597" x2="36.3318898377" y2="126.0146945597"/>
    <line class="cls-4" x1="36.3318898377" y1="54.0239201365" x2="143.8275593509" y2="54.0239201365"/>
    <line class="cls-4" x1="54.1102504582" y1="36.3318898377" x2="54.1102504582" y2="143.8275593509"/>
    <line class="cls-4" x1="36.3318898377" y1="126.0146945597" x2="143.8275593509" y2="126.0146945597"/>
    <line class="cls-4" x1="36.3318898377" y1="90.0797245943" x2="143.8275593509" y2="90.0797245943"/>
    <line class="cls-4" x1="126.1673645434" y1="36.3318898377" x2="126.1673645434" y2="143.8275593509"/>
    <line class="cls-4" x1="90.0797245943" y1="36.3318898377" x2="90.0797245943" y2="143.8275593509"/>
    <path class="cls-3" d="m54.2169096856,4.2270453264c-.0884722894,2.5618769703-.0722865276,5.1296779865.0484689651,7.6893914298"/>
    <g>
      <path class="cls-3" d="m86.9479252082,6.0275965195c.3445853247-.8948721471,1.1076665148-1.5939869378,1.9902825512-1.8234441987.5514351002-.1433590714,1.2233742076-.0636323123,1.5489182913.4313608862.2745223079.4174143739.2127793227.98387612.0871031216,1.4755368242-.6046695999,2.3655408978-2.343676506,4.1795287249-4.0193710361,5.861318039"/>
      <path class="cls-3" d="m91.0712206333,11.7571573088c-1.5077064639-.1075567132-3.0273156996-.0248159961-4.5168431348.2459361467"/>
    </g>
    <g>
      <path class="cls-3" d="m124.0544843194,5.7878532168c.4244493626-.8386897197,1.3249201057-1.4459262636,2.303348125-1.5532732912.5003297929-.0548931505,1.0669201878.0418628396,1.3744813797.4182384321.2139450718.2618137224.2639444252.6198031306.1952523109.9439866569s-.244553483.6196034489-.4460731506.8900515574c-.6475305471.8690138079-1.5927901617,1.5371779216-2.6586680646,1.8793001942"/>
      <path class="cls-3" d="m123.7411866666,11.1360495749c.1526737102.3409818903.494066154.5860149096.8678233818.6985125505s.7775593228.1051216947,1.165196769.0481376848c.7783529894-.114420655,1.5518297404-.4498341006,2.0141993435-1.0515947662s.5352370278-1.4956568859.0400546496-2.0737088112c-.3380680883-.3946443447-.884254517-.5931948228-1.4211373021-.6228731686s-1.0701765035.0918044756-1.5838632611.2420561047"/>
    </g>
    <path class="cls-3" d="m8.442014609,50.1792244216c-.0884722894,2.5618769703-.0722865276,5.1296779865.0484689651,7.6893914298"/>
    <g>
      <path class="cls-3" d="m7.3835395789,88.0355800724c.3445853247-.8948721471,1.1076665148-1.5939869378,1.9902825512-1.8234441987.5514351002-.1433590714,1.2233742076-.0636323123,1.5489182913.4313608862.2745223079.4174143739.2127793227.98387612.0871031216,1.4755368242-.6046695999,2.3655408978-2.343676506,4.1795287249-4.0193710361,5.861318039"/>
      <path class="cls-3" d="m11.506835004,93.7651408617c-1.5077064639-.1075567132-3.0273156996-.0248159961-4.5168431348.2459361467"/>
    </g>
    <g>
      <path class="cls-3" d="m6.5377109096,123.7308067352c.4244493626-.8386897197,1.3249201057-1.4459262636,2.303348125-1.5532732911.5003297929-.0548931505,1.0669201878.0418628396,1.3744813797.4182384321.2139450718.2618137224.2639444252.6198031306.1952523109.9439866569s-.244553483.6196034489-.4460731506.8900515574c-.6475305471.8690138079-1.5927901617,1.5371779216-2.6586680646,1.8793001942"/>
      <path class="cls-3" d="m6.2244132568,129.0790030932c.1526737102.3409818903.494066154.5860149096.8678233818.6985125505s.7775593228.1051216947,1.165196769.0481376848c.7783529894-.114420655,1.5518297404-.4498341006,2.0141993435-1.0515947662s.5352370278-1.4956568859.0400546496-2.0737088112c-.3380680883-.3946443447-.884254517-.5931948228-1.4211373022-.6228731686s-1.0701765035.0918044756-1.5838632611.2420561047"/>
    </g>
    <g>
      <path class="cls-3" d="m49.3434516288,22.6558560371c-.1096803755,2.7374339262-.0896146528,5.4811978536.0600876764,8.2163199935"/>
      <line class="cls-2" x1="41.0386009908" y1="26.7640160339" x2="46.0522165529" y2="26.7640160339"/>
      <line class="cls-2" x1="43.5454087719" y1="24.2572082528" x2="43.5454087719" y2="29.2708238149"/>
    </g>
    <g>
      <line class="cls-2" x1="58.9545459097" y1="26.7640160339" x2="63.9681614718" y2="26.7640160339"/>
      <path class="cls-3" d="m67.2593965476,22.6558560371c-.1096803755,2.7374339262-.0896146528,5.4811978536.0600876764,8.2163199935"/>
    </g>
    <g>
      <path class="cls-3" d="m84.8738621735,22.6558560371c-.1096803755,2.7374339262-.0896146528,5.4811978536.0600876764,8.2163199935"/>
      <line class="cls-2" x1="76.5690115355" y1="26.7640160339" x2="81.5826270976" y2="26.7640160339"/>
      <line class="cls-2" x1="79.0758193166" y1="24.2572082528" x2="79.0758193166" y2="29.2708238149"/>
    </g>
    <g>
      <line class="cls-2" x1="94.2847564102" y1="26.7640160339" x2="99.2983719723" y2="26.7640160339"/>
      <path class="cls-3" d="m102.5896070482,22.6558560371c-.1096803755,2.7374339262-.0896146528,5.4811978536.0600876764,8.2163199935"/>
    </g>
    <g>
      <path class="cls-3" d="m120.7329238663,22.6558560371c-.1096803755,2.7374339262-.0896146528,5.4811978536.0600876764,8.2163199935"/>
      <line class="cls-2" x1="112.4280732283" y1="26.7640160339" x2="117.4416887904" y2="26.7640160339"/>
      <line class="cls-2" x1="114.9348810094" y1="24.2572082528" x2="114.9348810094" y2="29.2708238149"/>
    </g>
    <g>
      <line class="cls-2" x1="129.6602086203" y1="26.7640160339" x2="134.6738241824" y2="26.7640160339"/>
      <path class="cls-3" d="m137.9650592582,22.6558560371c-.1096803755,2.7374339262-.0896146528,5.4811978536.0600876764,8.2163199935"/>
    </g>
    <g>
      <path class="cls-3" d="m30.5152418404,41.0697449903c-.1096803755,2.7374339262-.0896146528,5.4811978536.0600876764,8.2163199935"/>
      <line class="cls-2" x1="22.2103912024" y1="45.1779049871" x2="27.2240067645" y2="45.1779049871"/>
      <line class="cls-2" x1="24.7171989835" y1="42.671097206" x2="24.7171989835" y2="47.6847127681"/>
    </g>
    <g>
      <line class="cls-2" x1="22.3760619185" y1="63.0938499059" x2="27.3896774805" y2="63.0938499059"/>
      <path class="cls-3" d="m30.6809125564,58.9856899092c-.1096803755,2.7374339262-.0896146528,5.4811978536.0600876764,8.2163199935"/>
    </g>
    <g>
      <path class="cls-3" d="m30.5152418404,77.6820760649c-.1096803755,2.7374339262-.0896146528,5.4811978536.0600876764,8.2163199935"/>
      <line class="cls-2" x1="22.2103912024" y1="81.7902360617" x2="27.2240067645" y2="81.7902360617"/>
      <line class="cls-2" x1="24.7171989835" y1="79.2834282806" x2="24.7171989835" y2="84.2970438427"/>
    </g>
    <g>
      <line class="cls-2" x1="22.2103912024" y1="99.0376970537" x2="27.2240067645" y2="99.0376970537"/>
      <path class="cls-3" d="m30.5152418404,94.929537057c-.1096803755,2.7374339262-.0896146528,5.4811978536.0600876764,8.2163199935"/>
    </g>
    <g>
      <path class="cls-3" d="m30.5152418404,112.8692224497c-.1096803755,2.7374339262-.0896146528,5.4811978536.0600876764,8.2163199935"/>
      <line class="cls-2" x1="22.2103912024" y1="116.9773824465" x2="27.2240067645" y2="116.9773824465"/>
      <line class="cls-2" x1="24.7171989835" y1="114.4705746654" x2="24.7171989835" y2="119.4841902275"/>
    </g>
    <g>
      <line class="cls-2" x1="22.2103912024" y1="134.7291176225" x2="27.2240067645" y2="134.7291176225"/>
      <path class="cls-3" d="m30.5152418404,130.6209576257c-.1096803755,2.7374339262-.0896146528,5.4811978536.0600876764,8.2163199935"/>
    </g>
    <g>
      <line class="cls-1" x1="7.6948331213" y1="17.200726122" x2="11.3697122186" y2="11.209348877"/>
      <line class="cls-1" x1="7.6948331213" y1="17.200726122" x2="11.6395961151" y2="23.2695922823"/>
    </g>
    <g>
      <line class="cls-1" x1="27.5316379412" y1="16.9922826065" x2="23.8567588439" y2="22.9836598515"/>
      <line class="cls-1" x1="27.5316379412" y1="16.9922826065" x2="23.5868749474" y2="10.9234164462"/>
    </g>
    <path class="cls-1" d="m11.1384049122,147.4637299223c-1.9387351678,2.6055633593-3.628857644,4.7604067211-5.5675928117,7.3659700804"/>
    <path class="cls-1" d="m5.3417001216,147.7036492372l5.7967047906,6.8861314508"/>
    <path class="cls-1" d="m30.0888215687,147.8363129601c-.4576364028,1.1310705532-.8350100181,1.9468985478-1.2790416779,2.9091991511s-.997268974,1.9008100505-1.8064634442,2.5965159177-1.9104594801,1.1225673381-2.968929373.9372831058-2.0052243159-1.0812981246-2.0384243036-2.1374203242c-.0313147741-.9961437547.7503725517-1.9082850127,1.7111851625-2.2270165617s2.0415836961-.1184228755,2.937062023.3492637897,1.6320417326,1.180360608,2.3086567714,1.9226971268,1.3102424782,1.527464764,1.9949085894,2.2702817997"/>
    <g>
      <path class="cls-1" d="m148.8318308492,4.9348183904c-.1739913055.6823073593-.1734773565.7448232303-.1816279361,1.4429265134s.1622600544,1.415889551.6265013312,1.9919287392,1.2544068009.98742256,2.0752097973.9547554947c1.1142477184-.0443458456,2.0065296816-.8829960316,2.3160945067-1.7934975364s.164037974-1.8821731423.0160653502-2.8215257143c.3630742132,2.1812453972.5936616547,4.1562178735-.1341261728,6.1272107051-.205587361.5567711421-.4793392372,1.103931845-.9059265917,1.5612531335s-1.0199112371.8205125424-1.6947925864.9287852046c-.7374955268.1183181521-1.536951899-.0906916469-2.0685743221-.5408077388s-.7803942422-1.1286241182-.643691168-1.7556233886"/>
      <path class="cls-1" d="m148.5824133197,32.4256120635c-.0707114272-2.649762932-.1087925584-5.4269440033,1.3175660853-7.7841100529.3892147531-.6432074149.935641105-1.2773051141,1.7399035441-1.5142502119s1.8796682788.117160274,2.0163329175.8310135316c.0966350495.5047622878-.2797257164.9845130437-.6894633682,1.3591279715-.9742940523.8907775458-2.6050359878,1.5371596611-3.9916524919,1.8384673153.6474081481-.2051754402,1.6604052463-.4129124639,2.3511900861-.42690047s1.427509731.2014537722,1.8148313083.6876256839c.4366928884.5481435243.312096827,1.333138677-.1788877805,1.8470499065s-1.2790008661.7766946879-2.0564825898.8187970275-1.5513453115-.114325415-2.2932539693-.3162873629"/>
    </g>
    <path class="cls-1" d="m13.3822409123,12.8702729707c-.1512867004,2.8594445236-.3025734007,5.7188890472-.4778105414,8.6517385186l3.9986275602-.2911023221"/>
    <g>
      <path class="cls-1" d="m18.6424921268,21.373796771c.0670135551-2.7665793776.1340271101-5.5331587551.2900864548-8.3553090819h3.8157190951"/>
      <path class="cls-1" d="m18.8768211475,16.9535381488l3.7600317874.0253906591"/>
    </g>
  </g>
  <g>
    <path class="cls-3" d="m66.3500643936,41.0484135496c-.1096803755,2.7374339262-.0896146528,5.4811978536.0600876764,8.2163199935"/>
    <line class="cls-2" x1="58.0452137556" y1="45.1565735464" x2="63.0588293177" y2="45.1565735464"/>
    <line class="cls-2" x1="60.5520215367" y1="42.6497657653" x2="60.5520215367" y2="47.6633813274"/>
  </g>
  <g>
    <line class="cls-2" x1="93.8644833653" y1="63.0725184652" x2="98.8780989274" y2="63.0725184652"/>
    <path class="cls-3" d="m102.1693340032,58.9643584685c-.1096803755,2.7374339262-.0896146528,5.4811978536.0600876764,8.2163199935"/>
  </g>
  <g>
    <path class="cls-3" d="m49.2786344459,58.9643584685c-.1096803755,2.7374339262-.0896146528,5.4811978536.0600876764,8.2163199935"/>
    <line class="cls-2" x1="40.9737838079" y1="63.0725184652" x2="45.98739937" y2="63.0725184652"/>
    <line class="cls-2" x1="43.480591589" y1="60.5657106842" x2="43.480591589" y2="65.5793262463"/>
  </g>
  <path class="cls-3" d="m66.3500643936,58.9643584685c-.1096803755,2.7374339262-.0896146528,5.4811978536.0600876764,8.2163199935"/>
  <g>
    <line class="cls-2" x1="58.0452137556" y1="63.0725184652" x2="63.0588293177" y2="63.0725184652"/>
    <line class="cls-2" x1="60.5520215367" y1="60.5657106842" x2="60.5520215367" y2="65.5793262463"/>
  </g>
  <g>
    <g>
      <path class="cls-3" d="m46.055593469,42.8726857218c.4244493626-.8386897197,1.3249201057-1.4459262636,2.303348125-1.5532732912.5003297929-.0548931505,1.0669201878.0418628396,1.3744813797.4182384321.2139450718.2618137224.2639444252.6198031306.1952523109.9439866569s-.244553483.6196034489-.4460731506.8900515574c-.6475305471.8690138079-1.5927901617,1.5371779216-2.6586680646,1.8793001942"/>
      <path class="cls-3" d="m45.7422958162,48.2208820799c.1526737102.3409818903.494066154.5860149096.8678233818.6985125505s.7775593228.1051216947,1.165196769.0481376848c.7783529894-.114420655,1.5518297404-.4498341006,2.0141993435-1.0515947662s.5352370278-1.4956568859.0400546496-2.0737088112c-.3380680883-.3946443447-.884254517-.5931948228-1.4211373021-.6228731686s-1.0701765035.0918044756-1.5838632611.2420561047"/>
    </g>
    <line class="cls-2" x1="39.154921973" y1="45.4509892713" x2="44.1685375351" y2="45.4509892713"/>
  </g>
  <g>
    <path class="cls-3" d="m82.3752852575,42.9309742581c.4244493626-.8386897197,1.3249201057-1.4459262636,2.303348125-1.5532732912.5003297929-.0548931505,1.0669201878.0418628396,1.3744813797.4182384321.2139450718.2618137224.2639444252.6198031306.1952523109.9439866569s-.244553483.6196034489-.4460731506.8900515574c-.6475305471.8690138079-1.5927901617,1.5371779216-2.6586680646,1.8793001942"/>
    <path class="cls-3" d="m82.0619876047,48.2791706162c.1526737102.3409818903.494066154.5860149096.8678233818.6985125505s.7775593228.1051216947,1.165196769.0481376848c.7783529894-.114420655,1.5518297404-.4498341006,2.0141993435-1.0515947662s.5352370278-1.4956568859.0400546496-2.0737088112c-.3380680883-.3946443447-.884254517-.5931948228-1.4211373021-.6228731686s-1.0701765035.0918044756-1.5838632611.2420561047"/>
  </g>
  <line class="cls-2" x1="75.4746137614" y1="45.5092778076" x2="80.4882293235" y2="45.5092778076"/>
  <g>
    <g>
      <line class="cls-2" x1="93.0333369603" y1="45.5092778076" x2="98.0469525224" y2="45.5092778076"/>
      <line class="cls-2" x1="95.5401447414" y1="43.0024700266" x2="95.5401447414" y2="48.0160855887"/>
    </g>
    <g>
      <path class="cls-3" d="m99.860150095,43.2253899831c.4244493626-.8386897197,1.3249201057-1.4459262636,2.303348125-1.5532732912.5003297929-.0548931505,1.0669201878.0418628396,1.3744813797.4182384321.2139450718.2618137224.2639444252.6198031306.1952523109.9439866569s-.244553483.6196034489-.4460731506.8900515574c-.6475305471.8690138079-1.5927901617,1.5371779216-2.6586680646,1.8793001942"/>
      <path class="cls-3" d="m99.5468524422,48.5735863412c.1526737102.3409818903.494066154.5860149096.8678233818.6985125505s.7775593228.1051216947,1.165196769.0481376848c.7783529894-.114420655,1.5518297404-.4498341006,2.0141993435-1.0515947662s.5352370278-1.4956568859.0400546496-2.0737088112c-.3380680883-.3946443447-.884254517-.5931948228-1.4211373021-.6228731686s-1.0701765035.0918044756-1.5838632611.2420561047"/>
    </g>
  </g>
  <g>
    <path class="cls-3" d="m84.6106108043,58.9643584685c-.1096803755,2.7374339262-.0896146528,5.4811978536.0600876764,8.2163199935"/>
    <line class="cls-2" x1="76.3057601664" y1="63.0725184652" x2="81.3193757285" y2="63.0725184652"/>
    <line class="cls-2" x1="78.8125679474" y1="60.5657106842" x2="78.8125679474" y2="65.5793262463"/>
  </g>
  <g>
    <g>
      <path class="cls-3" d="m46.549451184,79.4850167964c.4244493626-.8386897197,1.3249201057-1.4459262636,2.303348125-1.5532732912.5003297929-.0548931505,1.0669201878.0418628396,1.3744813797.4182384321.2139450718.2618137224.2639444252.6198031306.1952523109.9439866569s-.244553483.6196034489-.4460731506.8900515574c-.6475305471.8690138079-1.5927901617,1.5371779216-2.6586680646,1.8793001942"/>
      <path class="cls-3" d="m46.2361535312,84.8332131545c.1526737102.3409818903.494066154.5860149096.8678233818.6985125505s.7775593228.1051216947,1.165196769.0481376848c.7783529894-.114420655,1.5518297404-.4498341006,2.0141993435-1.0515947662s.5352370278-1.4956568859.0400546496-2.0737088112c-.3380680883-.3946443447-.884254517-.5931948228-1.4211373021-.6228731686s-1.0701765035.0918044756-1.5838632611.2420561047"/>
    </g>
    <line class="cls-2" x1="39.648779688" y1="82.0633203459" x2="44.6623952501" y2="82.0633203459"/>
  </g>
  <g>
    <g>
      <line class="cls-2" x1="39.1918511537" y1="99.016365613" x2="44.2054667158" y2="99.016365613"/>
      <line class="cls-2" x1="41.6986589347" y1="96.5095578319" x2="41.6986589347" y2="101.523173394"/>
    </g>
    <g>
      <path class="cls-3" d="m46.0186642883,96.7324777885c.4244493626-.8386897197,1.3249201057-1.4459262636,2.303348125-1.5532732912.5003297929-.0548931505,1.0669201878.0418628396,1.3744813797.4182384321.2139450718.2618137224.2639444252.6198031306.1952523109.9439866569s-.244553483.6196034489-.4460731506.8900515574c-.6475305471.8690138079-1.5927901617,1.5371779216-2.6586680646,1.8793001942"/>
      <path class="cls-3" d="m45.7053666355,102.0806741466c.1526737102.3409818903.494066154.5860149096.8678233818.6985125505s.7775593228.1051216947,1.165196769.0481376848c.7783529894-.114420655,1.5518297404-.4498341006,2.0141993435-1.0515947662s.5352370278-1.4956568859.0400546496-2.0737088112c-.3380680883-.3946443447-.884254517-.5931948228-1.4211373021-.6228731686s-1.0701765035.0918044756-1.5838632611.2420561047"/>
    </g>
  </g>
  <g>
    <path class="cls-3" d="m66.3500643936,77.9551603491c-.1096803755,2.7374339262-.0896146528,5.4811978536.0600876764,8.2163199935"/>
    <line class="cls-2" x1="58.0452137556" y1="82.0633203459" x2="63.0588293177" y2="82.0633203459"/>
    <line class="cls-2" x1="60.5520215367" y1="79.5565125648" x2="60.5520215367" y2="84.5701281269"/>
  </g>
  <g>
    <line class="cls-2" x1="58.0452137556" y1="99.310781338" x2="63.0588293177" y2="99.310781338"/>
    <path class="cls-3" d="m66.3500643936,95.2026213412c-.1096803755,2.7374339262-.0896146528,5.4811978536.0600876764,8.2163199935"/>
  </g>
  <g>
    <path class="cls-3" d="m137.9002420754,77.9551603491c-.1096803755,2.7374339262-.0896146528,5.4811978536.0600876764,8.2163199935"/>
    <line class="cls-2" x1="129.5953914374" y1="82.0633203459" x2="134.6090069995" y2="82.0633203459"/>
    <line class="cls-2" x1="132.1021992185" y1="79.5565125648" x2="132.1021992185" y2="84.5701281269"/>
  </g>
  <g>
    <path class="cls-3" d="m121.1390813262,95.2026213412c-.1096803755,2.7374339262-.0896146528,5.4811978536.0600876764,8.2163199935"/>
    <line class="cls-2" x1="112.8342306882" y1="99.310781338" x2="117.8478462503" y2="99.310781338"/>
    <line class="cls-2" x1="115.3410384693" y1="96.8039735569" x2="115.3410384693" y2="101.817589119"/>
  </g>
  <g>
    <path class="cls-3" d="m85.1793164328,130.599626185c-.1096803755,2.7374339262-.0896146528,5.4811978536.0600876764,8.2163199935"/>
    <line class="cls-2" x1="76.8744657948" y1="134.7077861818" x2="81.8880813569" y2="134.7077861818"/>
    <line class="cls-2" x1="79.3812735759" y1="132.2009784007" x2="79.3812735759" y2="137.2145939628"/>
  </g>
  <g>
    <path class="cls-3" d="m102.0039337037,112.847891009c-.1096803755,2.7374339262-.0896146528,5.4811978536.0600876764,8.2163199935"/>
    <line class="cls-2" x1="93.6990830658" y1="116.9560510058" x2="98.7126986279" y2="116.9560510058"/>
    <line class="cls-2" x1="96.2058908468" y1="114.4492432247" x2="96.2058908468" y2="119.4628587868"/>
  </g>
  <g>
    <path class="cls-3" d="m121.1390813262,130.8947156455c-.1096803755,2.7374339262-.0896146528,5.4811978536.0600876764,8.2163199935"/>
    <line class="cls-2" x1="112.8342306882" y1="135.0028756422" x2="117.8478462503" y2="135.0028756422"/>
    <line class="cls-2" x1="115.3410384693" y1="132.4960678612" x2="115.3410384693" y2="137.5096834233"/>
  </g>
  <g>
    <path class="cls-3" d="m137.9002420754,112.8756905989c-.1096803755,2.7374339262-.0896146528,5.4811978536.0600876764,8.2163199935"/>
    <line class="cls-2" x1="129.5953914374" y1="116.9838505957" x2="134.6090069995" y2="116.9838505957"/>
    <line class="cls-2" x1="132.1021992185" y1="114.4770428146" x2="132.1021992185" y2="119.4906583767"/>
  </g>
  <g>
    <line class="cls-2" x1="112.7045963225" y1="82.0633203459" x2="117.7182118846" y2="82.0633203459"/>
    <path class="cls-3" d="m121.0094469604,77.9551603491c-.1096803755,2.7374339262-.0896146528,5.4811978536.0600876764,8.2163199935"/>
  </g>
  <g>
    <line class="cls-2" x1="129.4657570716" y1="98.5542481519" x2="134.4793726337" y2="98.5542481519"/>
    <path class="cls-3" d="m137.7706077096,94.4460881552c-.1096803755,2.7374339262-.0896146528,5.4811978536.0600876764,8.2163199935"/>
  </g>
  <g>
    <line class="cls-2" x1="76.3057601664" y1="116.9838505957" x2="81.3193757285" y2="116.9838505957"/>
    <path class="cls-3" d="m84.6106108043,112.8756905989c-.1096803755,2.7374339262-.0896146528,5.4811978536.0600876764,8.2163199935"/>
  </g>
  <g>
    <line class="cls-2" x1="94.2279608584" y1="134.7077861818" x2="99.2415764205" y2="134.7077861818"/>
    <path class="cls-3" d="m102.5328114964,130.599626185c-.1096803755,2.7374339262-.0896146528,5.4811978536.0600876764,8.2163199935"/>
  </g>
  <g>
    <line class="cls-2" x1="112.8342306882" y1="116.9838505957" x2="117.8478462503" y2="116.9838505957"/>
    <path class="cls-3" d="m121.1390813262,112.8756905989c-.1096803755,2.7374339262-.0896146528,5.4811978536.0600876764,8.2163199935"/>
  </g>
  <g>
    <line class="cls-2" x1="129.5953914374" y1="135.0028756422" x2="134.6090069995" y2="135.0028756422"/>
    <path class="cls-3" d="m137.9002420754,130.8947156455c-.1096803755,2.7374339262-.0896146528,5.4811978536.0600876764,8.2163199935"/>
  </g>
  <g>
    <g>
      <path class="cls-3" d="m99.9797357387,79.0562761723c.3445853247-.8948721471,1.1076665148-1.5939869378,1.9902825512-1.8234441987.5514351002-.1433590714,1.2233742076-.0636323123,1.5489182913.4313608862.2745223079.4174143739.2127793227.98387612.0871031216,1.4755368242-.6046695999,2.3655408978-2.343676506,4.1795287249-4.0193710361,5.861318039"/>
      <path class="cls-3" d="m104.1030311638,84.7858369616c-1.5077064639-.1075567132-3.0273156996-.0248159961-4.5168431348.2459361467"/>
    </g>
    <line class="cls-2" x1="93.6531666909" y1="81.5326232768" x2="98.666782253" y2="81.5326232768"/>
  </g>
  <g>
    <g>
      <line class="cls-2" x1="75.9673349751" y1="81.97410411" x2="80.9809505372" y2="81.97410411"/>
      <line class="cls-2" x1="78.4741427562" y1="79.4672963289" x2="78.4741427562" y2="84.480911891"/>
    </g>
    <g>
      <path class="cls-3" d="m82.5481210567,79.488478755c.3445853247-.8948721471,1.1076665148-1.5939869378,1.9902825512-1.8234441987.5514351002-.1433590714,1.2233742076-.0636323123,1.5489182913.4313608862.2745223079.4174143739.2127793227.98387612.0871031216,1.4755368242-.6046695999,2.3655408978-2.343676506,4.1795287249-4.0193710361,5.861318039"/>
      <path class="cls-3" d="m86.6714164818,85.2180395443c-1.5077064639-.1075567132-3.0273156996-.0248159961-4.5168431348.2459361467"/>
    </g>
  </g>
  <g>
    <g>
      <path class="cls-3" d="m82.089347033,97.2666368161c.3445853247-.8948721471,1.1076665148-1.5939869378,1.9902825512-1.8234441987.5514351002-.1433590714,1.2233742076-.0636323123,1.5489182913.4313608862.2745223079.4174143739.2127793227.98387612.0871031216,1.4755368242-.6046695999,2.3655408978-2.343676506,4.1795287249-4.0193710361,5.861318039"/>
      <path class="cls-3" d="m86.2126424581,102.9961976054c-1.5077064639-.1075567132-3.0273156996-.0248159961-4.5168431348.2459361467"/>
    </g>
    <line class="cls-2" x1="75.7627779853" y1="99.7429839207" x2="80.7763935474" y2="99.7429839207"/>
  </g>
  <g>
    <g>
      <line class="cls-2" x1="93.3147414997" y1="99.7522621711" x2="98.3283570618" y2="99.7522621711"/>
      <line class="cls-2" x1="95.8215492808" y1="97.24545439" x2="95.8215492808" y2="102.2590699521"/>
    </g>
    <g>
      <path class="cls-3" d="m99.8955275813,97.2666368161c.3445853247-.8948721471,1.1076665148-1.5939869378,1.9902825512-1.8234441987.5514351002-.1433590714,1.2233742076-.0636323123,1.5489182913.4313608862.2745223079.4174143739.2127793227.98387612.0871031216,1.4755368242-.6046695999,2.3655408978-2.343676506,4.1795287249-4.0193710361,5.861318039"/>
      <path class="cls-3" d="m104.0188230064,102.9961976054c-1.5077064639-.1075567132-3.0273156996-.0248159961-4.5168431348.2459361467"/>
    </g>
  </g>
  <g>
    <line class="cls-1" x1="152.7062646061" y1="89.5493988252" x2="161.3188337737" y2="93.6582001038"/>
    <line class="cls-1" x1="152.7062646061" y1="89.3840921355" x2="161.3188337741" y2="85.2752908577"/>
    <line class="cls-1" x1="152.7062646059" y1="92.5681229818" x2="161.3188337736" y2="96.6769242604"/>
  </g>
  <path class="cls-1" d="m178.2573806186,85.32427735c-.565465717-1.0875004078-1.9396969398-1.5887146987-3.1477785261-1.3814769248-1.2080815863.207237774-2.2471086967,1.0017894883-3.0275721131,1.946927293-2.0387163875,2.4688779673-2.487582821,6.141760769-1.1034363358,9.0289497162.5783979577,1.2064792678,1.5732206081,2.346151638,2.8969707309,2.5406282047,1.4686065713.2157581076,2.90161959-.850602643,3.5190121609-2.2004853312.4669400442-1.0209295351.5384272523-2.2838516929-.069942405-3.2273643459-.8429848504-1.3073744311-2.8387296512-1.5643161611-4.1332351506-.701699871s-2.2983183544,2.4223775124-2.022785016,3.9533682803"/>
</svg>