<svg xmlns="http://www.w3.org/2000/svg" id="Layer_1" data-name="Layer 1" viewBox="0 0 459.36 80.72">
  <defs>
    <style>
      .cls-1, .cls-2, .cls-3 {
        fill: none;
      }

      .cls-1, .cls-2, .cls-3, .cls-4 {
        stroke-linecap: round;
      }

      .cls-1, .cls-2, .cls-4 {
        stroke-linejoin: round;
      }

      .cls-1, .cls-5, .cls-3, .cls-4, .cls-6 {
        stroke: #231f20;
      }

      .cls-2 {
        stroke: #010101;
      }

      .cls-5, .cls-3, .cls-6 {
        stroke-miterlimit: 10;
      }

      .cls-5, .cls-4 {
        opacity: .1;
      }

      .cls-5, .cls-4, .cls-7, .cls-6 {
        fill: #231f20;
      }

      .cls-7 {
        font-family: AnnaiMN-Regular, 'Annai MN';
        font-size: 12px;
      }

      .cls-6 {
        opacity: .15;
      }
    </style>
  </defs>
  <g>
    <path class="cls-1" d="m334.3587167962,9.0204079046c.0812651788-.6315256142.0161767709-1.3004867615-.30245647-1.8517593697s-.9211837956-.9606916867-1.5575033199-.9377549558c-.8978301702.0323628174-1.5610862392.8543394948-1.9329144851,1.6721966435-.8601751555,1.8920037003-.8188983413,4.1708901385.109228686,6.0305028232.3048742446.6108518567.7880438659,1.2322001687,1.4675796903,1.2979213472.4947033343.0478454749.9796616192-.2271021113,1.2940936917-.6120086781s.4832847238-.8671980047.6065985092-1.3500103679"/>
    <path class="cls-1" d="m336.9030144574,6.4105535498c.042779377,2.9419917383.085558754,5.8839834766.1309029682,8.8259379197v.0135161907"/>
    <path class="cls-1" d="m337.0248377286,11.194421507c1.2109386548-.2042440808,2.4218773095-.4084881616,3.6314188054-.62101583h-.0135161907"/>
    <path class="cls-1" d="m340.7887855788,6.3137223002c-.1304953966,2.3587371888-.0560450935,4.7234659551.0184400879,7.0846356084.0117611695.3728267595.023522342.7456535134.0333438594,1.1159148475"/>
    <path class="cls-1" d="m349.7386751622,6.4105535498c.042779377,2.9419917383.085558754,5.8839834766.1309029682,8.8259379197v.0135161907"/>
    <path class="cls-1" d="m349.8604984334,11.194421507c1.2109386548-.2042440808,2.4218773095-.4084881616,3.6314188054-.62101583h-.0135161907"/>
    <path class="cls-1" d="m353.6244462835,6.3137223002c-.1304953966,2.3587371888-.0560450935,4.7234659551.0184400879,7.0846356084.0117611695.3728267595.023522342.7456535134.0333438594,1.1159148475"/>
    <path class="cls-1" d="m347.1718741215,8.5472817557c.31972527-.687743136.0221694113-1.5793052325-.611298208-1.9963587599s-1.5189582447-.3638016049-2.1429479323.067303648-.9821065959,1.1935519129-.9944769466,1.9518802348c-.0086123844.5279564311.1423148732,1.0625735993.4538331565,1.48891679.4327757457.5922960126,1.1219266265.9280097343,1.7542463026,1.299871579s1.272269644.8554500161,1.4713426216,1.5614807193c.1966009335.6972636015-.1278130611,1.4968337345-.7335679895,1.894186652s-1.4412316217.3872552061-2.0599894316.0104699266-1.0067069118-1.0888430436-1.0312275456-1.8128783416"/>
    <text class="cls-7" transform="translate(354.0545247556 14.5145520871)"><tspan x="0" y="0">’</tspan></text>
  </g>
  <g>
    <path class="cls-1" d="m191.4888572838,12.8909459924c-.791273889-.8654214376-2.3812202426-1.1404146876-3.3567455529-.4897081478s-1.3671123787,2.0473910807-.8720603284,3.1104019459,1.8160915541,1.6621124992,2.9419412354,1.3341931078,1.9185752406-1.5426845235,1.7653915758-2.7052693148c-.1393489814-1.0575885646-.926654411-1.8984947334-1.3776888551-2.8651796084-.5080035764-1.0887832956-.5776029289-2.3747580531-.1900770257-3.5120091856s1.2278753901-2.1131547581,2.2950024621-2.6652021077"/>
    <text class="cls-7" transform="translate(192.6948140622 14.5145520871)"><tspan x="0" y="0">’</tspan></text>
  </g>
  <g>
    <path class="cls-1" d="m110.1889230479,5.6595849822c1.5096030154.971933244,2.9564058482,2.1371376434,3.8403652252,3.6998824449s1.1108924262,3.5924727809.1969792503,5.1378912361c-.4904827635.8294016997-1.3060751043,1.076888837-2.1759557071.662415388-.8380767227-.3993195679-1.2078651041-2.1691867966-1.1216919314-3.0935259435.3061935001-3.2843880154,2.217364391-4.4815385695,4.9697891191-6.6851085808"/>
    <text class="cls-7" transform="translate(116.102616644 14.5143079465)"><tspan x="0" y="0">’</tspan></text>
  </g>
  <g>
    <path class="cls-1" d="m412.4977312903,6.0109431221c-.1512867004,2.8594445236-.3025734007,5.7188890472-.4778105414,8.6517385186,1.3328758534-.0970341073,2.6657517068-.1940682147,3.9986275602-.2911023221"/>
    <g>
      <path class="cls-1" d="m417.7579825048,14.5144669223c.0670135551-2.7665793776.1340271101-5.5331587551.2900864548-8.3553090819h3.8157190951"/>
      <path class="cls-1" d="m417.9923115255,10.0942083001l3.7600317874.0253906591"/>
    </g>
    <text class="cls-7" transform="translate(422.1914266111 14.5144300168)"><tspan x="0" y="0">’</tspan></text>
  </g>
  <g>
    <path class="cls-1" d="m269.4376497113,5.6636811692c-.9413270687-.7826628431-2.4544559685-.873449943-3.4938283578-.2096282373s-1.5081863765,2.0204272179-1.0824957498,3.1324144359,1.6770129562,1.5923151487,2.956798259,1.7636304903c-1.2022176891-.2368939941-2.4862736282-.5793285922-3.4973707999.0808833127s-1.5070376767,1.98008531-1.0718824128,3.0632302726,1.8175765535,1.7695586206,2.9895070948,1.4158818734c.4281489074-.1292105876.8068938078-.3742949982,1.2285012976-.5213193713s.9373110587-.1780241438,1.2832701071.092188275.3254349777.9066823864-.1029679423,1.0351470109"/>
    <text class="cls-7" transform="translate(269.4377645017 14.5144300168)"><tspan x="0" y="0">’</tspan></text>
  </g>
  <g>
    <path class="cls-3" d="m117.8309226117,66.1599698378c-.1096803755,2.7374339262-.0896146528,5.4811978536.0600876764,8.2163199935"/>
    <line class="cls-2" x1="109.5260719738" y1="70.2681298346" x2="114.5396875358" y2="70.2681298346"/>
    <line class="cls-2" x1="112.0328797548" y1="67.7613220535" x2="112.0328797548" y2="72.7749376156"/>
  </g>
  <g>
    <path class="cls-3" d="m117.8309226117,46.5893388854c-.1096803755,2.7374339262-.0896146528,5.4811978536.0600876764,8.2163199935"/>
    <line class="cls-2" x1="109.5260719738" y1="50.6974988822" x2="114.5396875358" y2="50.6974988822"/>
    <line class="cls-2" x1="112.0328797548" y1="48.1906911011" x2="112.0328797548" y2="53.2043066632"/>
  </g>
  <path class="cls-2" d="m191.3748197131,46.4053316589c-.4444392604-.2599423005-1.0129162001-.2032020217-1.4649039636.0420288961s-.803067479.6553845342-1.096395286,1.0912895723c-.6454758382.9592209969-1.0592963038,2.0882293101-1.1925721561,3.253642583-.1256600774,1.0988178261.0151100585,2.2759919841.6287119794,3.1766739238s1.7719475373,1.4392891481,2.7696362207,1.0766298971c.7769373039-.2824162334,1.3186546754-1.0298038104,1.6672066572-1.8103760491.5924118367-1.3266895015.7538039174-2.8598822652.4515885207-4.2900015205-.1360834448-.6439641413-.3706052298-1.2792538017-.7808362817-1.7794513979s-1.0147839375-.8512169885-.9824356905-.7604359048Z"/>
  <path class="cls-2" d="m191.3748197131,65.9759626113c-.4444392604-.2599423005-1.0129162001-.2032020217-1.4649039636.0420288961s-.803067479.6553845342-1.096395286,1.0912895723c-.6454758382.9592209969-1.0592963038,2.0882293101-1.1925721561,3.253642583-.1256600774,1.0988178261.0151100585,2.2759919841.6287119794,3.1766739238s1.7719475373,1.4392891481,2.7696362207,1.0766298971c.7769373039-.2824162334,1.3186546754-1.0298038104,1.6672066572-1.8103760491.5924118367-1.3266895015.7538039174-2.8598822652.4515885207-4.2900015205-.1360834448-.6439641413-.3706052298-1.2792538017-.7808362817-1.7794513979s-1.0147839375-.8512169885-.9824356905-.7604359048Z"/>
  <g>
    <line class="cls-2" x1="338.3816483727" y1="70.2681298346" x2="343.3952639348" y2="70.2681298346"/>
    <path class="cls-3" d="m346.6864990106,66.1599698378c-.1096803755,2.7374339262-.0896146528,5.4811978536.0600876764,8.2163199935"/>
  </g>
  <g>
    <line class="cls-2" x1="338.3816483727" y1="50.6974988822" x2="343.3952639348" y2="50.6974988822"/>
    <path class="cls-3" d="m346.6864990106,46.5893388854c-.1096803755,2.7374339262-.0896146528,5.4811978536.0600876764,8.2163199935"/>
  </g>
  <g>
    <path class="cls-3" d="m270.9490870444,46.5893388854c-.1096803755,2.7374339262-.0896146528,5.4811978536.0600876764,8.2163199935"/>
    <line class="cls-2" x1="262.6442364065" y1="50.6974988822" x2="267.6578519686" y2="50.6974988822"/>
    <line class="cls-2" x1="265.1510441876" y1="48.1906911011" x2="265.1510441876" y2="53.2043066632"/>
  </g>
  <g>
    <path class="cls-3" d="m270.9490870444,66.1599698378c-.1096803755,2.7374339262-.0896146528,5.4811978536.0600876764,8.2163199935"/>
    <line class="cls-2" x1="262.6442364065" y1="70.2681298346" x2="267.6578519686" y2="70.2681298346"/>
    <line class="cls-2" x1="265.1510441876" y1="67.7613220535" x2="265.1510441876" y2="72.7749376156"/>
  </g>
  <g>
    <path class="cls-3" d="m117.8309226117,26.462117302c-.1096803755,2.7374339262-.0896146528,5.4811978536.0600876764,8.2163199935"/>
    <line class="cls-2" x1="109.5260719738" y1="30.5702772987" x2="114.5396875358" y2="30.5702772987"/>
    <line class="cls-2" x1="112.0328797548" y1="28.0634695177" x2="112.0328797548" y2="33.0770850798"/>
  </g>
  <g>
    <g>
      <line class="cls-2" x1="412.1976817523" y1="30.5702772987" x2="417.2112973144" y2="30.5702772987"/>
      <line class="cls-2" x1="414.7044895334" y1="28.0634695177" x2="414.7044895334" y2="33.0770850798"/>
    </g>
    <g>
      <path class="cls-3" d="m419.024494887,28.2863894742c.4244493626-.8386897197,1.3249201057-1.4459262636,2.303348125-1.5532732912.5003297929-.0548931505,1.0669201878.0418628396,1.3744813797.4182384321.2139450718.2618137224.2639444252.6198031306.1952523109.9439866569s-.244553483.6196034489-.4460731506.8900515574c-.6475305471.8690138079-1.5927901617,1.5371779216-2.6586680646,1.8793001942"/>
      <path class="cls-3" d="m418.7111972342,33.6345858323c.1526737102.3409818903.494066154.5860149096.8678233818.6985125505s.7775593228.1051216947,1.165196769.0481376848c.7783529894-.114420655,1.5518297404-.4498341006,2.0141993435-1.0515947662s.5352370278-1.4956568859.0400546496-2.0737088112c-.3380680883-.3946443447-.884254517-.5931948228-1.4211373021-.6228731686s-1.0701765035.0918044756-1.5838632611.2420561047"/>
    </g>
  </g>
  <g>
    <g>
      <line class="cls-2" x1="412.1976817523" y1="50.6974988822" x2="417.2112973144" y2="50.6974988822"/>
      <line class="cls-2" x1="414.7044895334" y1="48.1906911011" x2="414.7044895334" y2="53.2043066632"/>
    </g>
    <g>
      <path class="cls-3" d="m419.024494887,48.4136110576c.4244493626-.8386897197,1.3249201057-1.4459262636,2.303348125-1.5532732912.5003297929-.0548931505,1.0669201878.0418628396,1.3744813797.4182384321.2139450718.2618137224.2639444252.6198031306.1952523109.9439866569s-.244553483.6196034489-.4460731506.8900515574c-.6475305471.8690138079-1.5927901617,1.5371779216-2.6586680646,1.8793001942"/>
      <path class="cls-3" d="m418.7111972342,53.7618074157c.1526737102.3409818903.494066154.5860149096.8678233818.6985125505s.7775593228.1051216947,1.165196769.0481376848c.7783529894-.114420655,1.5518297404-.4498341006,2.0141993435-1.0515947662s.5352370278-1.4956568859.0400546496-2.0737088112c-.3380680883-.3946443447-.884254517-.5931948228-1.4211373021-.6228731686s-1.0701765035.0918044756-1.5838632611.2420561047"/>
    </g>
  </g>
  <g>
    <g>
      <line class="cls-2" x1="412.1976817523" y1="70.2681298346" x2="417.2112973144" y2="70.2681298346"/>
      <line class="cls-2" x1="414.7044895334" y1="67.7613220535" x2="414.7044895334" y2="72.7749376156"/>
    </g>
    <g>
      <path class="cls-3" d="m419.024494887,67.98424201c.4244493626-.8386897197,1.3249201057-1.4459262636,2.303348125-1.5532732912.5003297929-.0548931505,1.0669201878.0418628396,1.3744813797.4182384321.2139450718.2618137224.2639444252.6198031306.1952523109.9439866569s-.244553483.6196034489-.4460731506.8900515574c-.6475305471.8690138079-1.5927901617,1.5371779216-2.6586680646,1.8793001942"/>
      <path class="cls-3" d="m418.7111972342,73.3324383681c.1526737102.3409818903.494066154.5860149096.8678233818.6985125505s.7775593228.1051216947,1.165196769.0481376848c.7783529894-.114420655,1.5518297404-.4498341006,2.0141993435-1.0515947662s.5352370278-1.4956568859.0400546496-2.0737088112c-.3380680883-.3946443447-.884254517-.5931948228-1.4211373021-.6228731686s-1.0701765035.0918044756-1.5838632611.2420561047"/>
    </g>
  </g>
  <g>
    <rect class="cls-6" x="230.4799652334" y=".7353869034" width="75.5952380952" height="19.8289034733"/>
    <rect class="cls-6" x="382.5907941855" y=".6785371943" width="75.5952380952" height="19.8289034733" rx=".6169813844" ry=".6169813844"/>
    <rect class="cls-5" x=".5" y=".7353869034" width="458.362804993" height="19.5653440431" rx=".9149500313" ry=".9149500313"/>
  </g>
  <path class="cls-3" d="m36.5133344697,26.5754186105c-.0623206188,2.6619366607-.0509192331,5.3300287439.0341419434,7.9897173764"/>
  <g>
    <path class="cls-3" d="m34.7177002602,48.7857279147c.3312948943-.8369225229,1.0649445426-1.4907644336,1.9135186563-1.705362631.5301666095-.1340755058,1.1761894654-.059511647,1.4891775269.403427062.2639341622.39038369.2045725635.9201628269.0837436112,1.3799848454-.5813478893,2.2123545387-2.2532824376,3.9088731685-3.8643465269,5.4817541217"/>
    <path class="cls-3" d="m38.6819628804,54.1442570481c-1.4495552127-.1005916165-2.9105541152-.0232089759-4.3426314524.2300099529"/>
  </g>
  <g>
    <path class="cls-3" d="m34.7091295524,67.9736201574c.4023454581-.8425902784,1.255922694-1.452650944,2.1833974516-1.5604972186.4742742892-.0551484463,1.0113585497.0420575343,1.3029029825.4201835658.2028035274.2630313596.2501990816.6226856967.185084223.9483769282s-.2318179548.6224850863-.4228431515.8941909886c-.61380932.8730553972-1.5098429726,1.5443269931-2.520213516,1.8880404"/>
    <path class="cls-3" d="m34.4121473945,73.3466897833c.1447229736.342567721.4683368397.5887403342.82263004.7017611765s.7370666316.1056105923,1.1045172149.0483615625c.7378189667-.1149528,1.4710156331-.4519261786,1.9093065724-1.0564854989s.507363672-1.5026128523.0379687373-2.0833531681c-.320462632-.3964797475-.8382054966-.5959536395-1.3471292204-.6257700127s-1.0144452873.0922314377-1.5013809551.2431818536"/>
  </g>
  <rect class="cls-4" x="382.8163820688" y=".6785371943" width="76.0464229241" height="79.5370997796" rx=".5819272551" ry=".5819272551"/>
  <g>
    <rect class="cls-1" x=".5" y=".5" width="458.362804993" height="79.7156369739"/>
    <line class="cls-1" x1=".5" y1="60.2867277304" x2="458.862804993" y2="60.2867277304"/>
    <line class="cls-1" x1=".5" y1="40.357818487" x2="458.862804993" y2="40.357818487"/>
    <line class="cls-1" x1=".5" y1="20.4289092435" x2="458.862804993" y2="20.4289092435"/>
    <line class="cls-1" x1="382.4690041609" y1=".5" x2="382.4690041609" y2="80.2156369739"/>
    <line class="cls-1" x1="306.0752033286" y1=".5" x2="306.0752033286" y2="80.2156369739"/>
    <line class="cls-1" x1="229.6814024965" y1=".5" x2="229.6814024965" y2="80.2156369739"/>
    <line class="cls-1" x1="153.2876016644" y1=".5" x2="153.2876016644" y2="80.2156369739"/>
    <line class="cls-1" x1="76.8938008321" y1=".5" x2="76.8938008321" y2="80.2156369739"/>
  </g>
  <g>
    <path class="cls-3" d="m193.9925097808,26.462117302c-.1096803755,2.7374339262-.0896146528,5.4811978536.0600876764,8.2163199935"/>
    <line class="cls-2" x1="185.6876591429" y1="30.5702772987" x2="190.701274705" y2="30.5702772987"/>
    <line class="cls-2" x1="188.194466924" y1="28.0634695177" x2="188.194466924" y2="33.0770850798"/>
  </g>
  <g>
    <g>
      <line class="cls-2" x1="262.3058112153" y1="30.9520631803" x2="267.3194267774" y2="30.9520631803"/>
      <line class="cls-2" x1="264.8126189963" y1="28.4452553992" x2="264.8126189963" y2="33.4588709613"/>
    </g>
    <g>
      <path class="cls-3" d="m268.8865972969,28.4664378253c.3445853247-.8948721471,1.1076665148-1.5939869378,1.9902825512-1.8234441987.5514351002-.1433590714,1.2233742076-.0636323123,1.5489182913.4313608862.2745223079.4174143739.2127793227.98387612.0871031216,1.4755368242-.6046695999,2.3655408978-2.343676506,4.1795287249-4.0193710361,5.861318039"/>
      <path class="cls-3" d="m273.0098927219,34.1959986146c-1.5077064639-.1075567132-3.0273156996-.0248159961-4.5168431348.2459361467"/>
    </g>
  </g>
  <g>
    <g>
      <path class="cls-3" d="m347.6049470574,30.204693686c.3445853247-.8948721471,1.1076665148-1.5939869378,1.9902825512-1.8234441987.5514351002-.1433590714,1.2233742076-.0636323123,1.5489182913.4313608862.2745223079.4174143739.2127793227.98387612.0871031216,1.4755368242-.6046695999,2.3655408978-2.343676506,4.1795287249-4.0193710361,5.861318039"/>
      <path class="cls-3" d="m351.7282424825,35.9342544753c-1.5077064639-.1075567132-3.0273156996-.0248159961-4.5168431348.2459361467"/>
    </g>
    <path class="cls-3" d="m340.8989173286,24.0325182144c-.1096803755,2.7374339262-.0896146528,5.4811978536.0600876764,8.2163199935"/>
    <line class="cls-2" x1="332.5940666907" y1="28.1406782111" x2="337.6076822528" y2="28.1406782111"/>
    <line class="cls-1" x1="342.0741418677" y1="35.7299015732" x2="347.3271137128" y2="25.8715845489"/>
  </g>
  <g>
    <g>
      <path class="cls-1" d="m11.4467540593,13.5828598419c.0706064622-2.6668755598.1412129243-5.3337511197.3637522755-8.0534308843.6890419614-.3878115916,1.4282558031-.7390901697,2.2180769354-.7759579598s1.6429003512.3085471019,2.0019197011,1.0130197852c.4409326154.8652035122.0062778917,1.9408888519-.6498200638,2.6568038651-.9357285501,1.0210398509-2.3258080066,1.6093698991-3.7102151123,1.5702923496"/>
      <path class="cls-1" d="m17.8053920086,13.6531992776c.0377392347-2.8082841214.0754784693-5.6165682429.2725439055-8.3951581722.6961773006-.4463373392,1.4225030715-.9040042725,2.2427368508-1.0093437305s1.7624139236.2509028785,2.0625148325,1.0214995945c.2740439554.7036877206-.0562608113,1.4989541502-.4906222433,2.1166973223-.8792863281,1.2505095238-2.2190239368,2.1693735125-3.7023033156,2.5392388729.6821276799-.4359560024,1.6224703809-.1896392836,2.2460271457.3266293436s1.0198871687,1.2476791773,1.4689774727,1.9212326148,1.0095554633,1.3361675414,1.7817612347,1.5791790245"/>
    </g>
    <path class="cls-1" d="m33.1814662595,5.6866437132c-.2575334627-.572371425-.9657860567-.8437784495-1.5853136001-.7431894069s-1.1522754841.5007773483-1.5770739245.9628150281c-.5714550878.6215507311-1.0037266255,1.5450109316-.6129972955,2.2934872634.2838714623.5437811215.9091115938.8084058093,1.5012427019.9685985162s1.2252610945.2697913167,1.7053786427.6515871946c.6920069579.550292812.8798422326,1.6035931758.5125626911,2.4078328497s-1.2118002276,1.3376309626-2.090345018,1.4369021372c-.551587748.0623267738-1.1363662291-.0387319446-1.5865652545-.363469326s-.7395641425-.893296537-.6511866124-1.441313819"/>
    <path class="cls-1" d="m38.9498592616,8.5734061492c.2523353224,1.6737007353.3465690725,3.3712017841.2810383599,5.0625482868.0854473625-1.4730752579.1892171999-3.0091385606.9361257437-4.2816870251.183845942-.3132289555.4109207588-.6111896449.7167813492-.8070492843s.7016710456-.2766133512,1.0394522237-.1431383542"/>
    <path class="cls-1" d="m45.039404908,8.9253498796c-.2318368557-.2464864231-.6218385457-.2946195291-.9424432836-.1863768088s-.5808132878.347226612-.7962077034.6082038719c-.7912178496.9586596567-1.0779496382,2.3116500233-.7436096811,3.5088428816.1142726987.4091837006.3461878897.8435605924.7570371959.9516918659.4842877444.1274595779.9518816442-.2614016617,1.2349714819-.6744884598.7766677474-1.1333193133.8952291414-2.5773104694.9893358493-3.9479924903-.1358022753,1.0690348907-.1351169458,2.1553330609.002034096,3.22419575.0360376582.2808560007.0834388091.5666054739.2172517272.8161508553s.3697929131.4602887918.6509728306.4937050816.5913110815-.156962917.6288807324-.4376180715"/>
    <path class="cls-1" d="m52.92626478,12.2712809257c1.1119208122-.3909313436,2.0979184969-1.1318283867,2.7828109013-2.0910559939.2626411826-.367842526.4844811867-.8618156927.2603101055-1.2542896883-.1501807019-.2629329991-.4706292385-.394463184-.7733597199-.3879663566s-.5907838073.1299677778-.8559534678.2761628675c-.8132315786.4483566083-1.5133289301,1.1708401334-1.7517224204,2.0683575733s.0729473952,1.964022063.8621015598,2.4535164099c.8549373698.5302984139,1.993516266.2763092877,2.8585122129-.2374183274"/>
    <path class="cls-1" d="m60.4558590965,8.9690471301c-.221889544-.4049951418-.9757023322-.7384939252-1.4156252304-.5980521997s-.7719853208.519882613-.9587111463.9422444256-.2471894826.8882577068-.2950496345,1.3475674503c-.0587108773.563443961-.0979599421,1.1534739005.1181909172,1.6771100603s.7659324623.9531608614,1.3218005167.8439513019c.5622084463-.1104552444.8950088346-.6905733106,1.0769734715-1.2338665137.3055034133-.9121438454.397156856-1.8951599556.2655444267-2.8480591501.2002957057,1.8138381949.4007548839,3.6436772962.2194347414,5.4595105499-.0653726867.6546766915-.1954306243,1.3384621649-.6186025959,1.8422484585-.4759328261.5665980996-1.3046701166.8078469412-2.0103492671.5852209958-.5264588447-.1660862012-1.0063514874-.6914305558-.8628511551-1.224488723"/>
    <path class="cls-1" d="m62.571925179,8.800389716c.1771307327.6979094499-.0370025853,1.4266733291-.1081353506,2.1431878275s.0721199505,1.5600571023.6977165927,1.9165423586c.5558608149.3167476501,1.3032736948.094046518,1.7378213118-.3755051166s.6090675544-1.1246935742.6726811021-1.7612968146.0317765031-1.2815348814.1257536329-1.9143687206c.2010961224,2.0268661766.3996328328,4.0977806313-.0660510725,6.0806484468-.1185380612.5047321936-.2869661283,1.0133546255-.6200977897,1.4106317825s-.8617460918.6642655462-1.3706015242.5649076464-.9244656791-.6444994878-.7779197367-1.1418224513"/>
    <path class="cls-1" d="m35.803939564,5.7750920428c-.4001117335,1.7757513038-.6378940253,3.5937630848-.6088558281,5.413801237.0078918917.4946308941.037650571.9994567011.2208489984,1.4589784993s.5452627981.8726364668,1.0233059532.9999026789,1.0589442085-.1069593101,1.220134393-.5746554415"/>
    <path class="cls-1" d="m33.6753662785,8.6813798647l3.5636948507-.3430482809"/>
    <path class="cls-1" d="m49.3728620614,5.8941018941c-.4001117335,1.7757513038-.6378940253,3.5937630848-.6088558281,5.413801237.0078918917.4946308941.037650571.9994567011.2208489984,1.4589784993s.5452627981.8726364668,1.0233059532.9999026789,1.0589442085-.1069593101,1.220134393-.5746554415"/>
    <path class="cls-1" d="m47.2442887759,8.800389716l3.5636948507-.3430482809"/>
  </g>
</svg>