<svg xmlns="http://www.w3.org/2000/svg" id="Layer_1" data-name="Layer 1" viewBox="0 0 516.91 155.35">
  <defs>
    <style>
      .cls-1, .cls-2, .cls-3, .cls-4 {
        fill: none;
        stroke-linecap: round;
      }

      .cls-1, .cls-2, .cls-4 {
        stroke-linejoin: round;
      }

      .cls-1, .cls-3, .cls-4 {
        stroke: #231f20;
      }

      .cls-2 {
        stroke: #010101;
      }

      .cls-3 {
        stroke-miterlimit: 10;
      }

      .cls-4 {
        opacity: .15;
      }
    </style>
  </defs>
  <g>
    <path class="cls-3" d="m378.3465710566,14.9188586164c.4023454581-.8425902784,1.255922694-1.452650944,2.1833974516-1.5604972186.4742742892-.0551484463,1.0113585497.0420575343,1.3029029825.4201835658.2028035274.2630313596.2501990816.6226856967.185084223.9483769282s-.2318179548.6224850863-.4228431515.8941909886c-.61380932.8730553972-1.5098429726,1.5443269931-2.520213516,1.8880404"/>
    <path class="cls-3" d="m378.0495888986,20.2919282423c.1447229736.342567721.4683368397.5887403342.82263004.7017611765s.7370666316.1056105923,1.1045172149.0483615625c.7378189667-.1149528,1.4710156331-.4519261786,1.9093065724-1.0564854989s.507363672-1.5026128523.0379687373-2.0833531681c-.320462632-.3964797475-.8382054966-.5959536395-1.3471292204-.6257700127s-1.0144452873.0922314377-1.5013809551.2431818536"/>
  </g>
  <g>
    <path class="cls-3" d="m194.9898262228,15.3015973261c.3312948943-.8369225229,1.0649445426-1.4907644336,1.9135186563-1.705362631.5301666095-.1340755058,1.1761894654-.059511647,1.4891775269.403427062.2639341622.39038369.2045725635.9201628269.0837436112,1.3799848454-.5813478893,2.2123545387-2.2532824376,3.9088731685-3.8643465269,5.4817541217"/>
    <path class="cls-3" d="m198.954088843,20.6601264595c-1.4495552127-.1005916165-2.9105541152-.0232089759-4.3426314524.2300099529"/>
  </g>
  <polyline class="cls-1" points="217.5258896531 .5172260635 325.0215591662 .5172260635 325.0215591662 143.8447854144 181.6939998154 143.8447854144 181.6939998154 36.3491159012"/>
  <line class="cls-1" x1="181.6939998154" y1="108.0128955767" x2="325.0215591662" y2="108.0128955767"/>
  <line class="cls-1" x1="181.6939998154" y1="72.181005739" x2="325.0215591662" y2="72.181005739"/>
  <line class="cls-1" x1="181.6939998154" y1="36.3491159012" x2="325.0215591662" y2="36.3491159012"/>
  <line class="cls-1" x1="289.1896693285" y1="1.0825053168" x2="289.1896693285" y2="143.8447854144"/>
  <line class="cls-1" x1="253.3577794908" y1=".5172260635" x2="253.3577794908" y2="143.8447854144"/>
  <line class="cls-1" x1="217.5258896531" y1=".5172260635" x2="217.5258896531" y2="143.8447854144"/>
  <line class="cls-1" x1="198.954088843" y1="36.3491159012" x2="198.954088843" y2="143.8447854144"/>
  <line class="cls-1" x1="217.5258896531" y1="17.2133682936" x2="325.0215591662" y2="17.2133682936"/>
  <line class="cls-1" x1="235.3042502736" y1="17.2133682936" x2="235.3042502736" y2="36.3491159012"/>
  <line class="cls-1" x1="271.2737244097" y1="17.2133682936" x2="271.2737244097" y2="36.3491159012"/>
  <line class="cls-1" x1="307.3613643588" y1="17.2133682936" x2="307.3613643588" y2="36.3491159012"/>
  <line class="cls-1" x1="198.954088843" y1="54.0411462" x2="217.5258896531" y2="54.0411462"/>
  <line class="cls-1" x1="198.954088843" y1="90.0969506578" x2="217.5258896531" y2="90.0969506578"/>
  <line class="cls-1" x1="198.954088843" y1="126.0319206232" x2="217.5258896531" y2="126.0319206232"/>
  <line class="cls-4" x1="217.5258896531" y1="54.0411462" x2="325.0215591662" y2="54.0411462"/>
  <line class="cls-4" x1="235.3042502736" y1="36.3491159012" x2="235.3042502736" y2="143.8447854144"/>
  <line class="cls-4" x1="217.5258896531" y1="126.0319206232" x2="325.0215591662" y2="126.0319206232"/>
  <line class="cls-4" x1="217.5258896531" y1="90.0969506578" x2="325.0215591662" y2="90.0969506578"/>
  <line class="cls-4" x1="307.3613643588" y1="36.3491159012" x2="307.3613643588" y2="143.8447854144"/>
  <line class="cls-4" x1="271.2737244097" y1="36.3491159012" x2="271.2737244097" y2="143.8447854144"/>
  <path class="cls-3" d="m235.410909501,4.24427139c-.0884722894,2.5618769703-.0722865276,5.1296779865.0484689651,7.6893914298"/>
  <g>
    <path class="cls-3" d="m268.1419250236,6.044822583c.3445853247-.8948721471,1.1076665148-1.5939869378,1.9902825512-1.8234441987.5514351002-.1433590714,1.2233742076-.0636323123,1.5489182913.4313608862.2745223079.4174143739.2127793227.98387612.0871031216,1.4755368242-.6046695999,2.3655408978-2.343676506,4.1795287249-4.0193710361,5.861318039"/>
    <path class="cls-3" d="m272.2652204486,11.7743833723c-1.5077064639-.1075567132-3.0273156996-.0248159961-4.5168431348.2459361467"/>
  </g>
  <g>
    <path class="cls-3" d="m305.2484841348,5.8050792804c.4244493626-.8386897197,1.3249201057-1.4459262636,2.303348125-1.5532732912.5003297929-.0548931505,1.0669201878.0418628396,1.3744813797.4182384321.2139450718.2618137224.2639444252.6198031306.1952523109.9439866569s-.244553483.6196034489-.4460731506.8900515574c-.6475305471.8690138079-1.5927901617,1.5371779216-2.6586680646,1.8793001942"/>
    <path class="cls-3" d="m304.935186482,11.1532756384c.1526737102.3409818903.494066154.5860149096.8678233818.6985125505s.7775593228.1051216947,1.165196769.0481376848c.7783529894-.114420655,1.5518297404-.4498341006,2.0141993435-1.0515947662s.5352370278-1.4956568859.0400546496-2.0737088112c-.3380680883-.3946443447-.884254517-.5931948228-1.4211373022-.6228731686s-1.0701765035.0918044756-1.5838632611.2420561047"/>
  </g>
  <path class="cls-3" d="m189.6360144243,50.1964504851c-.0884722894,2.5618769703-.0722865276,5.1296779865.0484689651,7.6893914298"/>
  <g>
    <path class="cls-3" d="m188.5775393943,88.052806136c.3445853247-.8948721471,1.1076665148-1.5939869378,1.9902825512-1.8234441987.5514351002-.1433590714,1.2233742076-.0636323123,1.5489182913.4313608862.2745223079.4174143739.2127793227.98387612.0871031216,1.4755368242-.6046695999,2.3655408978-2.343676506,4.1795287249-4.0193710361,5.861318039"/>
    <path class="cls-3" d="m192.7008348194,93.7823669253c-1.5077064639-.1075567132-3.0273156996-.0248159961-4.5168431348.2459361467"/>
  </g>
  <g>
    <path class="cls-3" d="m187.7317107249,123.7480327987c.4244493626-.8386897197,1.3249201057-1.4459262636,2.303348125-1.5532732912.5003297929-.0548931505,1.0669201878.0418628396,1.3744813797.4182384321.2139450718.2618137224.2639444252.6198031306.1952523109.9439866569s-.244553483.6196034489-.4460731506.8900515574c-.6475305471.8690138079-1.5927901617,1.5371779216-2.6586680646,1.8793001942"/>
    <path class="cls-3" d="m187.4184130722,129.0962291568c.1526737102.3409818903.494066154.5860149096.8678233818.6985125505s.7775593228.1051216947,1.165196769.0481376848c.7783529894-.114420655,1.5518297404-.4498341006,2.0141993435-1.0515947662s.5352370278-1.4956568859.0400546496-2.0737088112c-.3380680883-.3946443447-.884254517-.5931948228-1.4211373022-.6228731686s-1.0701765035.0918044756-1.5838632611.2420561047"/>
  </g>
  <g>
    <path class="cls-3" d="m230.5374514441,22.6730821006c-.1096803755,2.7374339262-.0896146528,5.4811978536.0600876764,8.2163199935"/>
    <line class="cls-2" x1="222.2326008062" y1="26.7812420974" x2="227.2462163683" y2="26.7812420974"/>
    <line class="cls-2" x1="224.7394085872" y1="24.2744343164" x2="224.7394085872" y2="29.2880498784"/>
  </g>
  <g>
    <line class="cls-2" x1="240.148545725" y1="26.7812420974" x2="245.1621612871" y2="26.7812420974"/>
    <path class="cls-3" d="m248.453396363,22.6730821006c-.1096803755,2.7374339262-.0896146528,5.4811978536.0600876764,8.2163199935"/>
  </g>
  <g>
    <path class="cls-3" d="m266.0678619888,22.6730821006c-.1096803755,2.7374339262-.0896146528,5.4811978536.0600876764,8.2163199935"/>
    <line class="cls-2" x1="257.7630113509" y1="26.7812420974" x2="262.776626913" y2="26.7812420974"/>
    <line class="cls-2" x1="260.2698191319" y1="24.2744343164" x2="260.2698191319" y2="29.2880498784"/>
  </g>
  <g>
    <line class="cls-2" x1="275.4787562256" y1="26.7812420974" x2="280.4923717877" y2="26.7812420974"/>
    <path class="cls-3" d="m283.7836068635,22.6730821006c-.1096803755,2.7374339262-.0896146528,5.4811978536.0600876764,8.2163199935"/>
  </g>
  <g>
    <path class="cls-3" d="m301.9269236816,22.6730821006c-.1096803755,2.7374339262-.0896146528,5.4811978536.0600876764,8.2163199935"/>
    <line class="cls-2" x1="293.6220730437" y1="26.7812420974" x2="298.6356886058" y2="26.7812420974"/>
    <line class="cls-2" x1="296.1288808247" y1="24.2744343164" x2="296.1288808247" y2="29.2880498784"/>
  </g>
  <g>
    <line class="cls-2" x1="310.8542084357" y1="26.7812420974" x2="315.8678239977" y2="26.7812420974"/>
    <path class="cls-3" d="m319.1590590736,22.6730821006c-.1096803755,2.7374339262-.0896146528,5.4811978536.0600876764,8.2163199935"/>
  </g>
  <g>
    <path class="cls-3" d="m211.7092416557,41.0869710539c-.1096803755,2.7374339262-.0896146528,5.4811978536.0600876764,8.2163199935"/>
    <line class="cls-2" x1="203.4043910178" y1="45.1951310506" x2="208.4180065799" y2="45.1951310506"/>
    <line class="cls-2" x1="205.9111987988" y1="42.6883232696" x2="205.9111987988" y2="47.7019388317"/>
  </g>
  <g>
    <line class="cls-2" x1="203.5700617338" y1="63.1110759695" x2="208.5836772959" y2="63.1110759695"/>
    <path class="cls-3" d="m211.8749123717,59.0029159727c-.1096803755,2.7374339262-.0896146528,5.4811978536.0600876764,8.2163199935"/>
  </g>
  <g>
    <path class="cls-3" d="m211.7092416557,77.6993021284c-.1096803755,2.7374339262-.0896146528,5.4811978536.0600876764,8.2163199935"/>
    <line class="cls-2" x1="203.4043910178" y1="81.8074621252" x2="208.4180065799" y2="81.8074621252"/>
    <line class="cls-2" x1="205.9111987988" y1="79.3006543441" x2="205.9111987988" y2="84.3142699062"/>
  </g>
  <g>
    <line class="cls-2" x1="203.4043910178" y1="99.0549231172" x2="208.4180065799" y2="99.0549231172"/>
    <path class="cls-3" d="m211.7092416557,94.9467631205c-.1096803755,2.7374339262-.0896146528,5.4811978536.0600876764,8.2163199935"/>
  </g>
  <g>
    <path class="cls-3" d="m211.7092416557,112.8864485133c-.1096803755,2.7374339262-.0896146528,5.4811978536.0600876764,8.2163199935"/>
    <line class="cls-2" x1="203.4043910178" y1="116.99460851" x2="208.4180065799" y2="116.99460851"/>
    <line class="cls-2" x1="205.9111987988" y1="114.487800729" x2="205.9111987988" y2="119.5014162911"/>
  </g>
  <g>
    <line class="cls-2" x1="203.4043910178" y1="134.746343686" x2="208.4180065799" y2="134.746343686"/>
    <path class="cls-3" d="m211.7092416557,130.6381836893c-.1096803755,2.7374339262-.0896146528,5.4811978536.0600876764,8.2163199935"/>
  </g>
  <path class="cls-1" d="m192.3324047276,147.4809559859c-1.9387351678,2.6055633593-3.628857644,4.7604067211-5.5675928117,7.3659700804"/>
  <path class="cls-1" d="m186.5356999369,147.7208753007c1.9322349302,2.2953771503,3.8644698604,4.5907543005,5.7967047906,6.8861314508"/>
  <path class="cls-1" d="m211.282821384,147.8535390237c-.4576364028,1.1310705532-.8350100181,1.9468985478-1.2790416779,2.9091991511s-.997268974,1.9008100505-1.8064634442,2.5965159177-1.9104594801,1.1225673381-2.968929373.9372831058-2.0052243159-1.0812981246-2.0384243036-2.1374203242c-.0313147741-.9961437547.7503725517-1.9082850128,1.7111851625-2.2270165617s2.0415836961-.1184228755,2.937062023.3492637897,1.6320417326,1.180360608,2.3086567714,1.9226971268,1.3102424782,1.527464764,1.9949085894,2.2702817997"/>
  <g>
    <path class="cls-1" d="m330.0258306646,4.9520444539c-.1739913055.6823073593-.1734773565.7448232303-.1816279361,1.4429265134s.1622600544,1.415889551.6265013312,1.9919287392,1.2544068009.98742256,2.0752097973.9547554947c1.1142477184-.0443458456,2.0065296816-.8829960316,2.3160945067-1.7934975364s.164037974-1.8821731423.0160653502-2.8215257143c.3630742132,2.1812453972.5936616547,4.1562178735-.1341261728,6.1272107051-.205587361.5567711421-.4793392372,1.103931845-.9059265917,1.5612531335s-1.0199112371.8205125424-1.6947925864.9287852045c-.7374955268.1183181521-1.536951899-.0906916469-2.0685743221-.5408077388s-.7803942422-1.1286241182-.643691168-1.7556233886"/>
    <path class="cls-1" d="m329.7764131351,32.4428381271c-.0707114272-2.649762932-.1087925584-5.4269440034,1.3175660853-7.7841100529.3892147531-.6432074149.935641105-1.2773051141,1.7399035441-1.5142502119s1.8796682788.117160274,2.0163329175.8310135316c.0966350495.5047622878-.2797257164.9845130437-.6894633682,1.3591279715-.9742940523.8907775458-2.6050359878,1.5371596611-3.9916524919,1.8384673153.6474081481-.2051754402,1.6604052463-.4129124639,2.3511900861-.42690047s1.427509731.2014537722,1.8148313083.6876256839c.4366928884.5481435243.312096827,1.333138677-.1788877805,1.8470499065s-1.2790008661.7766946879-2.0564825898.8187970274-1.5513453115-.114325415-2.2932539693-.3162873629"/>
  </g>
  <g>
    <polyline class="cls-1" points="398.7198894684 .5 506.2155589816 .5 506.2155589816 143.8275593509 362.8879996307 143.8275593509 362.8879996307 36.3318898377"/>
    <line class="cls-1" x1="362.8879996307" y1="107.9956695132" x2="506.2155589816" y2="107.9956695132"/>
    <line class="cls-1" x1="362.8879996307" y1="72.1637796754" x2="506.2155589816" y2="72.1637796754"/>
    <line class="cls-1" x1="362.8879996307" y1="36.3318898377" x2="506.2155589816" y2="36.3318898377"/>
    <line class="cls-1" x1="470.3836691439" y1="1.0652792533" x2="470.3836691439" y2="143.8275593509"/>
    <line class="cls-1" x1="434.5517793061" y1=".5" x2="434.5517793061" y2="143.8275593509"/>
    <line class="cls-1" x1="398.7198894684" y1=".5" x2="398.7198894684" y2="143.8275593509"/>
    <line class="cls-1" x1="380.1480886584" y1="36.3318898377" x2="380.1480886584" y2="143.8275593509"/>
    <line class="cls-1" x1="398.7198894684" y1="17.19614223" x2="506.2155589816" y2="17.19614223"/>
    <line class="cls-1" x1="416.498250089" y1="17.19614223" x2="416.498250089" y2="36.3318898377"/>
    <line class="cls-1" x1="452.467724225" y1="17.19614223" x2="452.467724225" y2="36.3318898377"/>
    <line class="cls-1" x1="488.5553641741" y1="17.19614223" x2="488.5553641741" y2="36.3318898377"/>
    <line class="cls-1" x1="380.1480886584" y1="54.0239201365" x2="398.7198894684" y2="54.0239201365"/>
    <line class="cls-1" x1="380.1480886584" y1="90.0797245943" x2="398.7198894684" y2="90.0797245943"/>
    <line class="cls-1" x1="380.1480886584" y1="126.0146945597" x2="398.7198894684" y2="126.0146945597"/>
    <line class="cls-4" x1="398.7198894684" y1="54.0239201365" x2="506.2155589816" y2="54.0239201365"/>
    <line class="cls-4" x1="416.498250089" y1="36.3318898377" x2="416.498250089" y2="143.8275593509"/>
    <line class="cls-4" x1="398.7198894684" y1="126.0146945597" x2="506.2155589816" y2="126.0146945597"/>
    <line class="cls-4" x1="398.7198894684" y1="90.0797245943" x2="506.2155589816" y2="90.0797245943"/>
    <line class="cls-4" x1="488.5553641741" y1="36.3318898377" x2="488.5553641741" y2="143.8275593509"/>
    <line class="cls-4" x1="452.467724225" y1="36.3318898377" x2="452.467724225" y2="143.8275593509"/>
    <path class="cls-3" d="m416.6049093163,4.2270453264c-.0884722894,2.5618769703-.0722865276,5.1296779865.0484689651,7.6893914298"/>
    <g>
      <path class="cls-3" d="m449.3359248389,6.0275965195c.3445853247-.8948721471,1.1076665148-1.5939869378,1.9902825512-1.8234441987.5514351002-.1433590714,1.2233742076-.0636323123,1.5489182913.4313608862.2745223079.4174143739.2127793227.98387612.0871031216,1.4755368242-.6046695999,2.3655408978-2.343676506,4.1795287249-4.0193710361,5.861318039"/>
      <path class="cls-3" d="m453.459220264,11.7571573088c-1.5077064639-.1075567132-3.0273156996-.0248159961-4.5168431348.2459361467"/>
    </g>
    <g>
      <path class="cls-3" d="m486.4424839501,5.7878532168c.4244493626-.8386897197,1.3249201057-1.4459262636,2.303348125-1.5532732912.5003297929-.0548931505,1.0669201878.0418628396,1.3744813797.4182384321.2139450718.2618137224.2639444252.6198031306.1952523109.9439866569s-.244553483.6196034489-.4460731506.8900515574c-.6475305471.8690138079-1.5927901617,1.5371779216-2.6586680646,1.8793001942"/>
      <path class="cls-3" d="m486.1291862973,11.1360495749c.1526737102.3409818903.494066154.5860149096.8678233818.6985125505s.7775593228.1051216947,1.165196769.0481376848c.7783529894-.114420655,1.5518297404-.4498341006,2.0141993435-1.0515947662s.5352370278-1.4956568859.0400546496-2.0737088112c-.3380680883-.3946443447-.884254517-.5931948228-1.4211373022-.6228731686s-1.0701765035.0918044756-1.5838632611.2420561047"/>
    </g>
    <path class="cls-3" d="m370.8300142397,50.1792244215c-.0884722894,2.5618769703-.0722865276,5.1296779865.0484689651,7.6893914298"/>
    <g>
      <path class="cls-3" d="m369.7715392097,88.0355800724c.3445853247-.8948721471,1.1076665148-1.5939869378,1.9902825512-1.8234441987.5514351002-.1433590714,1.2233742076-.0636323123,1.5489182913.4313608862.2745223079.4174143739.2127793227.98387612.0871031216,1.4755368242-.6046695999,2.3655408978-2.343676506,4.1795287249-4.0193710361,5.861318039"/>
      <path class="cls-3" d="m373.8948346347,93.7651408617c-1.5077064639-.1075567132-3.0273156996-.0248159961-4.5168431348.2459361467"/>
    </g>
    <g>
      <path class="cls-3" d="m368.9257105403,123.7308067352c.4244493626-.8386897197,1.3249201057-1.4459262636,2.303348125-1.5532732912.5003297929-.0548931505,1.0669201878.0418628396,1.3744813797.4182384321.2139450718.2618137224.2639444252.6198031306.1952523109.9439866569s-.244553483.6196034489-.4460731506.8900515574c-.6475305471.8690138079-1.5927901617,1.5371779216-2.6586680646,1.8793001942"/>
      <path class="cls-3" d="m368.6124128875,129.0790030932c.1526737102.3409818903.494066154.5860149096.8678233818.6985125505s.7775593228.1051216947,1.165196769.0481376848c.7783529894-.114420655,1.5518297404-.4498341006,2.0141993435-1.0515947662s.5352370278-1.4956568859.0400546496-2.0737088112c-.3380680883-.3946443447-.884254517-.5931948228-1.4211373022-.6228731686s-1.0701765035.0918044756-1.5838632611.2420561047"/>
    </g>
    <g>
      <path class="cls-3" d="m411.7314512595,22.6558560371c-.1096803755,2.7374339262-.0896146528,5.4811978536.0600876764,8.2163199935"/>
      <line class="cls-2" x1="403.4266006215" y1="26.7640160339" x2="408.4402161836" y2="26.7640160339"/>
      <line class="cls-2" x1="405.9334084026" y1="24.2572082528" x2="405.9334084026" y2="29.2708238149"/>
    </g>
    <g>
      <line class="cls-2" x1="421.3425455404" y1="26.7640160339" x2="426.3561611025" y2="26.7640160339"/>
      <path class="cls-3" d="m429.6473961783,22.6558560371c-.1096803755,2.7374339262-.0896146528,5.4811978536.0600876764,8.2163199935"/>
    </g>
    <g>
      <path class="cls-3" d="m447.2618618042,22.6558560371c-.1096803755,2.7374339262-.0896146528,5.4811978536.0600876764,8.2163199935"/>
      <line class="cls-2" x1="438.9570111663" y1="26.7640160339" x2="443.9706267283" y2="26.7640160339"/>
      <line class="cls-2" x1="441.4638189473" y1="24.2572082528" x2="441.4638189473" y2="29.2708238149"/>
    </g>
    <g>
      <line class="cls-2" x1="456.6727560409" y1="26.7640160339" x2="461.686371603" y2="26.7640160339"/>
      <path class="cls-3" d="m464.9776066789,22.6558560371c-.1096803755,2.7374339262-.0896146528,5.4811978536.0600876764,8.2163199935"/>
    </g>
    <g>
      <path class="cls-3" d="m483.120923497,22.6558560371c-.1096803755,2.7374339262-.0896146528,5.4811978536.0600876764,8.2163199935"/>
      <line class="cls-2" x1="474.8160728591" y1="26.7640160339" x2="479.8296884211" y2="26.7640160339"/>
      <line class="cls-2" x1="477.3228806401" y1="24.2572082528" x2="477.3228806401" y2="29.2708238149"/>
    </g>
    <g>
      <line class="cls-2" x1="492.048208251" y1="26.7640160339" x2="497.0618238131" y2="26.7640160339"/>
      <path class="cls-3" d="m500.3530588889,22.6558560371c-.1096803755,2.7374339262-.0896146528,5.4811978536.0600876764,8.2163199935"/>
    </g>
    <g>
      <path class="cls-3" d="m392.9032414711,41.0697449903c-.1096803755,2.7374339262-.0896146528,5.4811978536.0600876764,8.2163199935"/>
      <line class="cls-2" x1="384.5983908331" y1="45.1779049871" x2="389.6120063952" y2="45.1779049871"/>
      <line class="cls-2" x1="387.1051986142" y1="42.671097206" x2="387.1051986142" y2="47.6847127681"/>
    </g>
    <g>
      <line class="cls-2" x1="384.7640615492" y1="63.0938499059" x2="389.7776771113" y2="63.0938499059"/>
      <path class="cls-3" d="m393.0689121871,58.9856899092c-.1096803755,2.7374339262-.0896146528,5.4811978536.0600876764,8.2163199935"/>
    </g>
    <g>
      <path class="cls-3" d="m392.9032414711,77.6820760649c-.1096803755,2.7374339262-.0896146528,5.4811978536.0600876764,8.2163199935"/>
      <line class="cls-2" x1="384.5983908331" y1="81.7902360617" x2="389.6120063952" y2="81.7902360617"/>
      <line class="cls-2" x1="387.1051986142" y1="79.2834282806" x2="387.1051986142" y2="84.2970438427"/>
    </g>
    <g>
      <line class="cls-2" x1="384.5983908331" y1="99.0376970537" x2="389.6120063952" y2="99.0376970537"/>
      <path class="cls-3" d="m392.9032414711,94.929537057c-.1096803755,2.7374339262-.0896146528,5.4811978536.0600876764,8.2163199935"/>
    </g>
    <g>
      <path class="cls-3" d="m392.9032414711,112.8692224497c-.1096803755,2.7374339262-.0896146528,5.4811978536.0600876764,8.2163199935"/>
      <line class="cls-2" x1="384.5983908331" y1="116.9773824465" x2="389.6120063952" y2="116.9773824465"/>
      <line class="cls-2" x1="387.1051986142" y1="114.4705746654" x2="387.1051986142" y2="119.4841902275"/>
    </g>
    <g>
      <line class="cls-2" x1="384.5983908331" y1="134.7291176225" x2="389.6120063952" y2="134.7291176225"/>
      <path class="cls-3" d="m392.9032414711,130.6209576257c-.1096803755,2.7374339262-.0896146528,5.4811978536.0600876764,8.2163199935"/>
    </g>
    <path class="cls-1" d="m373.5264045429,147.4637299223c-1.9387351678,2.6055633593-3.628857644,4.7604067211-5.5675928117,7.3659700804"/>
    <path class="cls-1" d="m367.7296997523,147.7036492372c1.9322349302,2.2953771503,3.8644698604,4.5907543005,5.7967047906,6.8861314508"/>
    <path class="cls-1" d="m392.4768211994,147.8363129601c-.4576364028,1.1310705532-.8350100181,1.9468985478-1.2790416779,2.9091991511s-.997268974,1.9008100505-1.8064634442,2.5965159177-1.9104594801,1.1225673381-2.968929373.9372831058-2.0052243159-1.0812981246-2.0384243036-2.1374203242c-.0313147741-.9961437547.7503725517-1.9082850128,1.7111851625-2.2270165617s2.0415836961-.1184228755,2.937062023.3492637897,1.6320417326,1.180360608,2.3086567714,1.9226971268,1.3102424782,1.527464764,1.9949085894,2.2702817997"/>
    <g>
      <path class="cls-1" d="m511.21983048,4.9348183904c-.1739913055.6823073593-.1734773565.7448232303-.1816279361,1.4429265134s.1622600544,1.415889551.6265013312,1.9919287392,1.2544068009.98742256,2.0752097973.9547554947c1.1142477184-.0443458456,2.0065296816-.8829960316,2.3160945067-1.7934975364s.164037974-1.8821731423.0160653502-2.8215257143c.3630742131,2.1812453972.5936616547,4.1562178735-.1341261728,6.1272107051-.205587361.5567711421-.4793392372,1.103931845-.9059265917,1.5612531335s-1.0199112371.8205125424-1.6947925864.9287852045c-.7374955268.1183181521-1.536951899-.0906916469-2.0685743221-.5408077388s-.7803942422-1.1286241182-.643691168-1.7556233886"/>
      <path class="cls-1" d="m510.9704129505,32.4256120635c-.0707114272-2.649762932-.1087925584-5.4269440034,1.3175660853-7.7841100529.3892147532-.6432074149.935641105-1.2773051141,1.7399035441-1.5142502119s1.8796682788.117160274,2.0163329175.8310135316c.0966350495.5047622878-.2797257164.9845130437-.6894633682,1.3591279715-.9742940523.8907775458-2.6050359878,1.5371596611-3.9916524919,1.8384673153.6474081481-.2051754402,1.6604052463-.4129124639,2.3511900861-.42690047s1.427509731.2014537722,1.8148313083.6876256839c.4366928884.5481435243.312096827,1.333138677-.1788877805,1.8470499065s-1.2790008661.7766946879-2.0564825897.8187970274-1.5513453115-.114325415-2.2932539693-.3162873629"/>
    </g>
  </g>
  <path class="cls-3" d="m17.7627763432,13.5142945922c-.0623206188,2.6619366607-.0509192331,5.3300287439.0341419434,7.9897173764"/>
  <g>
    <polyline class="cls-1" points="36.3318898377 .5172260635 143.8275593509 .5172260635 143.8275593509 143.8447854144 .5 143.8447854144 .5 36.3491159012"/>
    <line class="cls-1" x1=".5" y1="108.0128955767" x2="143.8275593509" y2="108.0128955767"/>
    <line class="cls-1" x1=".5" y1="72.181005739" x2="143.8275593509" y2="72.181005739"/>
    <line class="cls-1" x1=".5" y1="36.3491159012" x2="143.8275593509" y2="36.3491159012"/>
    <line class="cls-1" x1="107.9956695132" y1="1.0825053168" x2="107.9956695132" y2="143.8447854144"/>
    <line class="cls-1" x1="72.1637796754" y1=".5172260635" x2="72.1637796754" y2="143.8447854144"/>
    <line class="cls-1" x1="36.3318898377" y1=".5172260635" x2="36.3318898377" y2="143.8447854144"/>
    <line class="cls-1" x1="17.7600890277" y1="36.3491159012" x2="17.7600890277" y2="143.8447854144"/>
    <line class="cls-1" x1="36.3318898377" y1="17.2133682936" x2="143.8275593509" y2="17.2133682936"/>
    <line class="cls-1" x1="54.1102504582" y1="17.2133682936" x2="54.1102504582" y2="36.3491159012"/>
    <line class="cls-1" x1="90.0797245943" y1="17.2133682936" x2="90.0797245943" y2="36.3491159012"/>
    <line class="cls-1" x1="126.1673645434" y1="17.2133682936" x2="126.1673645434" y2="36.3491159012"/>
    <line class="cls-1" x1="17.7600890277" y1="54.0411462" x2="36.3318898377" y2="54.0411462"/>
    <line class="cls-1" x1="17.7600890277" y1="90.0969506578" x2="36.3318898377" y2="90.0969506578"/>
    <line class="cls-1" x1="17.7600890277" y1="126.0319206232" x2="36.3318898377" y2="126.0319206232"/>
    <line class="cls-4" x1="36.3318898377" y1="54.0411462" x2="143.8275593509" y2="54.0411462"/>
    <line class="cls-4" x1="54.1102504582" y1="36.3491159012" x2="54.1102504582" y2="143.8447854144"/>
    <line class="cls-4" x1="36.3318898377" y1="126.0319206232" x2="143.8275593509" y2="126.0319206232"/>
    <line class="cls-4" x1="36.3318898377" y1="90.0969506578" x2="143.8275593509" y2="90.0969506578"/>
    <line class="cls-4" x1="126.1673645434" y1="36.3491159012" x2="126.1673645434" y2="143.8447854144"/>
    <line class="cls-4" x1="90.0797245943" y1="36.3491159012" x2="90.0797245943" y2="143.8447854144"/>
    <path class="cls-3" d="m54.2169096856,4.24427139c-.0884722894,2.5618769703-.0722865276,5.1296779865.0484689651,7.6893914298"/>
    <g>
      <path class="cls-3" d="m86.9479252082,6.044822583c.3445853247-.8948721471,1.1076665148-1.5939869378,1.9902825512-1.8234441987.5514351002-.1433590714,1.2233742076-.0636323123,1.5489182913.4313608862.2745223079.4174143739.2127793227.98387612.0871031216,1.4755368242-.6046695999,2.3655408978-2.343676506,4.1795287249-4.0193710361,5.861318039"/>
      <path class="cls-3" d="m91.0712206333,11.7743833723c-1.5077064639-.1075567132-3.0273156996-.0248159961-4.5168431348.2459361467"/>
    </g>
    <g>
      <path class="cls-3" d="m124.0544843194,5.8050792804c.4244493626-.8386897197,1.3249201057-1.4459262636,2.303348125-1.5532732912.5003297929-.0548931505,1.0669201878.0418628396,1.3744813797.4182384321.2139450718.2618137224.2639444252.6198031306.1952523109.9439866569s-.244553483.6196034489-.4460731506.8900515574c-.6475305471.8690138079-1.5927901617,1.5371779216-2.6586680646,1.8793001942"/>
      <path class="cls-3" d="m123.7411866666,11.1532756384c.1526737102.3409818903.494066154.5860149096.8678233818.6985125505s.7775593228.1051216947,1.165196769.0481376848c.7783529894-.114420655,1.5518297404-.4498341006,2.0141993435-1.0515947662s.5352370278-1.4956568859.0400546496-2.0737088112c-.3380680883-.3946443447-.884254517-.5931948228-1.4211373022-.6228731686s-1.0701765035.0918044756-1.5838632611.2420561047"/>
    </g>
    <path class="cls-3" d="m8.442014609,50.1964504851c-.0884722894,2.5618769703-.0722865276,5.1296779865.0484689651,7.6893914298"/>
    <g>
      <path class="cls-3" d="m7.3835395789,88.052806136c.3445853247-.8948721471,1.1076665148-1.5939869378,1.9902825512-1.8234441987.5514351002-.1433590714,1.2233742076-.0636323123,1.5489182913.4313608862.2745223079.4174143739.2127793227.98387612.0871031216,1.4755368242-.6046695999,2.3655408978-2.343676506,4.1795287249-4.0193710361,5.861318039"/>
      <path class="cls-3" d="m11.506835004,93.7823669253c-1.5077064639-.1075567132-3.0273156996-.0248159961-4.5168431348.2459361467"/>
    </g>
    <g>
      <path class="cls-3" d="m6.5377109096,123.7480327987c.4244493626-.8386897197,1.3249201057-1.4459262636,2.303348125-1.5532732912.5003297929-.0548931505,1.0669201878.0418628396,1.3744813797.4182384321.2139450718.2618137224.2639444252.6198031306.1952523109.9439866569s-.244553483.6196034489-.4460731506.8900515574c-.6475305471.8690138079-1.5927901617,1.5371779216-2.6586680646,1.8793001942"/>
      <path class="cls-3" d="m6.2244132568,129.0962291568c.1526737102.3409818903.494066154.5860149096.8678233818.6985125505s.7775593228.1051216947,1.165196769.0481376848c.7783529894-.114420655,1.5518297404-.4498341006,2.0141993435-1.0515947662s.5352370278-1.4956568859.0400546496-2.0737088112c-.3380680883-.3946443447-.884254517-.5931948228-1.4211373022-.6228731686s-1.0701765035.0918044756-1.5838632611.2420561047"/>
    </g>
    <g>
      <path class="cls-3" d="m49.3434516288,22.6730821006c-.1096803755,2.7374339262-.0896146528,5.4811978536.0600876764,8.2163199935"/>
      <line class="cls-2" x1="41.0386009908" y1="26.7812420974" x2="46.0522165529" y2="26.7812420974"/>
      <line class="cls-2" x1="43.5454087719" y1="24.2744343164" x2="43.5454087719" y2="29.2880498784"/>
    </g>
    <g>
      <line class="cls-2" x1="58.9545459097" y1="26.7812420974" x2="63.9681614718" y2="26.7812420974"/>
      <path class="cls-3" d="m67.2593965476,22.6730821006c-.1096803755,2.7374339262-.0896146528,5.4811978536.0600876764,8.2163199935"/>
    </g>
    <g>
      <path class="cls-3" d="m84.8738621735,22.6730821006c-.1096803755,2.7374339262-.0896146528,5.4811978536.0600876764,8.2163199935"/>
      <line class="cls-2" x1="76.5690115355" y1="26.7812420974" x2="81.5826270976" y2="26.7812420974"/>
      <line class="cls-2" x1="79.0758193166" y1="24.2744343164" x2="79.0758193166" y2="29.2880498784"/>
    </g>
    <g>
      <line class="cls-2" x1="94.2847564102" y1="26.7812420974" x2="99.2983719723" y2="26.7812420974"/>
      <path class="cls-3" d="m102.5896070482,22.6730821006c-.1096803755,2.7374339262-.0896146528,5.4811978536.0600876764,8.2163199935"/>
    </g>
    <g>
      <path class="cls-3" d="m120.7329238663,22.6730821006c-.1096803755,2.7374339262-.0896146528,5.4811978536.0600876764,8.2163199935"/>
      <line class="cls-2" x1="112.4280732283" y1="26.7812420974" x2="117.4416887904" y2="26.7812420974"/>
      <line class="cls-2" x1="114.9348810094" y1="24.2744343164" x2="114.9348810094" y2="29.2880498784"/>
    </g>
    <g>
      <line class="cls-2" x1="129.6602086203" y1="26.7812420974" x2="134.6738241824" y2="26.7812420974"/>
      <path class="cls-3" d="m137.9650592582,22.6730821006c-.1096803755,2.7374339262-.0896146528,5.4811978536.0600876764,8.2163199935"/>
    </g>
    <g>
      <path class="cls-3" d="m30.5152418404,41.0869710539c-.1096803755,2.7374339262-.0896146528,5.4811978536.0600876764,8.2163199935"/>
      <line class="cls-2" x1="22.2103912024" y1="45.1951310506" x2="27.2240067645" y2="45.1951310506"/>
      <line class="cls-2" x1="24.7171989835" y1="42.6883232696" x2="24.7171989835" y2="47.7019388317"/>
    </g>
    <g>
      <line class="cls-2" x1="22.3760619185" y1="63.1110759695" x2="27.3896774805" y2="63.1110759695"/>
      <path class="cls-3" d="m30.6809125564,59.0029159727c-.1096803755,2.7374339262-.0896146528,5.4811978536.0600876764,8.2163199935"/>
    </g>
    <g>
      <path class="cls-3" d="m30.5152418404,77.6993021284c-.1096803755,2.7374339262-.0896146528,5.4811978536.0600876764,8.2163199935"/>
      <line class="cls-2" x1="22.2103912024" y1="81.8074621252" x2="27.2240067645" y2="81.8074621252"/>
      <line class="cls-2" x1="24.7171989835" y1="79.3006543441" x2="24.7171989835" y2="84.3142699062"/>
    </g>
    <g>
      <line class="cls-2" x1="22.2103912024" y1="99.0549231172" x2="27.2240067645" y2="99.0549231172"/>
      <path class="cls-3" d="m30.5152418404,94.9467631205c-.1096803755,2.7374339262-.0896146528,5.4811978536.0600876764,8.2163199935"/>
    </g>
    <g>
      <path class="cls-3" d="m30.5152418404,112.8864485133c-.1096803755,2.7374339262-.0896146528,5.4811978536.0600876764,8.2163199935"/>
      <line class="cls-2" x1="22.2103912024" y1="116.99460851" x2="27.2240067645" y2="116.99460851"/>
      <line class="cls-2" x1="24.7171989835" y1="114.487800729" x2="24.7171989835" y2="119.5014162911"/>
    </g>
    <g>
      <line class="cls-2" x1="22.2103912024" y1="134.746343686" x2="27.2240067645" y2="134.746343686"/>
      <path class="cls-3" d="m30.5152418404,130.6381836893c-.1096803755,2.7374339262-.0896146528,5.4811978536.0600876764,8.2163199935"/>
    </g>
    <path class="cls-1" d="m11.1384049122,147.4809559859c-1.9387351678,2.6055633593-3.628857644,4.7604067211-5.5675928117,7.3659700804"/>
    <path class="cls-1" d="m5.3417001216,147.7208753007c1.9322349302,2.2953771503,3.8644698604,4.5907543005,5.7967047906,6.8861314508"/>
    <path class="cls-1" d="m30.0888215687,147.8535390237c-.4576364028,1.1310705532-.8350100181,1.9468985478-1.2790416779,2.9091991511s-.997268974,1.9008100505-1.8064634442,2.5965159177-1.9104594801,1.1225673381-2.968929373.9372831058-2.0052243159-1.0812981246-2.0384243036-2.1374203242c-.0313147741-.9961437547.7503725517-1.9082850128,1.7111851625-2.2270165617s2.0415836961-.1184228755,2.937062023.3492637897,1.6320417326,1.180360608,2.3086567714,1.9226971268,1.3102424782,1.527464764,1.9949085894,2.2702817997"/>
    <g>
      <path class="cls-1" d="m148.8318308492,4.9520444539c-.1739913055.6823073593-.1734773565.7448232303-.1816279361,1.4429265134s.1622600544,1.415889551.6265013312,1.9919287392,1.2544068009.98742256,2.0752097973.9547554947c1.1142477184-.0443458456,2.0065296816-.8829960316,2.3160945067-1.7934975364s.164037974-1.8821731423.0160653502-2.8215257143c.3630742131,2.1812453972.5936616547,4.1562178735-.1341261728,6.1272107051-.205587361.5567711421-.4793392372,1.103931845-.9059265917,1.5612531335s-1.0199112371.8205125424-1.6947925864.9287852045c-.7374955268.1183181521-1.536951899-.0906916469-2.0685743221-.5408077388s-.7803942422-1.1286241182-.643691168-1.7556233886"/>
      <path class="cls-1" d="m148.5824133197,32.4428381271c-.0707114272-2.649762932-.1087925584-5.4269440034,1.3175660853-7.7841100529.3892147532-.6432074149.935641105-1.2773051141,1.7399035441-1.5142502119s1.8796682788.117160274,2.0163329175.8310135316c.0966350495.5047622878-.2797257164.9845130437-.6894633682,1.3591279715-.9742940523.8907775458-2.6050359878,1.5371596611-3.9916524919,1.8384673153.6474081481-.2051754402,1.6604052463-.4129124639,2.3511900861-.42690047s1.427509731.2014537722,1.8148313083.6876256839c.4366928884.5481435243.312096827,1.333138677-.1788877805,1.8470499065s-1.2790008661.7766946879-2.0564825897.8187970274-1.5513453115-.114325415-2.2932539693-.3162873629"/>
    </g>
  </g>
  <g>
    <g>
      <line class="cls-2" x1="74.7619561472" y1="61.6143593011" x2="77.9489724565" y2="61.6143593011"/>
      <line class="cls-2" x1="76.3554643018" y1="60.0208511465" x2="76.3554643018" y2="63.2078674557"/>
    </g>
    <g>
      <path class="cls-3" d="m84.5321688751,62.926396672c.2190433303-.5688453955.7041128711-1.013253271,1.2651673971-1.1591128854.3505319936-.0911293842.7776650411-.0404492954.9846043828.2742041472.1745062144.2653387363.1352579118.6254227517.0553690377.9379578201-.384371688,1.5037087164-1.4898101292,2.6568104487-2.5550026496,3.7258772542"/>
      <path class="cls-3" d="m87.1532333753,66.5685194982c-.9584071675-.0683708184-1.9243805969-.0157748402-2.8712318602.1563347849"/>
    </g>
    <path class="cls-3" d="m80.2693318364,59.0029159727c-.0697207716,1.7401107963-.0569655484,3.4842453988.0381960687,5.2228866567"/>
    <line class="cls-1" x1="81.0163894691" y1="66.4386180281" x2="84.3555579264" y2="60.1719594164"/>
  </g>
  <g>
    <g>
      <line class="cls-2" x1="92.4377556256" y1="61.6143593011" x2="95.6247719348" y2="61.6143593011"/>
      <line class="cls-2" x1="94.0312637802" y1="60.0208511465" x2="94.0312637802" y2="63.2078674557"/>
    </g>
    <g>
      <path class="cls-3" d="m102.2079683534,62.926396672c.2190433303-.5688453955.7041128711-1.013253271,1.2651673971-1.1591128854.3505319936-.0911293842.7776650411-.0404492954.9846043828.2742041472.1745062144.2653387363.1352579118.6254227517.0553690377.9379578201-.384371688,1.5037087164-1.4898101292,2.6568104487-2.5550026496,3.7258772542"/>
      <path class="cls-3" d="m104.8290328536,66.5685194982c-.9584071675-.0683708184-1.9243805969-.0157748402-2.8712318602.1563347849"/>
    </g>
    <path class="cls-3" d="m97.9451313148,59.0029159727c-.0697207716,1.7401107963-.0569655484,3.4842453988.0381960687,5.2228866567"/>
    <line class="cls-1" x1="98.6921889474" y1="66.4386180281" x2="102.0313574048" y2="60.1719594164"/>
  </g>
  <g>
    <g>
      <line class="cls-2" x1="110.6337942868" y1="61.7111507873" x2="113.8208105961" y2="61.7111507873"/>
      <line class="cls-2" x1="112.2273024415" y1="60.1176426327" x2="112.2273024415" y2="63.3046589419"/>
    </g>
    <g>
      <path class="cls-3" d="m120.4040070147,63.0231881583c.2190433303-.5688453955.7041128711-1.013253271,1.2651673971-1.1591128854.3505319936-.0911293842.7776650411-.0404492954.9846043828.2742041472.1745062144.2653387363.1352579118.6254227517.0553690377.9379578201-.384371688,1.5037087164-1.4898101292,2.6568104487-2.5550026496,3.7258772542"/>
      <path class="cls-3" d="m123.0250715149,66.6653109844c-.9584071675-.0683708184-1.9243805969-.0157748402-2.8712318602.1563347849"/>
    </g>
    <path class="cls-3" d="m116.141169976,59.099707459c-.0697207716,1.7401107963-.0569655484,3.4842453988.0381960687,5.2228866567"/>
    <line class="cls-1" x1="116.8882276087" y1="66.5354095144" x2="120.2273960661" y2="60.2687509026"/>
  </g>
  <g>
    <g>
      <line class="cls-2" x1="128.4617104" y1="61.7111507873" x2="131.6487267092" y2="61.7111507873"/>
      <line class="cls-2" x1="130.0552185546" y1="60.1176426327" x2="130.0552185546" y2="63.3046589419"/>
    </g>
    <g>
      <path class="cls-3" d="m138.2319231279,63.0231881583c.2190433303-.5688453955.7041128711-1.013253271,1.2651673971-1.1591128854.3505319936-.0911293842.7776650411-.0404492954.9846043828.2742041472.1745062144.2653387363.1352579118.6254227517.0553690377.9379578201-.384371688,1.5037087164-1.4898101292,2.6568104487-2.5550026496,3.7258772542"/>
      <path class="cls-3" d="m140.8529876281,66.6653109844c-.9584071675-.0683708184-1.9243805969-.0157748402-2.8712318602.1563347849"/>
    </g>
    <path class="cls-3" d="m133.9690860892,59.099707459c-.0697207716,1.7401107963-.0569655484,3.4842453988.0381960687,5.2228866567"/>
    <line class="cls-1" x1="134.7161437219" y1="66.5354095144" x2="138.0553121792" y2="60.2687509026"/>
  </g>
  <g>
    <g>
      <line class="cls-2" x1="56.6294225324" y1="80.3107454568" x2="59.8164388416" y2="80.3107454568"/>
      <line class="cls-2" x1="58.222930687" y1="78.7172373022" x2="58.222930687" y2="81.9042536114"/>
    </g>
    <g>
      <path class="cls-3" d="m66.3996352602,81.6227828278c.2190433303-.5688453955.7041128711-1.013253271,1.2651673971-1.1591128854.3505319936-.0911293842.7776650411-.0404492954.9846043828.2742041472.1745062144.2653387363.1352579118.6254227517.0553690377.9379578201-.384371688,1.5037087164-1.4898101292,2.6568104487-2.5550026496,3.7258772542"/>
      <path class="cls-3" d="m69.0206997604,85.2649056539c-.9584071675-.0683708184-1.9243805969-.0157748402-2.8712318602.1563347849"/>
    </g>
    <path class="cls-3" d="m62.1367982215,77.6993021284c-.0697207716,1.7401107963-.0569655484,3.4842453988.0381960687,5.2228866567"/>
    <line class="cls-1" x1="62.8838558542" y1="85.1350041838" x2="66.2230243116" y2="78.8683455721"/>
  </g>
  <g>
    <g>
      <line class="cls-2" x1="56.6294225324" y1="97.5582064489" x2="59.8164388416" y2="97.5582064489"/>
      <line class="cls-2" x1="58.222930687" y1="95.9646982942" x2="58.222930687" y2="99.1517146035"/>
    </g>
    <g>
      <path class="cls-3" d="m66.3996352602,98.8702438198c.2190433303-.5688453955.7041128711-1.013253271,1.2651673971-1.1591128854.3505319936-.0911293842.7776650411-.0404492954.9846043828.2742041472.1745062144.2653387363.1352579118.6254227517.0553690377.9379578201-.384371688,1.5037087164-1.4898101292,2.6568104487-2.5550026496,3.7258772542"/>
      <path class="cls-3" d="m69.0206997604,102.512366646c-.9584071675-.0683708184-1.9243805969-.0157748402-2.8712318602.1563347849"/>
    </g>
    <path class="cls-3" d="m62.1367982215,94.9467631205c-.0697207716,1.7401107963-.0569655484,3.4842453988.0381960687,5.2228866567"/>
    <line class="cls-1" x1="62.8838558542" y1="102.3824651759" x2="66.2230243116" y2="96.1158065641"/>
  </g>
  <g>
    <g>
      <line class="cls-2" x1="56.6294225324" y1="115.4978918416" x2="59.8164388416" y2="115.4978918416"/>
      <line class="cls-2" x1="58.222930687" y1="113.904383687" x2="58.222930687" y2="117.0913999962"/>
    </g>
    <g>
      <path class="cls-3" d="m66.3996352602,116.8099292126c.2190433303-.5688453955.7041128711-1.013253271,1.2651673971-1.1591128854.3505319936-.0911293842.7776650411-.0404492954.9846043828.2742041472.1745062144.2653387363.1352579118.6254227517.0553690377.9379578201-.384371688,1.5037087164-1.4898101292,2.6568104487-2.5550026496,3.7258772542"/>
      <path class="cls-3" d="m69.0206997604,120.4520520387c-.9584071675-.0683708184-1.9243805969-.0157748402-2.8712318602.1563347849"/>
    </g>
    <path class="cls-3" d="m62.1367982215,112.8864485133c-.0697207716,1.7401107963-.0569655484,3.4842453988.0381960687,5.2228866567"/>
    <line class="cls-1" x1="62.8838558542" y1="120.3221505687" x2="66.2230243116" y2="114.0554919569"/>
  </g>
  <g>
    <g>
      <line class="cls-2" x1="56.6294225324" y1="133.4438397704" x2="59.8164388416" y2="133.4438397704"/>
      <line class="cls-2" x1="58.222930687" y1="131.8503316158" x2="58.222930687" y2="135.037347925"/>
    </g>
    <g>
      <path class="cls-3" d="m66.3996352602,134.7558771413c.2190433303-.5688453955.7041128711-1.013253271,1.2651673971-1.1591128854.3505319936-.0911293842.7776650411-.0404492954.9846043828.2742041472.1745062144.2653387363.1352579118.6254227517.0553690377.9379578201-.384371688,1.5037087164-1.4898101292,2.6568104487-2.5550026496,3.7258772542"/>
      <path class="cls-3" d="m69.0206997604,138.3979999675c-.9584071675-.0683708184-1.9243805969-.0157748402-2.8712318602.1563347849"/>
    </g>
    <path class="cls-3" d="m62.1367982215,130.832396442c-.0697207716,1.7401107963-.0569655484,3.4842453988.0381960687,5.2228866567"/>
    <line class="cls-1" x1="62.8838558542" y1="138.2680984974" x2="66.2230243116" y2="132.0014398857"/>
  </g>
  <g>
    <g>
      <line class="cls-2" x1="75.1696322549" y1="80.5049582096" x2="78.3566485641" y2="80.5049582096"/>
      <line class="cls-2" x1="76.7631404095" y1="78.9114500549" x2="76.7631404095" y2="82.0984663642"/>
    </g>
    <g>
      <path class="cls-3" d="m84.9398449828,81.8169955805c.2190433303-.5688453955.7041128711-1.013253271,1.2651673971-1.1591128854.3505319936-.0911293842.7776650411-.0404492954.9846043828.2742041472.1745062144.2653387363.1352579118.6254227517.0553690377.9379578201-.384371688,1.5037087164-1.4898101292,2.6568104487-2.5550026496,3.7258772542"/>
      <path class="cls-3" d="m87.560909483,85.4591184067c-.9584071675-.0683708184-1.9243805969-.0157748402-2.8712318602.1563347849"/>
    </g>
    <path class="cls-3" d="m80.6770079441,77.8935148812c-.0697207716,1.7401107963-.0569655484,3.4842453988.0381960687,5.2228866567"/>
    <line class="cls-1" x1="81.4240655768" y1="85.3292169366" x2="84.7632340341" y2="79.0625583248"/>
  </g>
  <g>
    <g>
      <line class="cls-2" x1="92.5455664662" y1="97.7524192016" x2="95.7325827754" y2="97.7524192016"/>
      <line class="cls-2" x1="94.1390746208" y1="96.158911047" x2="94.1390746208" y2="99.3459273562"/>
    </g>
    <g>
      <path class="cls-3" d="m102.3157791941,99.0644565726c.2190433303-.5688453955.7041128711-1.013253271,1.2651673971-1.1591128854.3505319936-.0911293842.7776650411-.0404492954.9846043828.2742041472.1745062144.2653387363.1352579118.6254227517.0553690377.9379578201-.384371688,1.5037087164-1.4898101292,2.6568104487-2.5550026496,3.7258772542"/>
      <path class="cls-3" d="m104.9368436943,102.7065793987c-.9584071675-.0683708184-1.9243805969-.0157748402-2.8712318602.1563347849"/>
    </g>
    <path class="cls-3" d="m98.0529421554,95.1409758733c-.0697207716,1.7401107963-.0569655484,3.4842453988.0381960687,5.2228866567"/>
    <line class="cls-1" x1="98.799999788" y1="102.5766779287" x2="102.1391682454" y2="96.3100193169"/>
  </g>
  <g>
    <g>
      <line class="cls-2" x1="110.6337942868" y1="97.9466319544" x2="113.8208105961" y2="97.9466319544"/>
      <line class="cls-2" x1="112.2273024415" y1="96.3531237998" x2="112.2273024415" y2="99.540140109"/>
    </g>
    <g>
      <path class="cls-3" d="m120.4040070147,99.2586693253c.2190433303-.5688453955.7041128711-1.013253271,1.2651673971-1.1591128854.3505319936-.0911293842.7776650411-.0404492954.9846043828.2742041472.1745062144.2653387363.1352579118.6254227517.0553690377.9379578201-.384371688,1.5037087164-1.4898101292,2.6568104487-2.5550026496,3.7258772542"/>
      <path class="cls-3" d="m123.0250715149,102.9007921515c-.9584071675-.0683708184-1.9243805969-.0157748402-2.8712318602.1563347849"/>
    </g>
    <path class="cls-3" d="m116.141169976,95.335188626c-.0697207716,1.7401107963-.0569655484,3.4842453988.0381960687,5.2228866567"/>
    <line class="cls-1" x1="116.8882276087" y1="102.7708906814" x2="120.2273960661" y2="96.5042320697"/>
  </g>
  <g>
    <g>
      <line class="cls-2" x1="128.4617104" y1="80.6017496958" x2="131.6487267092" y2="80.6017496958"/>
      <line class="cls-2" x1="130.0552185546" y1="79.0082415412" x2="130.0552185546" y2="82.1952578504"/>
    </g>
    <g>
      <path class="cls-3" d="m138.2319231279,81.9137870668c.2190433303-.5688453955.7041128711-1.013253271,1.2651673971-1.1591128854.3505319936-.0911293842.7776650411-.0404492954.9846043828.2742041472.1745062144.2653387363.1352579118.6254227517.0553690377.9379578201-.384371688,1.5037087164-1.4898101292,2.6568104487-2.5550026496,3.7258772542"/>
      <path class="cls-3" d="m140.8529876281,85.5559098929c-.9584071675-.0683708184-1.9243805969-.0157748402-2.8712318602.1563347849"/>
    </g>
    <path class="cls-3" d="m133.9690860892,77.9903063674c-.0697207716,1.7401107963-.0569655484,3.4842453988.0381960687,5.2228866567"/>
    <line class="cls-1" x1="134.7161437219" y1="85.4260084228" x2="138.0553121792" y2="79.1593498111"/>
  </g>
  <g>
    <g>
      <line class="cls-2" x1="110.6337942868" y1="133.5406312566" x2="113.8208105961" y2="133.5406312566"/>
      <line class="cls-2" x1="112.2273024415" y1="131.947123102" x2="112.2273024415" y2="135.1341394113"/>
    </g>
    <g>
      <path class="cls-3" d="m120.4040070147,134.8526686276c.2190433303-.5688453955.7041128711-1.013253271,1.2651673971-1.1591128854.3505319936-.0911293842.7776650411-.0404492954.9846043828.2742041472.1745062144.2653387363.1352579118.6254227517.0553690377.9379578201-.384371688,1.5037087164-1.4898101292,2.6568104487-2.5550026496,3.7258772542"/>
      <path class="cls-3" d="m123.0250715149,138.4947914537c-.9584071675-.0683708184-1.9243805969-.0157748402-2.8712318602.1563347849"/>
    </g>
    <path class="cls-3" d="m116.141169976,130.9291879283c-.0697207716,1.7401107963-.0569655484,3.4842453988.0381960687,5.2228866567"/>
    <line class="cls-1" x1="116.8882276087" y1="138.3648899837" x2="120.2273960661" y2="132.0982313719"/>
  </g>
  <g>
    <g>
      <line class="cls-2" x1="128.4617104" y1="115.6921045944" x2="131.6487267092" y2="115.6921045944"/>
      <line class="cls-2" x1="130.0552185546" y1="114.0985964398" x2="130.0552185546" y2="117.285612749"/>
    </g>
    <g>
      <path class="cls-3" d="m138.2319231279,117.0041419653c.2190433303-.5688453955.7041128711-1.013253271,1.2651673971-1.1591128854.3505319936-.0911293842.7776650411-.0404492954.9846043828.2742041472.1745062144.2653387363.1352579118.6254227517.0553690377.9379578201-.384371688,1.5037087164-1.4898101292,2.6568104487-2.5550026496,3.7258772542"/>
      <path class="cls-3" d="m140.8529876281,120.6462647915c-.9584071675-.0683708184-1.9243805969-.0157748402-2.8712318602.1563347849"/>
    </g>
    <path class="cls-3" d="m133.9690860892,113.080661266c-.0697207716,1.7401107963-.0569655484,3.4842453988.0381960687,5.2228866567"/>
    <line class="cls-1" x1="134.7161437219" y1="120.5163633214" x2="138.0553121792" y2="114.2497047097"/>
  </g>
  <g>
    <g>
      <line class="cls-2" x1="92.5455664662" y1="115.9692574882" x2="95.7325827754" y2="115.9692574882"/>
      <line class="cls-2" x1="94.1390746208" y1="114.3757493336" x2="94.1390746208" y2="117.5627656428"/>
    </g>
    <g>
      <path class="cls-3" d="m102.3157791941,117.2812948591c.2190433303-.5688453955.7041128711-1.013253271,1.2651673971-1.1591128854.3505319936-.0911293842.7776650411-.0404492954.9846043828.2742041472.1745062144.2653387363.1352579118.6254227517.0553690377.9379578201-.384371688,1.5037087164-1.4898101292,2.6568104487-2.5550026496,3.7258772542"/>
      <path class="cls-3" d="m104.9368436943,120.9234176853c-.9584071675-.0683708184-1.9243805969-.0157748402-2.8712318602.1563347849"/>
    </g>
    <path class="cls-3" d="m98.0529421554,113.3578141598c-.0697207716,1.7401107963-.0569655484,3.4842453988.0381960687,5.2228866567"/>
    <line class="cls-1" x1="98.799999788" y1="120.7935162152" x2="102.1391682454" y2="114.5268576035"/>
  </g>
  <g>
    <g>
      <line class="cls-2" x1="75.1696322549" y1="133.7348440094" x2="78.3566485641" y2="133.7348440094"/>
      <line class="cls-2" x1="76.7631404095" y1="132.1413358548" x2="76.7631404095" y2="135.328352164"/>
    </g>
    <g>
      <path class="cls-3" d="m84.9398449828,135.0468813804c.2190433303-.5688453955.7041128711-1.013253271,1.2651673971-1.1591128854.3505319936-.0911293842.7776650411-.0404492954.9846043828.2742041472.1745062144.2653387363.1352579118.6254227517.0553690377.9379578201-.384371688,1.5037087164-1.4898101292,2.6568104487-2.5550026496,3.7258772542"/>
      <path class="cls-3" d="m87.560909483,138.6890042065c-.9584071675-.0683708184-1.9243805969-.0157748402-2.8712318602.1563347849"/>
    </g>
    <path class="cls-3" d="m80.6770079441,131.123400681c-.0697207716,1.7401107963-.0569655484,3.4842453988.0381960687,5.2228866567"/>
    <line class="cls-1" x1="81.4240655768" y1="138.5591027364" x2="84.7632340341" y2="132.2924441247"/>
  </g>
  <g>
    <path class="cls-3" d="m66.2973757711,59.0029159727c-.1096803755,2.7374339262-.0896146528,5.4811978536.0600876764,8.2163199935"/>
    <line class="cls-2" x1="57.9925251331" y1="63.1110759695" x2="63.0061406952" y2="63.1110759695"/>
    <line class="cls-2" x1="60.4993329142" y1="60.6042681884" x2="60.4993329142" y2="65.6178837505"/>
  </g>
  <g>
    <path class="cls-3" d="m230.5374514441,59.0029159727c-.1096803755,2.7374339262-.0896146528,5.4811978536.0600876764,8.2163199935"/>
    <line class="cls-2" x1="222.2326008062" y1="63.1110759695" x2="227.2462163683" y2="63.1110759695"/>
    <line class="cls-2" x1="224.7394085872" y1="60.6042681884" x2="224.7394085872" y2="65.6178837505"/>
  </g>
  <g>
    <g>
      <line class="cls-2" x1="220.2194313493" y1="80.7959624486" x2="223.4064476585" y2="80.7959624486"/>
      <line class="cls-2" x1="221.8129395039" y1="79.202454294" x2="221.8129395039" y2="82.3894706032"/>
    </g>
    <g>
      <path class="cls-3" d="m229.9896440772,82.1079998195c.2190433303-.5688453955.7041128711-1.013253271,1.2651673971-1.1591128854.3505319936-.0911293842.7776650411-.0404492954.9846043828.2742041472.1745062144.2653387363.1352579118.6254227517.0553690377.9379578201-.384371688,1.5037087164-1.4898101292,2.6568104487-2.5550026496,3.7258772542"/>
      <path class="cls-3" d="m232.6107085774,85.7501226457c-.9584071675-.0683708184-1.9243805969-.0157748402-2.8712318602.1563347849"/>
    </g>
    <path class="cls-3" d="m225.7268070385,78.1845191202c-.0697207716,1.7401107963-.0569655484,3.4842453988.0381960687,5.2228866567"/>
    <line class="cls-1" x1="226.4738646712" y1="85.6202211756" x2="229.8130331285" y2="79.3535625638"/>
  </g>
  <g>
    <g>
      <line class="cls-2" x1="220.2194313493" y1="97.5582064489" x2="223.4064476585" y2="97.5582064489"/>
      <line class="cls-2" x1="221.8129395039" y1="95.9646982942" x2="221.8129395039" y2="99.1517146035"/>
    </g>
    <g>
      <path class="cls-3" d="m229.9896440772,98.8702438198c.2190433303-.5688453955.7041128711-1.013253271,1.2651673971-1.1591128854.3505319936-.0911293842.7776650411-.0404492954.9846043828.2742041472.1745062144.2653387363.1352579118.6254227517.0553690377.9379578201-.384371688,1.5037087164-1.4898101292,2.6568104487-2.5550026496,3.7258772542"/>
      <path class="cls-3" d="m232.6107085774,102.512366646c-.9584071675-.0683708184-1.9243805969-.0157748402-2.8712318602.1563347849"/>
    </g>
    <path class="cls-3" d="m225.7268070385,94.9467631205c-.0697207716,1.7401107963-.0569655484,3.4842453988.0381960687,5.2228866567"/>
    <line class="cls-1" x1="226.4738646712" y1="102.3824651759" x2="229.8130331285" y2="96.1158065641"/>
  </g>
  <g>
    <g>
      <line class="cls-2" x1="220.2194313493" y1="116.3082142359" x2="223.4064476585" y2="116.3082142359"/>
      <line class="cls-2" x1="221.8129395039" y1="114.7147060813" x2="221.8129395039" y2="117.9017223906"/>
    </g>
    <g>
      <path class="cls-3" d="m229.9896440772,117.6202516069c.2190433303-.5688453955.7041128711-1.013253271,1.2651673971-1.1591128854.3505319936-.0911293842.7776650411-.0404492954.9846043828.2742041472.1745062144.2653387363.1352579118.6254227517.0553690377.9379578201-.384371688,1.5037087164-1.4898101292,2.6568104487-2.5550026496,3.7258772542"/>
      <path class="cls-3" d="m232.6107085774,121.262374433c-.9584071675-.0683708184-1.9243805969-.0157748402-2.8712318602.1563347849"/>
    </g>
    <path class="cls-3" d="m225.7268070385,113.6967709076c-.0697207716,1.7401107963-.0569655484,3.4842453988.0381960687,5.2228866567"/>
    <line class="cls-1" x1="226.4738646712" y1="121.132472963" x2="229.8130331285" y2="114.8658143512"/>
  </g>
  <g>
    <g>
      <line class="cls-2" x1="219.9124313386" y1="134.2893446122" x2="223.0994476479" y2="134.2893446122"/>
      <line class="cls-2" x1="221.5059394932" y1="132.6958364576" x2="221.5059394932" y2="135.8828527669"/>
    </g>
    <g>
      <path class="cls-3" d="m229.6826440665,135.6013819832c.2190433303-.5688453955.7041128711-1.013253271,1.2651673971-1.1591128854.3505319936-.0911293842.7776650411-.0404492954.9846043828.2742041472.1745062144.2653387363.1352579118.6254227517.0553690377.9379578201-.384371688,1.5037087164-1.4898101292,2.6568104487-2.5550026496,3.7258772542"/>
      <path class="cls-3" d="m232.3037085667,139.2435048093c-.9584071675-.0683708184-1.9243805969-.0157748402-2.8712318602.1563347849"/>
    </g>
    <path class="cls-3" d="m225.4198070278,131.6779012839c-.0697207716,1.7401107963-.0569655484,3.4842453988.0381960687,5.2228866567"/>
    <line class="cls-1" x1="226.1668646605" y1="139.1136033393" x2="229.5060331178" y2="132.8469447275"/>
  </g>
  <g>
    <g>
      <line class="cls-2" x1="256.1201133362" y1="134.3861360985" x2="259.3071296454" y2="134.3861360985"/>
      <line class="cls-2" x1="257.7136214908" y1="132.7926279439" x2="257.7136214908" y2="135.9796442531"/>
    </g>
    <g>
      <path class="cls-3" d="m265.890326064,135.6981734694c.2190433303-.5688453955.7041128711-1.013253271,1.2651673971-1.1591128854.3505319936-.0911293842.7776650411-.0404492954.9846043828.2742041472.1745062144.2653387363.1352579118.6254227517.0553690377.9379578201-.384371688,1.5037087164-1.4898101292,2.6568104487-2.5550026496,3.7258772542"/>
      <path class="cls-3" d="m268.5113905643,139.3402962956c-.9584071675-.0683708184-1.9243805969-.0157748402-2.8712318602.1563347849"/>
    </g>
    <path class="cls-3" d="m261.6274890254,131.7746927701c-.0697207716,1.7401107963-.0569655484,3.4842453988.0381960687,5.2228866567"/>
    <line class="cls-1" x1="262.374546658" y1="139.2103948255" x2="265.7137151154" y2="132.9437362137"/>
  </g>
  <g>
    <g>
      <line class="cls-2" x1="273.142994826" y1="116.4050057222" x2="276.3300111353" y2="116.4050057222"/>
      <line class="cls-2" x1="274.7365029806" y1="114.8114975675" x2="274.7365029806" y2="117.9985138768"/>
    </g>
    <g>
      <path class="cls-3" d="m282.9132075539,117.7170430931c.2190433303-.5688453955.7041128711-1.013253271,1.2651673971-1.1591128854.3505319936-.0911293842.7776650411-.0404492954.9846043828.2742041472.1745062144.2653387363.1352579118.6254227517.0553690377.9379578201-.384371688,1.5037087164-1.4898101292,2.6568104487-2.5550026496,3.7258772542"/>
      <path class="cls-3" d="m285.5342720541,121.3591659193c-.9584071675-.0683708184-1.9243805969-.0157748402-2.8712318602.1563347849"/>
    </g>
    <path class="cls-3" d="m278.6503705152,113.7935623938c-.0697207716,1.7401107963-.0569655484,3.4842453988.0381960687,5.2228866567"/>
    <line class="cls-1" x1="279.3974281479" y1="121.2292644492" x2="282.7365966052" y2="114.9626058374"/>
  </g>
  <g>
    <g>
      <line class="cls-2" x1="292.0798782296" y1="134.5803488512" x2="295.2668945388" y2="134.5803488512"/>
      <line class="cls-2" x1="293.6733863842" y1="132.9868406966" x2="293.6733863842" y2="136.1738570059"/>
    </g>
    <g>
      <path class="cls-3" d="m301.8500909575,135.8923862222c.2190433303-.5688453955.7041128711-1.013253271,1.2651673971-1.1591128854.3505319936-.0911293842.7776650411-.0404492954.9846043828.2742041472.1745062144.2653387363.1352579118.6254227517.0553690377.9379578201-.384371688,1.5037087164-1.4898101292,2.6568104487-2.5550026496,3.7258772542"/>
      <path class="cls-3" d="m304.4711554577,139.5345090483c-.9584071675-.0683708184-1.9243805969-.0157748402-2.8712318602.1563347849"/>
    </g>
    <path class="cls-3" d="m297.5872539188,131.9689055229c-.0697207716,1.7401107963-.0569655484,3.4842453988.0381960687,5.2228866567"/>
    <line class="cls-1" x1="298.3343115515" y1="139.4046075783" x2="301.6734800088" y2="133.1379489665"/>
  </g>
  <g>
    <g>
      <line class="cls-2" x1="309.6682353613" y1="116.5992184749" x2="312.8552516705" y2="116.5992184749"/>
      <line class="cls-2" x1="311.2617435159" y1="115.0057103203" x2="311.2617435159" y2="118.1927266296"/>
    </g>
    <g>
      <path class="cls-3" d="m319.4384480891,117.9112558459c.2190433303-.5688453955.7041128711-1.013253271,1.2651673971-1.1591128854.3505319936-.0911293842.7776650411-.0404492954.9846043828.2742041472.1745062144.2653387363.1352579118.6254227517.0553690377.9379578201-.384371688,1.5037087164-1.4898101292,2.6568104487-2.5550026496,3.7258772542"/>
      <path class="cls-3" d="m322.0595125893,121.553378672c-.9584071675-.0683708184-1.9243805969-.0157748402-2.8712318602.1563347849"/>
    </g>
    <path class="cls-3" d="m315.1756110504,113.9877751466c-.0697207716,1.7401107963-.0569655484,3.4842453988.0381960687,5.2228866567"/>
    <line class="cls-1" x1="315.9226686831" y1="121.423477202" x2="319.2618371405" y2="115.1568185902"/>
  </g>
  <g>
    <g>
      <line class="cls-2" x1="292.0798782296" y1="97.7524192016" x2="295.2668945388" y2="97.7524192016"/>
      <line class="cls-2" x1="293.6733863842" y1="96.158911047" x2="293.6733863842" y2="99.3459273562"/>
    </g>
    <g>
      <path class="cls-3" d="m301.8500909575,99.0644565726c.2190433303-.5688453955.7041128711-1.013253271,1.2651673971-1.1591128854.3505319936-.0911293842.7776650411-.0404492954.9846043828.2742041472.1745062144.2653387363.1352579118.6254227517.0553690377.9379578201-.384371688,1.5037087164-1.4898101292,2.6568104487-2.5550026496,3.7258772542"/>
      <path class="cls-3" d="m304.4711554577,102.7065793987c-.9584071675-.0683708184-1.9243805969-.0157748402-2.8712318602.1563347849"/>
    </g>
    <path class="cls-3" d="m297.5872539188,95.1409758733c-.0697207716,1.7401107963-.0569655484,3.4842453988.0381960687,5.2228866567"/>
    <line class="cls-1" x1="298.3343115515" y1="102.5766779287" x2="301.6734800088" y2="96.3100193169"/>
  </g>
  <g>
    <g>
      <line class="cls-2" x1="309.6682353613" y1="80.3107454568" x2="312.8552516705" y2="80.3107454568"/>
      <line class="cls-2" x1="311.2617435159" y1="78.7172373022" x2="311.2617435159" y2="81.9042536114"/>
    </g>
    <g>
      <path class="cls-3" d="m319.4384480891,81.6227828278c.2190433303-.5688453955.7041128711-1.013253271,1.2651673971-1.1591128854.3505319936-.0911293842.7776650411-.0404492954.9846043828.2742041472.1745062144.2653387363.1352579118.6254227517.0553690377.9379578201-.384371688,1.5037087164-1.4898101292,2.6568104487-2.5550026496,3.7258772542"/>
      <path class="cls-3" d="m322.0595125893,85.2649056539c-.9584071675-.0683708184-1.9243805969-.0157748402-2.8712318602.1563347849"/>
    </g>
    <path class="cls-3" d="m315.1756110504,77.6993021284c-.0697207716,1.7401107963-.0569655484,3.4842453988.0381960687,5.2228866567"/>
    <line class="cls-1" x1="315.9226686831" y1="85.1350041838" x2="319.2618371405" y2="78.8683455721"/>
  </g>
  <g>
    <g>
      <line class="cls-2" x1="256.1201133362" y1="80.8927539348" x2="259.3071296454" y2="80.8927539348"/>
      <line class="cls-2" x1="257.7136214908" y1="79.2992457802" x2="257.7136214908" y2="82.4862620894"/>
    </g>
    <g>
      <path class="cls-3" d="m265.890326064,82.2047913058c.2190433303-.5688453955.7041128711-1.013253271,1.2651673971-1.1591128854.3505319936-.0911293842.7776650411-.0404492954.9846043828.2742041472.1745062144.2653387363.1352579118.6254227517.0553690377.9379578201-.384371688,1.5037087164-1.4898101292,2.6568104487-2.5550026496,3.7258772542"/>
      <path class="cls-3" d="m268.5113905643,85.8469141319c-.9584071675-.0683708184-1.9243805969-.0157748402-2.8712318602.1563347849"/>
    </g>
    <path class="cls-3" d="m261.6274890254,78.2813106064c-.0697207716,1.7401107963-.0569655484,3.4842453988.0381960687,5.2228866567"/>
    <line class="cls-1" x1="262.374546658" y1="85.7170126618" x2="265.7137151154" y2="79.4503540501"/>
  </g>
  <g>
    <g>
      <line class="cls-2" x1="274.036058255" y1="97.5582064489" x2="277.2230745643" y2="97.5582064489"/>
      <line class="cls-2" x1="275.6295664097" y1="95.9646982942" x2="275.6295664097" y2="99.1517146035"/>
    </g>
    <g>
      <path class="cls-3" d="m283.8062709829,98.8702438198c.2190433303-.5688453955.7041128711-1.013253271,1.2651673971-1.1591128854.3505319936-.0911293842.7776650411-.0404492954.9846043828.2742041472.1745062144.2653387363.1352579118.6254227517.0553690377.9379578201-.384371688,1.5037087164-1.4898101292,2.6568104487-2.5550026496,3.7258772542"/>
      <path class="cls-3" d="m286.4273354831,102.512366646c-.9584071675-.0683708184-1.9243805969-.0157748402-2.8712318602.1563347849"/>
    </g>
    <path class="cls-3" d="m279.5434339442,94.9467631205c-.0697207716,1.7401107963-.0569655484,3.4842453988.0381960687,5.2228866567"/>
    <line class="cls-1" x1="280.2904915769" y1="102.3824651759" x2="283.6296600343" y2="96.1158065641"/>
  </g>
  <g>
    <g>
      <line class="cls-2" x1="256.1201133362" y1="61.6143593011" x2="259.3071296454" y2="61.6143593011"/>
      <line class="cls-2" x1="257.7136214908" y1="60.0208511465" x2="257.7136214908" y2="63.2078674557"/>
    </g>
    <g>
      <path class="cls-3" d="m265.890326064,62.926396672c.2190433303-.5688453955.7041128711-1.013253271,1.2651673971-1.1591128854.3505319936-.0911293842.7776650411-.0404492954.9846043828.2742041472.1745062144.2653387363.1352579118.6254227517.0553690377.9379578201-.384371688,1.5037087164-1.4898101292,2.6568104487-2.5550026496,3.7258772542"/>
      <path class="cls-3" d="m268.5113905643,66.5685194982c-.9584071675-.0683708184-1.9243805969-.0157748402-2.8712318602.1563347849"/>
    </g>
    <path class="cls-3" d="m261.6274890254,59.0029159727c-.0697207716,1.7401107963-.0569655484,3.4842453988.0381960687,5.2228866567"/>
    <line class="cls-1" x1="262.374546658" y1="66.4386180281" x2="265.7137151154" y2="60.1719594164"/>
  </g>
  <g>
    <g>
      <line class="cls-2" x1="274.036058255" y1="61.8085720539" x2="277.2230745643" y2="61.8085720539"/>
      <line class="cls-2" x1="275.6295664097" y1="60.2150638992" x2="275.6295664097" y2="63.4020802085"/>
    </g>
    <g>
      <path class="cls-3" d="m283.8062709829,63.1206094248c.2190433303-.5688453955.7041128711-1.013253271,1.2651673971-1.1591128854.3505319936-.0911293842.7776650411-.0404492954.9846043828.2742041472.1745062144.2653387363.1352579118.6254227517.0553690377.9379578201-.384371688,1.5037087164-1.4898101292,2.6568104487-2.5550026496,3.7258772542"/>
      <path class="cls-3" d="m286.4273354831,66.762732251c-.9584071675-.0683708184-1.9243805969-.0157748402-2.8712318602.1563347849"/>
    </g>
    <path class="cls-3" d="m279.5434339442,59.1971287255c-.0697207716,1.7401107963-.0569655484,3.4842453988.0381960687,5.2228866567"/>
    <line class="cls-1" x1="280.2904915769" y1="66.6328307809" x2="283.6296600343" y2="60.3661721691"/>
  </g>
  <g>
    <g>
      <line class="cls-2" x1="292.4400499918" y1="61.8085720539" x2="295.627066301" y2="61.8085720539"/>
      <line class="cls-2" x1="294.0335581464" y1="60.2150638992" x2="294.0335581464" y2="63.4020802085"/>
    </g>
    <g>
      <path class="cls-3" d="m302.2102627196,63.1206094248c.2190433303-.5688453955.7041128711-1.013253271,1.2651673971-1.1591128854.3505319936-.0911293842.7776650411-.0404492954.9846043828.2742041472.1745062144.2653387363.1352579118.6254227517.0553690377.9379578201-.384371688,1.5037087164-1.4898101292,2.6568104487-2.5550026496,3.7258772542"/>
      <path class="cls-3" d="m304.8313272198,66.762732251c-.9584071675-.0683708184-1.9243805969-.0157748402-2.8712318602.1563347849"/>
    </g>
    <path class="cls-3" d="m297.9474256809,59.1971287255c-.0697207716,1.7401107963-.0569655484,3.4842453988.0381960687,5.2228866567"/>
    <line class="cls-1" x1="298.6944833136" y1="66.6328307809" x2="302.033651771" y2="60.3661721691"/>
  </g>
  <g>
    <g>
      <line class="cls-2" x1="309.6721853837" y1="61.9053635401" x2="312.8592016929" y2="61.9053635401"/>
      <line class="cls-2" x1="311.2656935383" y1="60.3118553855" x2="311.2656935383" y2="63.4988716947"/>
    </g>
    <g>
      <path class="cls-3" d="m319.4423981116,63.217400911c.2190433303-.5688453955.7041128711-1.013253271,1.2651673971-1.1591128854.3505319936-.0911293842.7776650411-.0404492954.9846043828.2742041472.1745062144.2653387363.1352579118.6254227517.0553690377.9379578201-.384371688,1.5037087164-1.4898101292,2.6568104487-2.5550026496,3.7258772542"/>
      <path class="cls-3" d="m322.0634626118,66.8595237372c-.9584071675-.0683708184-1.9243805969-.0157748402-2.8712318602.1563347849"/>
    </g>
    <path class="cls-3" d="m315.1795610729,59.2939202117c-.0697207716,1.7401107963-.0569655484,3.4842453988.0381960687,5.2228866567"/>
    <line class="cls-1" x1="315.9266187056" y1="66.7296222671" x2="319.2657871629" y2="60.4629636554"/>
  </g>
  <g>
    <path class="cls-3" d="m429.5177618126,41.5541715522c-.1096803755,2.7374339262-.0896146528,5.4811978536.0600876764,8.2163199935"/>
    <line class="cls-2" x1="421.2129111746" y1="45.6623315489" x2="426.2265267367" y2="45.6623315489"/>
    <line class="cls-2" x1="423.7197189557" y1="43.1555237679" x2="423.7197189557" y2="48.16913933"/>
  </g>
  <g>
    <g>
      <line class="cls-2" x1="436.5515805387" y1="44.1656148805" x2="439.738596848" y2="44.1656148805"/>
      <line class="cls-2" x1="438.1450886934" y1="42.5721067259" x2="438.1450886934" y2="45.7591230352"/>
    </g>
    <g>
      <path class="cls-3" d="m446.3217932666,45.4776522515c.2190433303-.5688453955.7041128711-1.013253271,1.2651673971-1.1591128854.3505319936-.0911293842.7776650411-.0404492954.9846043828.2742041472.1745062144.2653387363.1352579118.6254227517.0553690377.9379578201-.384371688,1.5037087164-1.4898101292,2.6568104487-2.5550026496,3.7258772542"/>
      <path class="cls-3" d="m448.9428577668,49.1197750777c-.9584071675-.0683708184-1.9243805969-.0157748402-2.8712318602.1563347849"/>
    </g>
    <path class="cls-3" d="m442.0589562279,41.5541715522c-.0697207716,1.7401107963-.0569655484,3.4842453988.0381960687,5.2228866567"/>
    <line class="cls-1" x1="442.8060138606" y1="48.9898736076" x2="446.145182318" y2="42.7232149958"/>
  </g>
  <g>
    <g>
      <line class="cls-2" x1="454.5363972873" y1="44.2624063668" x2="457.7234135965" y2="44.2624063668"/>
      <line class="cls-2" x1="456.1299054419" y1="42.6688982122" x2="456.1299054419" y2="45.8559145214"/>
    </g>
    <g>
      <path class="cls-3" d="m464.3066100152,45.5744437377c.2190433303-.5688453955.7041128711-1.013253271,1.2651673971-1.1591128854.3505319936-.0911293842.7776650411-.0404492954.9846043828.2742041472.1745062144.2653387363.1352579118.6254227517.0553690377.9379578201-.384371688,1.5037087164-1.4898101292,2.6568104487-2.5550026496,3.7258772542"/>
      <path class="cls-3" d="m466.9276745154,49.2165665639c-.9584071675-.0683708184-1.9243805969-.0157748402-2.8712318602.1563347849"/>
    </g>
    <path class="cls-3" d="m460.0437729765,41.6509630384c-.0697207716,1.7401107963-.0569655484,3.4842453988.0381960687,5.2228866567"/>
    <line class="cls-1" x1="460.7908306092" y1="49.0866650938" x2="464.1299990665" y2="42.820006482"/>
  </g>
  <g>
    <g>
      <line class="cls-2" x1="473.6340498071" y1="44.1656148805" x2="476.8210661164" y2="44.1656148805"/>
      <line class="cls-2" x1="475.2275579617" y1="42.5721067259" x2="475.2275579617" y2="45.7591230352"/>
    </g>
    <g>
      <path class="cls-3" d="m483.404262535,45.4776522515c.2190433303-.5688453955.7041128711-1.013253271,1.2651673971-1.1591128854.3505319936-.0911293842.7776650411-.0404492954.9846043828.2742041472.1745062144.2653387363.1352579118.6254227517.0553690377.9379578201-.384371688,1.5037087164-1.4898101292,2.6568104487-2.5550026496,3.7258772542"/>
      <path class="cls-3" d="m486.0253270352,49.1197750777c-.9584071675-.0683708184-1.9243805969-.0157748402-2.8712318602.1563347849"/>
    </g>
    <path class="cls-3" d="m479.1414254963,41.5541715522c-.0697207716,1.7401107963-.0569655484,3.4842453988.0381960687,5.2228866567"/>
    <line class="cls-1" x1="479.888483129" y1="48.9898736076" x2="483.2276515863" y2="42.7232149958"/>
  </g>
  <g>
    <g>
      <line class="cls-2" x1="490.8661851991" y1="43.9968019068" x2="494.0532015083" y2="43.9968019068"/>
      <line class="cls-2" x1="492.4596933537" y1="42.4032937522" x2="492.4596933537" y2="45.5903100614"/>
    </g>
    <g>
      <path class="cls-3" d="m500.6363979269,45.3088392778c.2190433303-.5688453955.7041128711-1.013253271,1.2651673971-1.1591128854.3505319936-.0911293842.7776650411-.0404492954.9846043828.2742041472.1745062144.2653387363.1352579118.6254227517.0553690377.9379578201-.384371688,1.5037087164-1.4898101292,2.6568104487-2.5550026496,3.7258772542"/>
      <path class="cls-3" d="m503.2574624271,48.9509621039c-.9584071675-.0683708184-1.9243805969-.0157748402-2.8712318602.1563347849"/>
    </g>
    <path class="cls-3" d="m496.3735608882,41.3853585784c-.0697207716,1.7401107963-.0569655484,3.4842453988.0381960687,5.2228866567"/>
    <line class="cls-1" x1="497.1206185209" y1="48.8210606339" x2="500.4597869783" y2="42.5544020221"/>
  </g>
  <g>
    <g>
      <line class="cls-2" x1="419.0167680958" y1="80.2935193933" x2="422.203784405" y2="80.2935193933"/>
      <line class="cls-2" x1="420.6102762504" y1="78.7000112387" x2="420.6102762504" y2="81.8870275479"/>
    </g>
    <g>
      <path class="cls-3" d="m428.7869808237,81.6055567642c.2190433303-.5688453955.7041128711-1.013253271,1.2651673971-1.1591128854.3505319936-.0911293842.7776650411-.0404492954.9846043828.2742041472.1745062144.2653387363.1352579118.6254227517.0553690377.9379578201-.384371688,1.5037087164-1.4898101292,2.6568104487-2.5550026496,3.7258772542"/>
      <path class="cls-3" d="m431.4080453239,85.2476795904c-.9584071675-.0683708184-1.9243805969-.0157748402-2.8712318602.1563347849"/>
    </g>
    <path class="cls-3" d="m424.524143785,77.6820760649c-.0697207716,1.7401107963-.0569655484,3.4842453988.0381960687,5.2228866567"/>
    <line class="cls-1" x1="425.2712014176" y1="85.1177781203" x2="428.610369875" y2="78.8511195085"/>
  </g>
  <g>
    <g>
      <line class="cls-2" x1="419.0167680958" y1="97.5409803853" x2="422.203784405" y2="97.5409803853"/>
      <line class="cls-2" x1="420.6102762504" y1="95.9474722307" x2="420.6102762504" y2="99.13448854"/>
    </g>
    <g>
      <path class="cls-3" d="m428.7869808237,98.8530177563c.2190433303-.5688453955.7041128711-1.013253271,1.2651673971-1.1591128854.3505319936-.0911293842.7776650411-.0404492954.9846043828.2742041472.1745062144.2653387363.1352579118.6254227517.0553690377.9379578201-.384371688,1.5037087164-1.4898101292,2.6568104487-2.5550026496,3.7258772542"/>
      <path class="cls-3" d="m431.4080453239,102.4951405824c-.9584071675-.0683708184-1.9243805969-.0157748402-2.8712318602.1563347849"/>
    </g>
    <path class="cls-3" d="m424.524143785,94.929537057c-.0697207716,1.7401107963-.0569655484,3.4842453988.0381960687,5.2228866567"/>
    <line class="cls-1" x1="425.2712014176" y1="102.3652391124" x2="428.610369875" y2="96.0985805006"/>
  </g>
  <g>
    <g>
      <line class="cls-2" x1="419.0167680958" y1="115.4806657781" x2="422.203784405" y2="115.4806657781"/>
      <line class="cls-2" x1="420.6102762504" y1="113.8871576235" x2="420.6102762504" y2="117.0741739327"/>
    </g>
    <g>
      <path class="cls-3" d="m428.7869808237,116.792703149c.2190433303-.5688453955.7041128711-1.013253271,1.2651673971-1.1591128854.3505319936-.0911293842.7776650411-.0404492954.9846043828.2742041472.1745062144.2653387363.1352579118.6254227517.0553690377.9379578201-.384371688,1.5037087164-1.4898101292,2.6568104487-2.5550026496,3.7258772542"/>
      <path class="cls-3" d="m431.4080453239,120.4348259752c-.9584071675-.0683708184-1.9243805969-.0157748402-2.8712318602.1563347849"/>
    </g>
    <path class="cls-3" d="m424.524143785,112.8692224497c-.0697207716,1.7401107963-.0569655484,3.4842453988.0381960687,5.2228866567"/>
    <line class="cls-1" x1="425.2712014176" y1="120.3049245051" x2="428.610369875" y2="114.0382658934"/>
  </g>
  <g>
    <g>
      <line class="cls-2" x1="419.0167680958" y1="133.2324009541" x2="422.203784405" y2="133.2324009541"/>
      <line class="cls-2" x1="420.6102762504" y1="131.6388927995" x2="420.6102762504" y2="134.8259091087"/>
    </g>
    <g>
      <path class="cls-3" d="m428.7869808237,134.5444383251c.2190433303-.5688453955.7041128711-1.013253271,1.2651673971-1.1591128854.3505319936-.0911293842.7776650411-.0404492954.9846043828.2742041472.1745062144.2653387363.1352579118.6254227517.0553690377.9379578201-.384371688,1.5037087164-1.4898101292,2.6568104487-2.5550026496,3.7258772542"/>
      <path class="cls-3" d="m431.4080453239,138.1865611512c-.9584071675-.0683708184-1.9243805969-.0157748402-2.8712318602.1563347849"/>
    </g>
    <path class="cls-3" d="m424.524143785,130.6209576257c-.0697207716,1.7401107963-.0569655484,3.4842453988.0381960687,5.2228866567"/>
    <line class="cls-1" x1="425.2712014176" y1="138.0566596811" x2="428.610369875" y2="131.7900010694"/>
  </g>
  <g>
    <g>
      <line class="cls-2" x1="437.169201624" y1="80.2935193933" x2="440.3562179332" y2="80.2935193933"/>
      <line class="cls-2" x1="438.7627097786" y1="78.7000112387" x2="438.7627097786" y2="81.8870275479"/>
    </g>
    <g>
      <path class="cls-3" d="m446.9394143518,81.6055567642c.2190433303-.5688453955.7041128711-1.013253271,1.2651673971-1.1591128854.3505319936-.0911293842.7776650411-.0404492954.9846043828.2742041472.1745062144.2653387363.1352579118.6254227517.0553690377.9379578201-.384371688,1.5037087164-1.4898101292,2.6568104487-2.5550026496,3.7258772542"/>
      <path class="cls-3" d="m449.560478852,85.2476795904c-.9584071675-.0683708184-1.9243805969-.0157748402-2.8712318602.1563347849"/>
    </g>
    <path class="cls-3" d="m442.6765773131,77.6820760649c-.0697207716,1.7401107963-.0569655484,3.4842453988.0381960687,5.2228866567"/>
    <line class="cls-1" x1="443.4236349458" y1="85.1177781203" x2="446.7628034032" y2="78.8511195086"/>
  </g>
  <g>
    <g>
      <line class="cls-2" x1="454.988419713" y1="98.0427936603" x2="458.1754360223" y2="98.0427936603"/>
      <line class="cls-2" x1="456.5819278677" y1="96.4492855057" x2="456.5819278677" y2="99.6363018149"/>
    </g>
    <g>
      <path class="cls-3" d="m464.7586324409,99.3548310313c.2190433303-.5688453955.7041128711-1.013253271,1.2651673971-1.1591128854.3505319936-.0911293842.7776650411-.0404492954.9846043828.2742041472.1745062144.2653387363.1352579118.6254227517.0553690377.9379578201-.384371688,1.5037087164-1.4898101292,2.6568104487-2.5550026496,3.7258772542"/>
      <path class="cls-3" d="m467.3796969411,102.9969538574c-.9584071675-.0683708184-1.9243805969-.0157748402-2.8712318602.1563347849"/>
    </g>
    <path class="cls-3" d="m460.4957954022,95.431350332c-.0697207716,1.7401107963-.0569655484,3.4842453988.0381960687,5.2228866567"/>
    <line class="cls-1" x1="461.2428530349" y1="102.8670523874" x2="464.5820214923" y2="96.6003937756"/>
  </g>
  <g>
    <g>
      <line class="cls-2" x1="472.8229149183" y1="98.0427936603" x2="476.0099312275" y2="98.0427936603"/>
      <line class="cls-2" x1="474.4164230729" y1="96.4492855057" x2="474.4164230729" y2="99.6363018149"/>
    </g>
    <g>
      <path class="cls-3" d="m482.5931276461,99.3548310313c.2190433303-.5688453955.7041128711-1.013253271,1.2651673971-1.1591128854.3505319936-.0911293842.7776650411-.0404492954.9846043828.2742041472.1745062144.2653387363.1352579118.6254227517.0553690377.9379578201-.384371688,1.5037087164-1.4898101292,2.6568104487-2.5550026496,3.7258772542"/>
      <path class="cls-3" d="m485.2141921463,102.9969538574c-.9584071675-.0683708184-1.9243805969-.0157748402-2.8712318602.1563347849"/>
    </g>
    <path class="cls-3" d="m478.3302906074,95.431350332c-.0697207716,1.7401107963-.0569655484,3.4842453988.0381960687,5.2228866567"/>
    <line class="cls-1" x1="479.0773482401" y1="102.8670523874" x2="482.4165166975" y2="96.6003937756"/>
  </g>
  <g>
    <g>
      <line class="cls-2" x1="490.9541356621" y1="80.3903108795" x2="494.1411519713" y2="80.3903108795"/>
      <line class="cls-2" x1="492.5476438167" y1="78.7968027249" x2="492.5476438167" y2="81.9838190341"/>
    </g>
    <g>
      <path class="cls-3" d="m500.72434839,81.7023482505c.2190433303-.5688453955.7041128711-1.013253271,1.2651673971-1.1591128854.3505319936-.0911293842.7776650411-.0404492954.9846043828.2742041472.1745062144.2653387363.1352579118.6254227517.0553690377.9379578201-.384371688,1.5037087164-1.4898101292,2.6568104487-2.5550026496,3.7258772542"/>
      <path class="cls-3" d="m503.3454128902,85.3444710766c-.9584071675-.0683708184-1.9243805969-.0157748402-2.8712318602.1563347849"/>
    </g>
    <path class="cls-3" d="m496.4615113513,77.7788675511c-.0697207716,1.7401107963-.0569655484,3.4842453988.0381960687,5.2228866567"/>
    <line class="cls-1" x1="497.208568984" y1="85.2145696066" x2="500.5477374413" y2="78.9479109948"/>
  </g>
  <g>
    <g>
      <line class="cls-2" x1="473.6638580252" y1="133.0332896558" x2="476.8508743345" y2="133.0332896558"/>
      <line class="cls-2" x1="475.2573661798" y1="131.4397815012" x2="475.2573661798" y2="134.6267978104"/>
    </g>
    <g>
      <path class="cls-3" d="m483.4340707531,134.3453270268c.2190433303-.5688453955.7041128711-1.013253271,1.2651673971-1.1591128854.3505319936-.0911293842.7776650411-.0404492954.9846043828.2742041472.1745062144.2653387363.1352579118.6254227517.0553690377.9379578201-.384371688,1.5037087164-1.4898101292,2.6568104487-2.5550026496,3.7258772542"/>
      <path class="cls-3" d="m486.0551352533,137.9874498529c-.9584071675-.0683708184-1.9243805969-.0157748402-2.8712318602.1563347849"/>
    </g>
    <path class="cls-3" d="m479.1712337144,130.4218463274c-.0697207716,1.7401107963-.0569655484,3.4842453988.0381960687,5.2228866567"/>
    <line class="cls-1" x1="479.9182913471" y1="137.8575483828" x2="483.2574598044" y2="131.5908897711"/>
  </g>
  <g>
    <g>
      <line class="cls-2" x1="490.8065657035" y1="115.6748785309" x2="493.9935820127" y2="115.6748785309"/>
      <line class="cls-2" x1="492.4000738581" y1="114.0813703762" x2="492.4000738581" y2="117.2683866855"/>
    </g>
    <g>
      <path class="cls-3" d="m500.5767784314,116.9869159018c.2190433303-.5688453955.7041128711-1.013253271,1.2651673971-1.1591128854.3505319936-.0911293842.7776650411-.0404492954.9846043828.2742041472.1745062144.2653387363.1352579118.6254227517.0553690377.9379578201-.384371688,1.5037087164-1.4898101292,2.6568104487-2.5550026496,3.7258772542"/>
      <path class="cls-3" d="m503.1978429316,120.629038728c-.9584071675-.0683708184-1.9243805969-.0157748402-2.8712318602.1563347849"/>
    </g>
    <path class="cls-3" d="m496.3139413927,113.0634352025c-.0697207716,1.7401107963-.0569655484,3.4842453988.0381960687,5.2228866567"/>
    <line class="cls-1" x1="497.0609990253" y1="120.4991372579" x2="500.4001674827" y2="114.2324786461"/>
  </g>
  <g>
    <g>
      <line class="cls-2" x1="437.169201624" y1="133.4266137069" x2="440.3562179332" y2="133.4266137069"/>
      <line class="cls-2" x1="438.7627097786" y1="131.8331055523" x2="438.7627097786" y2="135.0201218615"/>
    </g>
    <g>
      <path class="cls-3" d="m446.9394143518,134.7386510778c.2190433303-.5688453955.7041128711-1.013253271,1.2651673971-1.1591128854.3505319936-.0911293842.7776650411-.0404492954.9846043828.2742041472.1745062144.2653387363.1352579118.6254227517.0553690377.9379578201-.384371688,1.5037087164-1.4898101292,2.6568104487-2.5550026496,3.7258772542"/>
      <path class="cls-3" d="m449.560478852,138.380773904c-.9584071675-.0683708184-1.9243805969-.0157748402-2.8712318602.1563347849"/>
    </g>
    <path class="cls-3" d="m442.6765773131,130.8151703785c-.0697207716,1.7401107963-.0569655484,3.4842453988.0381960687,5.2228866567"/>
    <line class="cls-1" x1="443.4236349458" y1="138.2508724339" x2="446.7628034032" y2="131.9842138221"/>
  </g>
  <g>
    <g>
      <line class="cls-2" x1="454.9116668996" y1="115.5774572643" x2="458.0986832089" y2="115.5774572643"/>
      <line class="cls-2" x1="456.5051750543" y1="113.9839491097" x2="456.5051750543" y2="117.1709654189"/>
    </g>
    <g>
      <path class="cls-3" d="m464.6818796275,116.8894946353c.2190433303-.5688453955.7041128711-1.013253271,1.2651673971-1.1591128854.3505319936-.0911293842.7776650411-.0404492954.9846043828.2742041472.1745062144.2653387363.1352579118.6254227517.0553690377.9379578201-.384371688,1.5037087164-1.4898101292,2.6568104487-2.5550026496,3.7258772542"/>
      <path class="cls-3" d="m467.3029441277,120.5316174614c-.9584071675-.0683708184-1.9243805969-.0157748402-2.8712318602.1563347849"/>
    </g>
    <path class="cls-3" d="m460.4190425888,112.966013936c-.0697207716,1.7401107963-.0569655484,3.4842453988.0381960687,5.2228866567"/>
    <line class="cls-1" x1="461.1661002215" y1="120.4017159914" x2="464.5052686789" y2="114.1350573796"/>
  </g>
</svg>