<svg xmlns="http://www.w3.org/2000/svg" id="Layer_1" data-name="Layer 1" viewBox="0 0 459.36 279.38">
  <defs>
    <style>
      .cls-1, .cls-2 {
        stroke-linejoin: round;
      }

      .cls-1, .cls-2, .cls-3 {
        fill: none;
        stroke-linecap: round;
      }

      .cls-1, .cls-4, .cls-3, .cls-5 {
        stroke: #231f20;
      }

      .cls-2 {
        stroke: #010101;
      }

      .cls-4 {
        opacity: .1;
      }

      .cls-4, .cls-3, .cls-5 {
        stroke-miterlimit: 10;
      }

      .cls-4, .cls-6, .cls-5 {
        fill: #231f20;
      }

      .cls-6 {
        font-family: AnnaiMN-Regular, 'Annai MN';
        font-size: 12px;
      }

      .cls-5 {
        opacity: .15;
      }
    </style>
  </defs>
  <g>
    <path class="cls-1" d="m334.3587167962,8.8418707103c.0812651788-.6315256142.0161767709-1.3004867615-.30245647-1.8517593697s-.9211837956-.9606916867-1.5575033199-.9377549558c-.8978301702.0323628174-1.5610862392.8543394948-1.9329144851,1.6721966435-.8601751555,1.8920037003-.8188983413,4.1708901385.109228686,6.0305028232.3048742446.6108518567.7880438659,1.2322001687,1.4675796903,1.2979213472.4947033343.0478454749.9796616192-.2271021113,1.2940936917-.6120086781s.4832847238-.8671980047.6065985092-1.3500103679"/>
    <path class="cls-1" d="m336.9030144574,6.2320163555c.042779377,2.9419917383.085558754,5.8839834766.1309029682,8.8259379197v.0135161907"/>
    <path class="cls-1" d="m337.0248377286,11.0158843127c1.2109386548-.2042440808,2.4218773095-.4084881616,3.6314188054-.62101583h-.0135161907"/>
    <path class="cls-1" d="m340.7887855788,6.1351851059c-.1304953966,2.3587371888-.0560450935,4.7234659551.0184400879,7.0846356084.0117611695.3728267595.023522342.7456535134.0333438594,1.1159148475"/>
    <path class="cls-1" d="m349.7386751622,6.2320163555c.042779377,2.9419917383.085558754,5.8839834766.1309029682,8.8259379197v.0135161907"/>
    <path class="cls-1" d="m349.8604984334,11.0158843127c1.2109386548-.2042440808,2.4218773095-.4084881616,3.6314188054-.62101583h-.0135161907"/>
    <path class="cls-1" d="m353.6244462835,6.1351851059c-.1304953966,2.3587371888-.0560450935,4.7234659551.0184400879,7.0846356084.0117611695.3728267595.023522342.7456535134.0333438594,1.1159148475"/>
    <path class="cls-1" d="m347.1718741215,8.3687445614c.31972527-.687743136.0221694113-1.5793052325-.611298208-1.9963587599s-1.5189582447-.3638016049-2.1429479323.067303648-.9821065959,1.1935519129-.9944769466,1.9518802348c-.0086123844.5279564311.1423148732,1.0625735993.4538331565,1.48891679.4327757457.5922960126,1.1219266265.9280097343,1.7542463026,1.299871579s1.272269644.8554500161,1.4713426216,1.5614807193c.1966009335.6972636015-.1278130611,1.4968337345-.7335679895,1.894186652s-1.4412316217.3872552061-2.0599894316.0104699266-1.0067069118-1.0888430436-1.0312275456-1.8128783416"/>
    <text class="cls-6" transform="translate(354.0545316541 14.3360380015)"><tspan x="0" y="0">’</tspan></text>
  </g>
  <g>
    <path class="cls-1" d="m191.4888572838,12.7124087981c-.791273889-.8654214376-2.3812202426-1.1404146876-3.3567455529-.4897081478s-1.3671123787,2.0473910807-.8720603284,3.1104019459,1.8160915541,1.6621124992,2.9419412354,1.3341931078,1.9185752406-1.5426845235,1.7653915758-2.7052693148c-.1393489814-1.0575885646-.926654411-1.8984947334-1.3776888551-2.8651796084-.5080035764-1.0887832956-.5776029289-2.3747580531-.1900770257-3.5120091856s1.2278753901-2.1131547581,2.2950024621-2.6652021077"/>
    <text class="cls-6" transform="translate(192.6948057019 14.3360380015)"><tspan x="0" y="0">’</tspan></text>
  </g>
  <g>
    <path class="cls-1" d="m110.1889230479,5.4810477879c1.5096030154.971933244,2.9564058482,2.1371376434,3.8403652252,3.6998824449s1.1108924262,3.5924727809.1969792503,5.1378912361c-.4904827635.8294016997-1.3060751043,1.076888837-2.1759557071.662415388-.8380767227-.3993195679-1.2078651041-2.1691867966-1.1216919314-3.0935259435.3061935001-3.2843880154,2.217364391-4.4815385695,4.9697891191-6.6851085808"/>
    <text class="cls-6" transform="translate(116.1026235425 14.3357938609)"><tspan x="0" y="0">’</tspan></text>
  </g>
  <g>
    <path class="cls-1" d="m412.4977312903,5.8324059278c-.1512867004,2.8594445236-.3025734007,5.7188890472-.4778105414,8.6517385186,1.3328758534-.0970341073,2.6657517068-.1940682147,3.9986275602-.2911023221"/>
    <g>
      <path class="cls-1" d="m417.7579825048,14.335929728c.0670135551-2.7665793776.1340271101-5.5331587551.2900864548-8.3553090819h3.8157190951"/>
      <path class="cls-1" d="m417.9923115255,9.9156711059l3.7600317874.0253906591"/>
    </g>
    <text class="cls-6" transform="translate(422.1914335095 14.3359159312)"><tspan x="0" y="0">’</tspan></text>
  </g>
  <g>
    <path class="cls-1" d="m269.4376497113,5.485143975c-.9413270687-.7826628431-2.4544559685-.873449943-3.4938283578-.2096282373s-1.5081863765,2.0204272179-1.0824957498,3.1324144359,1.6770129562,1.5923151487,2.956798259,1.7636304903c-1.2022176891-.2368939941-2.4862736282-.5793285922-3.4973707999.0808833127s-1.5070376767,1.98008531-1.0718824128,3.0632302726,1.8175765535,1.7695586206,2.9895070948,1.4158818734c.4281489074-.1292105876.8068938078-.3742949982,1.2285012976-.5213193713s.9373110587-.1780241438,1.2832701071.092188275.3254349777.9066823864-.1029679423,1.0351470109"/>
    <text class="cls-6" transform="translate(269.4377561414 14.3359159312)"><tspan x="0" y="0">’</tspan></text>
  </g>
  <g>
    <path class="cls-3" d="m117.8309226117,65.9814326435c-.1096803755,2.7374339262-.0896146528,5.4811978536.0600876764,8.2163199935"/>
    <line class="cls-2" x1="109.5260719738" y1="70.0895926403" x2="114.5396875358" y2="70.0895926403"/>
    <line class="cls-2" x1="112.0328797548" y1="67.5827848592" x2="112.0328797548" y2="72.5964004213"/>
  </g>
  <g>
    <path class="cls-3" d="m117.8309226117,46.4108016911c-.1096803755,2.7374339262-.0896146528,5.4811978536.0600876764,8.2163199935"/>
    <line class="cls-2" x1="109.5260719738" y1="50.5189616879" x2="114.5396875358" y2="50.5189616879"/>
    <line class="cls-2" x1="112.0328797548" y1="48.0121539068" x2="112.0328797548" y2="53.0257694689"/>
  </g>
  <g>
    <path class="cls-3" d="m117.8309226117,264.5704444027c-.1096803755,2.7374339262-.0896146528,5.4811978536.0600876764,8.2163199935"/>
    <line class="cls-2" x1="109.5260719737" y1="268.6786043995" x2="114.5396875358" y2="268.6786043995"/>
    <line class="cls-2" x1="112.0328797548" y1="266.1717966184" x2="112.0328797548" y2="271.1854121805"/>
  </g>
  <path class="cls-2" d="m114.650417951,245.2401633159c-.4444392604-.2599423005-1.0129162001-.2032020217-1.4649039636.0420288961s-.803067479.6553845342-1.096395286,1.0912895723c-.6454758382.9592209969-1.0592963038,2.0882293101-1.1925721561,3.253642583-.1256600774,1.0988178261.0151100585,2.2759919841.6287119794,3.1766739238s1.7719475373,1.4392891481,2.7696362207,1.0766298971c.7769373039-.2824162334,1.3186546754-1.0298038104,1.6672066572-1.8103760491.5924118367-1.3266895015.7538039174-2.8598822652.4515885207-4.2900015205-.1360834448-.6439641413-.3706052298-1.2792538017-.7808362817-1.7794513979s-1.0147839375-.8512169885-.9824356905-.7604359048Z"/>
  <path class="cls-2" d="m114.650417951,85.8536394572c-.4444392604-.2599423005-1.0129162001-.2032020217-1.4649039636.0420288961s-.803067479.6553845342-1.096395286,1.0912895723c-.6454758382.9592209969-1.0592963038,2.0882293101-1.1925721561,3.253642583-.1256600774,1.0988178261.0151100585,2.2759919841.6287119794,3.1766739238s1.7719475373,1.4392891481,2.7696362207,1.0766298971c.7769373039-.2824162334,1.3186546754-1.0298038104,1.6672066572-1.8103760491.5924118367-1.3266895015.7538039174-2.8598822652.4515885207-4.2900015205-.1360834448-.6439641413-.3706052298-1.2792538017-.7808362817-1.7794513979s-1.0147839375-.8512169885-.9824356905-.7604359048Z"/>
  <g>
    <path class="cls-3" d="m117.8309226117,106.1391605257c-.1096803755,2.7374339262-.0896146528,5.4811978536.0600876764,8.2163199935"/>
    <line class="cls-2" x1="109.5260719738" y1="110.2473205225" x2="114.5396875358" y2="110.2473205225"/>
    <line class="cls-2" x1="112.0328797548" y1="107.7405127414" x2="112.0328797548" y2="112.7541283035"/>
  </g>
  <g>
    <path class="cls-3" d="m117.8309226117,145.8257011046c-.1096803755,2.7374339262-.0896146528,5.4811978536.0600876764,8.2163199935"/>
    <line class="cls-2" x1="109.5260719738" y1="149.9338611013" x2="114.5396875358" y2="149.9338611013"/>
    <line class="cls-2" x1="112.0328797548" y1="147.4270533203" x2="112.0328797548" y2="152.4406688824"/>
  </g>
  <path class="cls-2" d="m114.650417951,125.2560789288c-.4444392604-.2599423005-1.0129162001-.2032020217-1.4649039636.0420288961s-.803067479.6553845342-1.096395286,1.0912895723c-.6454758382.9592209969-1.0592963038,2.0882293101-1.1925721561,3.253642583-.1256600774,1.0988178261.0151100585,2.2759919841.6287119794,3.1766739238s1.7719475373,1.4392891481,2.7696362207,1.0766298971c.7769373039-.2824162334,1.3186546754-1.0298038104,1.6672066572-1.8103760491.5924118367-1.3266895015.7538039174-2.8598822652.4515885207-4.2900015205-.1360834448-.6439641413-.3706052298-1.2792538017-.7808362817-1.7794513979s-1.0147839375-.8512169885-.9824356905-.7604359048Z"/>
  <g>
    <path class="cls-3" d="m117.8309226117,165.921323784c-.1096803755,2.7374339262-.0896146528,5.4811978536.0600876764,8.2163199935"/>
    <line class="cls-2" x1="109.5260719737" y1="170.0294837807" x2="114.5396875358" y2="170.0294837807"/>
    <line class="cls-2" x1="112.0328797548" y1="167.5226759997" x2="112.0328797548" y2="172.5362915618"/>
  </g>
  <g>
    <path class="cls-3" d="m117.8309226117,185.4894813471c-.1096803755,2.7374339262-.0896146528,5.4811978536.0600876764,8.2163199935"/>
    <line class="cls-2" x1="109.5260719738" y1="189.5976413439" x2="114.5396875358" y2="189.5976413439"/>
    <line class="cls-2" x1="112.0328797548" y1="187.0908335628" x2="112.0328797548" y2="192.1044491249"/>
  </g>
  <g>
    <path class="cls-3" d="m117.8309226117,205.5724735173c-.1096803755,2.7374339262-.0896146528,5.4811978536.0600876764,8.2163199935"/>
    <line class="cls-2" x1="109.5260719738" y1="209.680633514" x2="114.5396875358" y2="209.680633514"/>
    <line class="cls-2" x1="112.0328797548" y1="207.173825733" x2="112.0328797548" y2="212.1874412951"/>
  </g>
  <g>
    <path class="cls-3" d="m117.8309226117,225.065256776c-.1096803755,2.7374339262-.0896146528,5.4811978536.0600876764,8.2163199935"/>
    <line class="cls-2" x1="109.5260719738" y1="229.1734167727" x2="114.5396875358" y2="229.1734167727"/>
    <line class="cls-2" x1="112.0328797548" y1="226.6666089917" x2="112.0328797548" y2="231.6802245538"/>
  </g>
  <g>
    <path class="cls-3" d="m194.5553243737,245.4241705424c-.1096803755,2.7374339262-.0896146528,5.4811978536.0600876764,8.2163199935"/>
    <line class="cls-2" x1="186.2504737358" y1="249.5323305391" x2="191.2640892979" y2="249.5323305391"/>
    <line class="cls-2" x1="188.7572815169" y1="247.0255227581" x2="188.7572815169" y2="252.0391383202"/>
  </g>
  <g>
    <path class="cls-3" d="m194.5553243737,125.4400861553c-.1096803755,2.7374339262-.0896146528,5.4811978536.0600876764,8.2163199935"/>
    <line class="cls-2" x1="186.2504737358" y1="129.548246152" x2="191.2640892979" y2="129.548246152"/>
    <line class="cls-2" x1="188.7572815169" y1="127.041438371" x2="188.7572815169" y2="132.0550539331"/>
  </g>
  <g>
    <path class="cls-3" d="m194.5553243737,86.0376466837c-.1096803755,2.7374339262-.0896146528,5.4811978536.0600876764,8.2163199935"/>
    <line class="cls-2" x1="186.2504737358" y1="90.1458066804" x2="191.2640892979" y2="90.1458066804"/>
    <line class="cls-2" x1="188.7572815169" y1="87.6389988994" x2="188.7572815169" y2="92.6526144615"/>
  </g>
  <path class="cls-2" d="m191.3748197131,46.2267944647c-.4444392604-.2599423005-1.0129162001-.2032020217-1.4649039636.0420288961s-.803067479.6553845342-1.096395286,1.0912895723c-.6454758382.9592209969-1.0592963038,2.0882293101-1.1925721561,3.253642583-.1256600774,1.0988178261.0151100585,2.2759919841.6287119794,3.1766739238s1.7719475373,1.4392891481,2.7696362207,1.0766298971c.7769373039-.2824162334,1.3186546754-1.0298038104,1.6672066572-1.8103760491.5924118367-1.3266895015.7538039174-2.8598822652.4515885207-4.2900015205-.1360834448-.6439641413-.3706052298-1.2792538017-.7808362817-1.7794513979s-1.0147839375-.8512169885-.9824356905-.7604359048Z"/>
  <path class="cls-2" d="m191.3748197131,65.7974254171c-.4444392604-.2599423005-1.0129162001-.2032020217-1.4649039636.0420288961s-.803067479.6553845342-1.096395286,1.0912895723c-.6454758382.9592209969-1.0592963038,2.0882293101-1.1925721561,3.253642583-.1256600774,1.0988178261.0151100585,2.2759919841.6287119794,3.1766739238s1.7719475373,1.4392891481,2.7696362207,1.0766298971c.7769373039-.2824162334,1.3186546754-1.0298038104,1.6672066572-1.8103760491.5924118367-1.3266895015.7538039174-2.8598822652.4515885207-4.2900015205-.1360834448-.6439641413-.3706052298-1.2792538017-.7808362817-1.7794513979s-1.0147839375-.8512169885-.9824356905-.7604359048Z"/>
  <path class="cls-2" d="m191.3748197131,105.9551532992c-.4444392604-.2599423005-1.0129162001-.2032020217-1.4649039636.0420288961s-.803067479.6553845342-1.096395286,1.0912895723c-.6454758382.9592209969-1.0592963038,2.0882293101-1.1925721561,3.253642583-.1256600774,1.0988178261.0151100585,2.2759919841.6287119794,3.1766739238s1.7719475373,1.4392891481,2.7696362207,1.0766298971c.7769373039-.2824162334,1.3186546754-1.0298038104,1.6672066572-1.8103760491.5924118367-1.3266895015.7538039174-2.8598822652.4515885207-4.2900015205-.1360834448-.6439641413-.3706052298-1.2792538017-.7808362817-1.7794513979s-1.0147839375-.8512169885-.9824356905-.7604359048Z"/>
  <path class="cls-2" d="m191.3748197131,145.6416938781c-.4444392604-.2599423005-1.0129162001-.2032020217-1.4649039636.0420288961s-.803067479.6553845342-1.096395286,1.0912895723c-.6454758382.9592209969-1.0592963038,2.0882293101-1.1925721561,3.253642583-.1256600774,1.0988178261.0151100585,2.2759919841.6287119794,3.1766739238s1.7719475373,1.4392891481,2.7696362207,1.0766298971c.7769373039-.2824162334,1.3186546754-1.0298038104,1.6672066572-1.8103760491.5924118367-1.3266895015.7538039174-2.8598822652.4515885207-4.2900015205-.1360834448-.6439641413-.3706052298-1.2792538017-.7808362817-1.7794513979s-1.0147839375-.8512169885-.9824356905-.7604359048Z"/>
  <path class="cls-2" d="m191.3748197131,185.3054741206c-.4444392604-.2599423005-1.0129162001-.2032020217-1.4649039636.0420288961s-.803067479.6553845342-1.096395286,1.0912895723c-.6454758382.9592209969-1.0592963038,2.0882293101-1.1925721561,3.253642583-.1256600774,1.0988178261.0151100585,2.2759919841.6287119794,3.1766739238s1.7719475373,1.4392891481,2.7696362207,1.0766298971c.7769373039-.2824162334,1.3186546754-1.0298038104,1.6672066572-1.8103760491.5924118367-1.3266895015.7538039174-2.8598822652.4515885207-4.2900015205-.1360834448-.6439641413-.3706052298-1.2792538017-.7808362817-1.7794513979s-1.0147839375-.8512169885-.9824356905-.7604359048Z"/>
  <path class="cls-2" d="m191.3748197131,165.7373165575c-.4444392604-.2599423005-1.0129162001-.2032020217-1.4649039636.0420288961s-.803067479.6553845342-1.096395286,1.0912895723c-.6454758382.9592209969-1.0592963038,2.0882293101-1.1925721561,3.253642583-.1256600774,1.0988178261.0151100585,2.2759919841.6287119794,3.1766739238s1.7719475373,1.4392891481,2.7696362207,1.0766298971c.7769373039-.2824162334,1.3186546754-1.0298038104,1.6672066572-1.8103760491.5924118367-1.3266895015.7538039174-2.8598822652.4515885207-4.2900015205-.1360834448-.6439641413-.3706052298-1.2792538017-.7808362817-1.7794513979s-1.0147839375-.8512169885-.9824356905-.7604359048Z"/>
  <path class="cls-2" d="m191.3748197131,205.3884662908c-.4444392604-.2599423005-1.0129162001-.2032020217-1.4649039636.0420288961s-.803067479.6553845342-1.096395286,1.0912895723c-.6454758382.9592209969-1.0592963038,2.0882293101-1.1925721561,3.253642583-.1256600774,1.0988178261.0151100585,2.2759919841.6287119794,3.1766739238s1.7719475373,1.4392891481,2.7696362207,1.0766298971c.7769373039-.2824162334,1.3186546754-1.0298038104,1.6672066572-1.8103760491.5924118367-1.3266895015.7538039174-2.8598822652.4515885207-4.2900015205-.1360834448-.6439641413-.3706052298-1.2792538017-.7808362817-1.7794513979s-1.0147839375-.8512169885-.9824356905-.7604359048Z"/>
  <path class="cls-2" d="m191.3748197131,224.8812495495c-.4444392604-.2599423005-1.0129162001-.2032020217-1.4649039636.0420288961s-.803067479.6553845342-1.096395286,1.0912895723c-.6454758382.9592209969-1.0592963038,2.0882293101-1.1925721561,3.253642583-.1256600774,1.0988178261.0151100585,2.2759919841.6287119794,3.1766739238s1.7719475373,1.4392891481,2.7696362207,1.0766298971c.7769373039-.2824162334,1.3186546754-1.0298038104,1.6672066572-1.8103760491.5924118367-1.3266895015.7538039174-2.8598822652.4515885207-4.2900015205-.1360834448-.6439641413-.3706052298-1.2792538017-.7808362817-1.7794513979s-1.0147839375-.8512169885-.9824356905-.7604359048Z"/>
  <path class="cls-2" d="m191.3748197131,264.3864371762c-.4444392604-.2599423005-1.0129162001-.2032020217-1.4649039636.0420288961s-.803067479.6553845342-1.096395286,1.0912895723c-.6454758382.9592209969-1.0592963038,2.0882293101-1.1925721561,3.253642583-.1256600774,1.0988178261.0151100585,2.2759919841.6287119794,3.1766739238s1.7719475373,1.4392891481,2.7696362207,1.0766298971c.7769373039-.2824162334,1.3186546754-1.0298038104,1.6672066572-1.8103760491.5924118367-1.3266895015.7538039174-2.8598822652.4515885207-4.2900015205-.1360834448-.6439641413-.3706052298-1.2792538017-.7808362817-1.7794513979s-1.0147839375-.8512169885-.9824356905-.7604359048Z"/>
  <g>
    <line class="cls-2" x1="338.3816483727" y1="70.0895926403" x2="343.3952639348" y2="70.0895926403"/>
    <path class="cls-3" d="m346.6864990106,65.9814326435c-.1096803755,2.7374339262-.0896146528,5.4811978536.0600876764,8.2163199935"/>
  </g>
  <g>
    <line class="cls-2" x1="338.3816483727" y1="50.5189616879" x2="343.3952639348" y2="50.5189616879"/>
    <path class="cls-3" d="m346.6864990106,46.4108016911c-.1096803755,2.7374339262-.0896146528,5.4811978536.0600876764,8.2163199935"/>
  </g>
  <g>
    <line class="cls-2" x1="338.3816483727" y1="90.1458066804" x2="343.3952639348" y2="90.1458066804"/>
    <path class="cls-3" d="m346.6864990106,86.0376466837c-.1096803755,2.7374339262-.0896146528,5.4811978536.0600876764,8.2163199935"/>
  </g>
  <g>
    <line class="cls-2" x1="338.3816483727" y1="110.2473205225" x2="343.3952639348" y2="110.2473205225"/>
    <path class="cls-3" d="m346.6864990106,106.1391605257c-.1096803755,2.7374339262-.0896146528,5.4811978536.0600876764,8.2163199935"/>
  </g>
  <g>
    <line class="cls-2" x1="338.3816483727" y1="129.548246152" x2="343.3952639348" y2="129.548246152"/>
    <path class="cls-3" d="m346.6864990106,125.4400861553c-.1096803755,2.7374339262-.0896146528,5.4811978536.0600876764,8.2163199935"/>
  </g>
  <g>
    <line class="cls-2" x1="338.3816483727" y1="149.9338611013" x2="343.3952639348" y2="149.9338611013"/>
    <path class="cls-3" d="m346.6864990106,145.8257011046c-.1096803755,2.7374339262-.0896146528,5.4811978536.0600876764,8.2163199935"/>
  </g>
  <g>
    <line class="cls-2" x1="338.3816483727" y1="170.0294837807" x2="343.3952639348" y2="170.0294837807"/>
    <path class="cls-3" d="m346.6864990106,165.921323784c-.1096803755,2.7374339262-.0896146528,5.4811978536.0600876764,8.2163199935"/>
  </g>
  <g>
    <line class="cls-2" x1="338.3816483727" y1="189.5976413439" x2="343.3952639348" y2="189.5976413439"/>
    <path class="cls-3" d="m346.6864990106,185.4894813471c-.1096803755,2.7374339262-.0896146528,5.4811978536.0600876764,8.2163199935"/>
  </g>
  <g>
    <line class="cls-2" x1="338.3816483727" y1="209.680633514" x2="343.3952639348" y2="209.680633514"/>
    <path class="cls-3" d="m346.6864990106,205.5724735173c-.1096803755,2.7374339262-.0896146528,5.4811978536.0600876764,8.2163199935"/>
  </g>
  <g>
    <line class="cls-2" x1="338.3816483727" y1="229.1734167727" x2="343.3952639348" y2="229.1734167727"/>
    <path class="cls-3" d="m346.6864990106,225.065256776c-.1096803755,2.7374339262-.0896146528,5.4811978536.0600876764,8.2163199935"/>
  </g>
  <g>
    <line class="cls-2" x1="338.3816483727" y1="249.5323305391" x2="343.3952639348" y2="249.5323305391"/>
    <path class="cls-3" d="m346.6864990106,245.4241705424c-.1096803755,2.7374339262-.0896146528,5.4811978536.0600876764,8.2163199935"/>
  </g>
  <g>
    <line class="cls-2" x1="338.3816483727" y1="268.6786043995" x2="343.3952639348" y2="268.6786043995"/>
    <path class="cls-3" d="m346.6864990106,264.5704444027c-.1096803755,2.7374339262-.0896146528,5.4811978536.0600876764,8.2163199935"/>
  </g>
  <g>
    <path class="cls-3" d="m270.9490870444,46.4108016911c-.1096803755,2.7374339262-.0896146528,5.4811978536.0600876764,8.2163199935"/>
    <line class="cls-2" x1="262.6442364065" y1="50.5189616879" x2="267.6578519686" y2="50.5189616879"/>
    <line class="cls-2" x1="265.1510441876" y1="48.0121539068" x2="265.1510441876" y2="53.0257694689"/>
  </g>
  <g>
    <path class="cls-3" d="m270.9490870444,65.9814326435c-.1096803755,2.7374339262-.0896146528,5.4811978536.0600876764,8.2163199935"/>
    <line class="cls-2" x1="262.6442364065" y1="70.0895926403" x2="267.6578519686" y2="70.0895926403"/>
    <line class="cls-2" x1="265.1510441876" y1="67.5827848592" x2="265.1510441876" y2="72.5964004213"/>
  </g>
  <g>
    <path class="cls-3" d="m270.9490870444,86.0376466837c-.1096803755,2.7374339262-.0896146528,5.4811978536.0600876764,8.2163199935"/>
    <line class="cls-2" x1="262.6442364065" y1="90.1458066804" x2="267.6578519686" y2="90.1458066804"/>
    <line class="cls-2" x1="265.1510441876" y1="87.6389988994" x2="265.1510441876" y2="92.6526144615"/>
  </g>
  <g>
    <path class="cls-3" d="m270.9490870444,106.1391605257c-.1096803755,2.7374339262-.0896146528,5.4811978536.0600876764,8.2163199935"/>
    <line class="cls-2" x1="262.6442364065" y1="110.2473205225" x2="267.6578519686" y2="110.2473205225"/>
    <line class="cls-2" x1="265.1510441876" y1="107.7405127414" x2="265.1510441876" y2="112.7541283035"/>
  </g>
  <g>
    <path class="cls-3" d="m270.9490870444,125.4400861553c-.1096803755,2.7374339262-.0896146528,5.4811978536.0600876764,8.2163199935"/>
    <line class="cls-2" x1="262.6442364065" y1="129.548246152" x2="267.6578519686" y2="129.548246152"/>
    <line class="cls-2" x1="265.1510441876" y1="127.041438371" x2="265.1510441876" y2="132.0550539331"/>
  </g>
  <g>
    <path class="cls-3" d="m270.9490870444,145.8257011046c-.1096803755,2.7374339262-.0896146528,5.4811978536.0600876764,8.2163199935"/>
    <line class="cls-2" x1="262.6442364065" y1="149.9338611013" x2="267.6578519686" y2="149.9338611013"/>
    <line class="cls-2" x1="265.1510441876" y1="147.4270533203" x2="265.1510441876" y2="152.4406688824"/>
  </g>
  <g>
    <path class="cls-3" d="m270.9490870444,165.921323784c-.1096803755,2.7374339262-.0896146528,5.4811978536.0600876764,8.2163199935"/>
    <line class="cls-2" x1="262.6442364065" y1="170.0294837807" x2="267.6578519686" y2="170.0294837807"/>
    <line class="cls-2" x1="265.1510441876" y1="167.5226759997" x2="265.1510441876" y2="172.5362915618"/>
  </g>
  <g>
    <path class="cls-3" d="m270.9490870444,185.4894813471c-.1096803755,2.7374339262-.0896146528,5.4811978536.0600876764,8.2163199935"/>
    <line class="cls-2" x1="262.6442364065" y1="189.5976413439" x2="267.6578519686" y2="189.5976413439"/>
    <line class="cls-2" x1="265.1510441876" y1="187.0908335628" x2="265.1510441876" y2="192.1044491249"/>
  </g>
  <g>
    <path class="cls-3" d="m270.9490870444,205.5724735173c-.1096803755,2.7374339262-.0896146528,5.4811978536.0600876764,8.2163199935"/>
    <line class="cls-2" x1="262.6442364065" y1="209.680633514" x2="267.6578519686" y2="209.680633514"/>
    <line class="cls-2" x1="265.1510441876" y1="207.173825733" x2="265.1510441876" y2="212.1874412951"/>
  </g>
  <g>
    <path class="cls-3" d="m270.9490870444,225.065256776c-.1096803755,2.7374339262-.0896146528,5.4811978536.0600876764,8.2163199935"/>
    <line class="cls-2" x1="262.6442364065" y1="229.1734167727" x2="267.6578519686" y2="229.1734167727"/>
    <line class="cls-2" x1="265.1510441876" y1="226.6666089917" x2="265.1510441876" y2="231.6802245538"/>
  </g>
  <g>
    <path class="cls-3" d="m270.9490870444,245.4241705424c-.1096803755,2.7374339262-.0896146528,5.4811978536.0600876764,8.2163199935"/>
    <line class="cls-2" x1="262.6442364065" y1="249.5323305391" x2="267.6578519686" y2="249.5323305391"/>
    <line class="cls-2" x1="265.1510441876" y1="247.0255227581" x2="265.1510441876" y2="252.0391383202"/>
  </g>
  <g>
    <path class="cls-3" d="m270.9490870444,264.5704444027c-.1096803755,2.7374339262-.0896146528,5.4811978536.0600876764,8.2163199935"/>
    <line class="cls-2" x1="262.6442364065" y1="268.6786043995" x2="267.6578519686" y2="268.6786043995"/>
    <line class="cls-2" x1="265.1510441876" y1="266.1717966184" x2="265.1510441876" y2="271.1854121805"/>
  </g>
  <g>
    <path class="cls-3" d="m117.8309226117,26.2835801077c-.1096803755,2.7374339262-.0896146528,5.4811978536.0600876764,8.2163199935"/>
    <line class="cls-2" x1="109.5260719738" y1="30.3917401045" x2="114.5396875358" y2="30.3917401045"/>
    <line class="cls-2" x1="112.0328797548" y1="27.8849323234" x2="112.0328797548" y2="32.8985478855"/>
  </g>
  <path class="cls-2" d="m191.3748197131,26.0995728812c-.4444392604-.2599423005-1.0129162001-.2032020217-1.4649039636.0420288961s-.803067479.6553845342-1.096395286,1.0912895723c-.6454758382.9592209969-1.0592963038,2.0882293101-1.1925721561,3.253642583-.1256600774,1.0988178261.0151100585,2.2759919841.6287119794,3.1766739238s1.7719475373,1.4392891481,2.7696362207,1.0766298971c.7769373039-.2824162334,1.3186546754-1.0298038104,1.6672066572-1.8103760491.5924118367-1.3266895015.7538039174-2.8598822652.4515885207-4.2900015205-.1360834448-.6439641413-.3706052298-1.2792538017-.7808362817-1.7794513979s-1.0147839375-.8512169885-.9824356905-.7604359048Z"/>
  <g>
    <line class="cls-2" x1="338.3816483727" y1="30.3917401045" x2="343.3952639348" y2="30.3917401045"/>
    <path class="cls-3" d="m346.6864990106,26.2835801077c-.1096803755,2.7374339262-.0896146528,5.4811978536.0600876764,8.2163199935"/>
  </g>
  <g>
    <path class="cls-3" d="m270.9490870444,26.2835801077c-.1096803755,2.7374339262-.0896146528,5.4811978536.0600876764,8.2163199935"/>
    <line class="cls-2" x1="262.6442364065" y1="30.3917401045" x2="267.6578519686" y2="30.3917401045"/>
    <line class="cls-2" x1="265.1510441876" y1="27.8849323234" x2="265.1510441876" y2="32.8985478855"/>
  </g>
  <g>
    <g>
      <line class="cls-2" x1="412.1976817523" y1="30.3917401045" x2="417.2112973144" y2="30.3917401045"/>
      <line class="cls-2" x1="414.7044895334" y1="27.8849323234" x2="414.7044895334" y2="32.8985478855"/>
    </g>
    <g>
      <path class="cls-3" d="m419.024494887,28.1078522799c.4244493626-.8386897197,1.3249201057-1.4459262636,2.303348125-1.5532732912.5003297929-.0548931505,1.0669201878.0418628396,1.3744813797.4182384321.2139450718.2618137224.2639444252.6198031306.1952523109.9439866569s-.244553483.6196034489-.4460731506.8900515574c-.6475305471.8690138079-1.5927901617,1.5371779216-2.6586680646,1.8793001942"/>
      <path class="cls-3" d="m418.7111972342,33.456048638c.1526737102.3409818903.494066154.5860149096.8678233818.6985125505s.7775593228.1051216947,1.165196769.0481376848c.7783529894-.114420655,1.5518297404-.4498341006,2.0141993435-1.0515947662s.5352370278-1.4956568859.0400546496-2.0737088112c-.3380680883-.3946443447-.884254517-.5931948228-1.4211373021-.6228731686s-1.0701765035.0918044756-1.5838632611.2420561047"/>
    </g>
  </g>
  <g>
    <g>
      <line class="cls-2" x1="412.1976817523" y1="50.5189616879" x2="417.2112973144" y2="50.5189616879"/>
      <line class="cls-2" x1="414.7044895334" y1="48.0121539068" x2="414.7044895334" y2="53.0257694689"/>
    </g>
    <g>
      <path class="cls-3" d="m419.024494887,48.2350738634c.4244493626-.8386897197,1.3249201057-1.4459262636,2.303348125-1.5532732912.5003297929-.0548931505,1.0669201878.0418628396,1.3744813797.4182384321.2139450718.2618137224.2639444252.6198031306.1952523109.9439866569s-.244553483.6196034489-.4460731506.8900515574c-.6475305471.8690138079-1.5927901617,1.5371779216-2.6586680646,1.8793001942"/>
      <path class="cls-3" d="m418.7111972342,53.5832702214c.1526737102.3409818903.494066154.5860149096.8678233818.6985125505s.7775593228.1051216947,1.165196769.0481376848c.7783529894-.114420655,1.5518297404-.4498341006,2.0141993435-1.0515947662s.5352370278-1.4956568859.0400546496-2.0737088112c-.3380680883-.3946443447-.884254517-.5931948228-1.4211373021-.6228731686s-1.0701765035.0918044756-1.5838632611.2420561047"/>
    </g>
  </g>
  <g>
    <g>
      <line class="cls-2" x1="412.1976817523" y1="70.0895926403" x2="417.2112973144" y2="70.0895926403"/>
      <line class="cls-2" x1="414.7044895334" y1="67.5827848592" x2="414.7044895334" y2="72.5964004213"/>
    </g>
    <g>
      <path class="cls-3" d="m419.024494887,67.8057048158c.4244493626-.8386897197,1.3249201057-1.4459262636,2.303348125-1.5532732912.5003297929-.0548931505,1.0669201878.0418628396,1.3744813797.4182384321.2139450718.2618137224.2639444252.6198031306.1952523109.9439866569s-.244553483.6196034489-.4460731506.8900515574c-.6475305471.8690138079-1.5927901617,1.5371779216-2.6586680646,1.8793001942"/>
      <path class="cls-3" d="m418.7111972342,73.1539011738c.1526737102.3409818903.494066154.5860149096.8678233818.6985125505s.7775593228.1051216947,1.165196769.0481376848c.7783529894-.114420655,1.5518297404-.4498341006,2.0141993435-1.0515947662s.5352370278-1.4956568859.0400546496-2.0737088112c-.3380680883-.3946443447-.884254517-.5931948228-1.4211373021-.6228731686s-1.0701765035.0918044756-1.5838632611.2420561047"/>
    </g>
  </g>
  <g>
    <g>
      <line class="cls-2" x1="412.1976817523" y1="90.1458066804" x2="417.2112973144" y2="90.1458066804"/>
      <line class="cls-2" x1="414.7044895334" y1="87.6389988994" x2="414.7044895334" y2="92.6526144615"/>
    </g>
    <g>
      <path class="cls-3" d="m419.024494887,87.8619188559c.4244493626-.8386897197,1.3249201057-1.4459262636,2.303348125-1.5532732912.5003297929-.0548931505,1.0669201878.0418628396,1.3744813797.4182384321.2139450718.2618137224.2639444252.6198031306.1952523109.9439866569s-.244553483.6196034489-.4460731506.8900515574c-.6475305471.8690138079-1.5927901617,1.5371779216-2.6586680646,1.8793001942"/>
      <path class="cls-3" d="m418.7111972342,93.210115214c.1526737102.3409818903.494066154.5860149096.8678233818.6985125505s.7775593228.1051216947,1.165196769.0481376848c.7783529894-.114420655,1.5518297404-.4498341006,2.0141993435-1.0515947662s.5352370278-1.4956568859.0400546496-2.0737088112c-.3380680883-.3946443447-.884254517-.5931948228-1.4211373021-.6228731686s-1.0701765035.0918044756-1.5838632611.2420561047"/>
    </g>
  </g>
  <g>
    <g>
      <line class="cls-2" x1="412.1976817523" y1="110.2473205225" x2="417.2112973144" y2="110.2473205225"/>
      <line class="cls-2" x1="414.7044895334" y1="107.7405127414" x2="414.7044895334" y2="112.7541283035"/>
    </g>
    <g>
      <path class="cls-3" d="m419.024494887,107.9634326979c.4244493626-.8386897197,1.3249201057-1.4459262636,2.303348125-1.5532732912.5003297929-.0548931505,1.0669201878.0418628396,1.3744813797.4182384321.2139450718.2618137224.2639444252.6198031306.1952523109.9439866569s-.244553483.6196034489-.4460731506.8900515574c-.6475305471.8690138079-1.5927901617,1.5371779216-2.6586680646,1.8793001942"/>
      <path class="cls-3" d="m418.7111972342,113.311629056c.1526737102.3409818903.494066154.5860149096.8678233818.6985125505s.7775593228.1051216947,1.165196769.0481376848c.7783529894-.114420655,1.5518297404-.4498341006,2.0141993435-1.0515947662s.5352370278-1.4956568859.0400546496-2.0737088112c-.3380680883-.3946443447-.884254517-.5931948228-1.4211373021-.6228731686s-1.0701765035.0918044756-1.5838632611.2420561047"/>
    </g>
  </g>
  <g>
    <g>
      <line class="cls-2" x1="412.1976817523" y1="129.548246152" x2="417.2112973144" y2="129.548246152"/>
      <line class="cls-2" x1="414.7044895334" y1="127.041438371" x2="414.7044895334" y2="132.0550539331"/>
    </g>
    <g>
      <path class="cls-3" d="m419.024494887,127.2643583275c.4244493626-.8386897197,1.3249201057-1.4459262636,2.303348125-1.5532732912.5003297929-.0548931505,1.0669201878.0418628396,1.3744813797.4182384321.2139450718.2618137224.2639444252.6198031306.1952523109.9439866569s-.244553483.6196034489-.4460731506.8900515574c-.6475305471.8690138079-1.5927901617,1.5371779216-2.6586680646,1.8793001942"/>
      <path class="cls-3" d="m418.7111972342,132.6125546856c.1526737102.3409818903.494066154.5860149096.8678233818.6985125505s.7775593228.1051216947,1.165196769.0481376848c.7783529894-.114420655,1.5518297404-.4498341006,2.0141993435-1.0515947662s.5352370278-1.4956568859.0400546496-2.0737088112c-.3380680883-.3946443447-.884254517-.5931948228-1.4211373021-.6228731686s-1.0701765035.0918044756-1.5838632611.2420561047"/>
    </g>
  </g>
  <g>
    <g>
      <line class="cls-2" x1="412.1976817523" y1="149.9338611013" x2="417.2112973144" y2="149.9338611013"/>
      <line class="cls-2" x1="414.7044895334" y1="147.4270533203" x2="414.7044895334" y2="152.4406688824"/>
    </g>
    <g>
      <path class="cls-3" d="m419.024494887,147.6499732768c.4244493626-.8386897197,1.3249201057-1.4459262636,2.303348125-1.5532732912.5003297929-.0548931505,1.0669201878.0418628396,1.3744813797.4182384321.2139450718.2618137224.2639444252.6198031306.1952523109.9439866569s-.244553483.6196034489-.4460731506.8900515574c-.6475305471.8690138079-1.5927901617,1.5371779216-2.6586680646,1.8793001942"/>
      <path class="cls-3" d="m418.7111972342,152.9981696349c.1526737102.3409818903.494066154.5860149096.8678233818.6985125505s.7775593228.1051216947,1.165196769.0481376848c.7783529894-.114420655,1.5518297404-.4498341006,2.0141993435-1.0515947662s.5352370278-1.4956568859.0400546496-2.0737088112c-.3380680883-.3946443447-.884254517-.5931948228-1.4211373021-.6228731686s-1.0701765035.0918044756-1.5838632611.2420561047"/>
    </g>
  </g>
  <g>
    <g>
      <line class="cls-2" x1="412.1976817523" y1="170.0294837807" x2="417.2112973144" y2="170.0294837807"/>
      <line class="cls-2" x1="414.7044895334" y1="167.5226759997" x2="414.7044895334" y2="172.5362915618"/>
    </g>
    <g>
      <path class="cls-3" d="m419.024494887,167.7455959562c.4244493626-.8386897197,1.3249201057-1.4459262636,2.303348125-1.5532732912.5003297929-.0548931505,1.0669201878.0418628396,1.3744813797.4182384321.2139450718.2618137224.2639444252.6198031306.1952523109.9439866569s-.244553483.6196034489-.4460731506.8900515574c-.6475305471.8690138079-1.5927901617,1.5371779216-2.6586680646,1.8793001942"/>
      <path class="cls-3" d="m418.7111972342,173.0937923143c.1526737102.3409818903.494066154.5860149096.8678233818.6985125505s.7775593228.1051216947,1.165196769.0481376848c.7783529894-.114420655,1.5518297404-.4498341006,2.0141993435-1.0515947662s.5352370278-1.4956568859.0400546496-2.0737088112c-.3380680883-.3946443447-.884254517-.5931948228-1.4211373021-.6228731686s-1.0701765035.0918044756-1.5838632611.2420561047"/>
    </g>
  </g>
  <g>
    <g>
      <line class="cls-2" x1="412.1976817523" y1="189.5976413439" x2="417.2112973144" y2="189.5976413439"/>
      <line class="cls-2" x1="414.7044895334" y1="187.0908335628" x2="414.7044895334" y2="192.1044491249"/>
    </g>
    <g>
      <path class="cls-3" d="m419.024494887,187.3137535193c.4244493626-.8386897197,1.3249201057-1.4459262636,2.303348125-1.5532732912.5003297929-.0548931505,1.0669201878.0418628396,1.3744813797.4182384321.2139450718.2618137224.2639444252.6198031306.1952523109.9439866569s-.244553483.6196034489-.4460731506.8900515574c-.6475305471.8690138079-1.5927901617,1.5371779216-2.6586680646,1.8793001942"/>
      <path class="cls-3" d="m418.7111972342,192.6619498774c.1526737102.3409818903.494066154.5860149096.8678233818.6985125505s.7775593228.1051216947,1.165196769.0481376848c.7783529894-.114420655,1.5518297404-.4498341006,2.0141993435-1.0515947662s.5352370278-1.4956568859.0400546496-2.0737088112c-.3380680883-.3946443447-.884254517-.5931948228-1.4211373021-.6228731686s-1.0701765035.0918044756-1.5838632611.2420561047"/>
    </g>
  </g>
  <g>
    <g>
      <line class="cls-2" x1="412.1976817523" y1="209.680633514" x2="417.2112973144" y2="209.680633514"/>
      <line class="cls-2" x1="414.7044895334" y1="207.173825733" x2="414.7044895334" y2="212.1874412951"/>
    </g>
    <g>
      <path class="cls-3" d="m419.024494887,207.3967456895c.4244493626-.8386897197,1.3249201057-1.4459262636,2.303348125-1.5532732912.5003297929-.0548931505,1.0669201878.0418628396,1.3744813797.4182384321.2139450718.2618137224.2639444252.6198031306.1952523109.9439866569s-.244553483.6196034489-.4460731506.8900515574c-.6475305471.8690138079-1.5927901617,1.5371779216-2.6586680646,1.8793001942"/>
      <path class="cls-3" d="m418.7111972342,212.7449420476c.1526737102.3409818903.494066154.5860149096.8678233818.6985125505s.7775593228.1051216947,1.165196769.0481376848c.7783529894-.114420655,1.5518297404-.4498341006,2.0141993435-1.0515947662s.5352370278-1.4956568859.0400546496-2.0737088112c-.3380680883-.3946443447-.884254517-.5931948228-1.4211373021-.6228731686s-1.0701765035.0918044756-1.5838632611.2420561047"/>
    </g>
  </g>
  <g>
    <g>
      <line class="cls-2" x1="412.1976817523" y1="229.1734167727" x2="417.2112973144" y2="229.1734167727"/>
      <line class="cls-2" x1="414.7044895334" y1="226.6666089917" x2="414.7044895334" y2="231.6802245538"/>
    </g>
    <g>
      <path class="cls-3" d="m419.024494887,226.8895289482c.4244493626-.8386897197,1.3249201057-1.4459262636,2.303348125-1.5532732912.5003297929-.0548931505,1.0669201878.0418628396,1.3744813797.4182384321.2139450718.2618137224.2639444252.6198031306.1952523109.9439866569s-.244553483.6196034489-.4460731506.8900515574c-.6475305471.8690138079-1.5927901617,1.5371779216-2.6586680646,1.8793001942"/>
      <path class="cls-3" d="m418.7111972342,232.2377253063c.1526737102.3409818903.494066154.5860149096.8678233818.6985125505s.7775593228.1051216947,1.165196769.0481376848c.7783529894-.114420655,1.5518297404-.4498341006,2.0141993435-1.0515947662s.5352370278-1.4956568859.0400546496-2.0737088112c-.3380680883-.3946443447-.884254517-.5931948228-1.4211373021-.6228731686s-1.0701765035.0918044756-1.5838632611.2420561047"/>
    </g>
  </g>
  <g>
    <g>
      <line class="cls-2" x1="412.1976817523" y1="249.5323305391" x2="417.2112973144" y2="249.5323305391"/>
      <line class="cls-2" x1="414.7044895334" y1="247.0255227581" x2="414.7044895334" y2="252.0391383202"/>
    </g>
    <g>
      <path class="cls-3" d="m419.024494887,247.2484427146c.4244493626-.8386897197,1.3249201057-1.4459262636,2.303348125-1.5532732912.5003297929-.0548931505,1.0669201878.0418628396,1.3744813797.4182384321.2139450718.2618137224.2639444252.6198031306.1952523109.9439866569s-.244553483.6196034489-.4460731506.8900515574c-.6475305471.8690138079-1.5927901617,1.5371779216-2.6586680646,1.8793001942"/>
      <path class="cls-3" d="m418.7111972342,252.5966390727c.1526737102.3409818903.494066154.5860149096.8678233818.6985125505s.7775593228.1051216947,1.165196769.0481376848c.7783529894-.114420655,1.5518297404-.4498341006,2.0141993435-1.0515947662s.5352370278-1.4956568859.0400546496-2.0737088112c-.3380680883-.3946443447-.884254517-.5931948228-1.4211373021-.6228731686s-1.0701765035.0918044756-1.5838632611.2420561047"/>
    </g>
  </g>
  <g>
    <g>
      <line class="cls-2" x1="412.1976817523" y1="268.6786043995" x2="417.2112973144" y2="268.6786043995"/>
      <line class="cls-2" x1="414.7044895334" y1="266.1717966184" x2="414.7044895334" y2="271.1854121805"/>
    </g>
    <g>
      <path class="cls-3" d="m419.024494887,266.3947165749c.4244493626-.8386897197,1.3249201057-1.4459262636,2.303348125-1.5532732912.5003297929-.0548931505,1.0669201878.0418628396,1.3744813797.4182384321.2139450718.2618137224.2639444252.6198031306.1952523109.9439866569s-.244553483.6196034489-.4460731506.8900515574c-.6475305471.8690138079-1.5927901617,1.5371779216-2.6586680646,1.8793001942"/>
      <path class="cls-3" d="m418.7111972342,271.742912933c.1526737102.3409818903.494066154.5860149096.8678233818.6985125505s.7775593228.1051216947,1.165196769.0481376848c.7783529894-.114420655,1.5518297404-.4498341006,2.0141993435-1.0515947662s.5352370278-1.4956568859.0400546496-2.0737088112c-.3380680883-.3946443447-.884254517-.5931948228-1.4211373021-.6228731686s-1.0701765035.0918044756-1.5838632611.2420561047"/>
    </g>
  </g>
  <g>
    <rect class="cls-5" x="230.4799652334" y=".5568497091" width="75.5952380952" height="19.8289034733"/>
    <rect class="cls-5" x="382.5907941855" y=".5" width="75.5952380952" height="19.8289034733" rx=".6169813844" ry=".6169813844"/>
    <rect class="cls-4" x=".5" y=".5568497091" width="458.362804993" height="19.5653440431" rx=".9149500313" ry=".9149500313"/>
  </g>
  <g>
    <path class="cls-1" d="m10.8653821514,4.9473915382c-.1867908846,2.9786435532-.3735817691,5.9572871064-.5899438183,9.0123955719,1.645677109-.1010790788,3.2913542179-.2021581576,4.9370313269-.3032372364"/>
    <path class="cls-1" d="m17.0713760159,13.561568147c-.0321807637-2.8978693602-.0643615274-5.7957387204-.0920195738-8.8517810369,1.7633845706.0450441956,3.4679909655.9020525886,4.354140544,2.1890889309s.9240799473,2.9608739793.0968869749,4.2755467427-2.4917270213,2.2260257966-4.359007945,2.3871453633Z"/>
    <path class="cls-1" d="m31.9838425696,5.7189373258c-.2575334627-.572371425-.9657860567-.8437784495-1.5853136001-.7431894069s-1.1522754841.5007773483-1.5770739245.9628150281c-.5714550878.6215507311-1.0037266255,1.5450109316-.6129972955,2.2934872634.2838714623.5437811215.9091115938.8084058093,1.5012427019.9685985162s1.2252610945.2697913167,1.7053786427.6515871946c.6920069579.550292812.8798422326,1.6035931758.5125626911,2.4078328497s-1.2118002276,1.3376309626-2.090345018,1.4369021372c-.551587748.0623267738-1.1363662291-.0387319446-1.5865652545-.363469326s-.7395641425-.893296537-.6511866124-1.441313819"/>
    <path class="cls-1" d="m37.7522355717,8.6056997618c.2523353224,1.6737007353.3465690725,3.3712017841.2810383599,5.0625482868.0854473625-1.4730752579.1892171999-3.0091385606.9361257437-4.2816870251.183845942-.3132289555.4109207588-.6111896449.7167813492-.8070492843s.7016710456-.2766133512,1.0394522237-.1431383542"/>
    <path class="cls-1" d="m43.8417812181,8.9576434922c-.2318368557-.2464864231-.6218385457-.2946195291-.9424432836-.1863768088s-.5808132878.347226612-.7962077034.6082038719c-.7912178496.9586596567-1.0779496382,2.3116500233-.7436096811,3.5088428816.1142726987.4091837006.3461878897.8435605924.7570371959.9516918659.4842877444.1274595779.9518816442-.2614016617,1.2349714819-.6744884598.7766677474-1.1333193133.8952291414-2.5773104694.9893358493-3.9479924903-.1358022753,1.0690348907-.1351169458,2.1553330609.002034096,3.22419575.0360376582.2808560007.0834388091.5666054739.2172517272.8161508553s.3697929131.4602887918.6509728306.4937050816.5913110815-.156962917.6288807324-.4376180715"/>
    <path class="cls-1" d="m51.7286410902,12.3035745383c1.1119208122-.3909313436,2.0979184969-1.1318283867,2.7828109013-2.0910559939.2626411826-.367842526.4844811867-.8618156927.2603101055-1.2542896883-.1501807019-.2629329991-.4706292385-.394463184-.7733597199-.3879663566s-.5907838073.1299677778-.8559534678.2761628675c-.8132315786.4483566083-1.5133289301,1.1708401334-1.7517224204,2.0683575733s.0729473952,1.964022063.8621015598,2.4535164099c.8549373698.5302984139,1.993516266.2763092877,2.8585122129-.2374183274"/>
    <path class="cls-1" d="m59.2845433703,9.0013407428c-.221889544-.4049951418-.9757023322-.7384939252-1.4156252304-.5980521997s-.7719853208.519882613-.9587111463.9422444256-.2471894826.8882577068-.2950496345,1.3475674503c-.0587108773.563443961-.0979599421,1.1534739005.1181909172,1.6771100603s.7659324623.9531608614,1.3218005167.8439513019c.5622084463-.1104552444.8950088346-.6905733106,1.0769734715-1.2338665137.3055034133-.9121438454.397156856-1.8951599556.2655444267-2.8480591501.2002957057,1.8138381949.4007548839,3.6436772962.2194347414,5.4595105499-.0653726867.6546766915-.1954306243,1.3384621649-.6186025959,1.8422484585-.4759328261.5665980996-1.3046701166.8078469412-2.0103492671.5852209958-.5264588447-.1660862012-1.0063514874-.6914305558-.8628511551-1.224488723"/>
    <path class="cls-1" d="m61.4006094528,8.8326833286c.1771307327.6979094499-.0370025853,1.4266733291-.1081353506,2.1431878275s.0721199505,1.5600571023.6977165927,1.9165423586c.5558608149.3167476501,1.3032736948.094046518,1.7378213118-.3755051166s.6090675544-1.1246935742.6726811021-1.7612968146.0317765031-1.2815348814.1257536329-1.9143687206c.2010961224,2.0268661766.3996328328,4.0977806313-.0660510725,6.0806484468-.1185380612.5047321936-.2869661283,1.0133546255-.6200977897,1.4106317825s-.8617460918.6642655462-1.3706015242.5649076464-.9244656791-.6444994878-.7779197367-1.1418224513"/>
    <path class="cls-1" d="m34.6063158741,5.8073856554c-.4001117335,1.7757513038-.6378940253,3.5937630848-.6088558281,5.413801237.0078918917.4946308941.037650571.9994567011.2208489984,1.4589784993s.5452627981.8726364668,1.0233059532.9999026789,1.0589442085-.1069593101,1.220134393-.5746554415"/>
    <path class="cls-1" d="m32.4777425887,8.7136734773l3.5636948507-.3430482809"/>
    <path class="cls-1" d="m48.1752383715,5.9263955068c-.4001117335,1.7757513038-.6378940253,3.5937630848-.6088558281,5.413801237.0078918917.4946308941.037650571.9994567011.2208489984,1.4589784993s.5452627981.8726364668,1.0233059532.9999026789,1.0589442085-.1069593101,1.220134393-.5746554415"/>
    <path class="cls-1" d="m46.0466650861,8.8326833286l3.5636948507-.3430482809"/>
  </g>
  <g>
    <rect class="cls-1" x=".5" y=".5" width="458.362804993" height="278.3798492288"/>
    <line class="cls-1" x1=".5" y1="258.995574284" x2="458.862804993" y2="258.995574284"/>
    <line class="cls-1" x1=".5" y1="239.1112993389" x2="458.862804993" y2="239.1112993389"/>
    <line class="cls-1" x1=".5" y1="219.2270243941" x2="458.862804993" y2="219.2270243941"/>
    <line class="cls-1" x1=".5" y1="199.3427494492" x2="458.862804993" y2="199.3427494492"/>
    <line class="cls-1" x1=".5" y1="179.4584745043" x2="458.862804993" y2="179.4584745043"/>
    <line class="cls-1" x1=".5" y1="159.5741995593" x2="458.862804993" y2="159.5741995593"/>
    <line class="cls-1" x1=".5" y1="139.6899246144" x2="458.862804993" y2="139.6899246144"/>
    <line class="cls-1" x1=".5" y1="119.8056496695" x2="458.862804993" y2="119.8056496695"/>
    <line class="cls-1" x1=".5" y1="99.9213747245" x2="458.862804993" y2="99.9213747245"/>
    <line class="cls-1" x1=".5" y1="80.0370997796" x2="458.862804993" y2="80.0370997796"/>
    <line class="cls-1" x1=".5" y1="60.1528248348" x2="458.862804993" y2="60.1528248348"/>
    <line class="cls-1" x1=".5" y1="40.2685498899" x2="458.862804993" y2="40.2685498899"/>
    <line class="cls-1" x1=".5" y1="20.3842749449" x2="458.862804993" y2="20.3842749449"/>
    <line class="cls-1" x1="382.4690041609" y1=".5" x2="382.4690041609" y2="278.8798492288"/>
    <line class="cls-1" x1="306.0752033286" y1=".5" x2="306.0752033286" y2="278.8798492288"/>
    <line class="cls-1" x1="229.6814024965" y1=".5" x2="229.6814024965" y2="278.8798492288"/>
    <line class="cls-1" x1="153.2876016644" y1=".5" x2="153.2876016644" y2="278.8798492288"/>
    <line class="cls-1" x1="76.8938008321" y1=".5" x2="76.8938008321" y2="278.8798492288"/>
  </g>
  <path class="cls-3" d="m36.5133344697,26.3968814163c-.0623206188,2.6619366607-.0509192331,5.3300287439.0341419434,7.9897173764"/>
  <path class="cls-1" d="m38.7910269896,106.5585006872c-1.3260917995.0602152928-2.6521835991.1204305856-4.0408804897.1409018731-.0852773142,1.1731274511-.1705546283,2.3462549022-.1891816275,3.5969747265.7284314151-.4384822631,1.6361531444-.6303442921,2.4460294833-.3715406267s1.4732490923,1.0242543575,1.4747392614,1.8744759762c.0009653504.5507031875-.2668719488,1.0829563351-.6657601237,1.4626446235-.4871321429.4636848412-1.1719520846.7124038064-1.8431090385.6693967311s-1.318631005-.3770981248-1.7425971361-.899165156"/>
  <g>
    <path class="cls-3" d="m34.7177002602,48.6071907204c.3312948943-.8369225229,1.0649445426-1.4907644336,1.9135186563-1.705362631.5301666095-.1340755058,1.1761894654-.059511647,1.4891775269.403427062.2639341622.39038369.2045725635.9201628269.0837436112,1.3799848454-.5813478893,2.2123545387-2.2532824376,3.9088731685-3.8643465269,5.4817541217"/>
    <path class="cls-3" d="m38.6819628804,53.9657198538c-1.4495552127-.1005916165-2.9105541152-.0232089759-4.3426314524.2300099529"/>
  </g>
  <g>
    <path class="cls-3" d="m34.7091295524,67.7950829631c.4023454581-.8425902784,1.255922694-1.452650944,2.1833974516-1.5604972186.4742742892-.0551484463,1.0113585497.0420575343,1.3029029825.4201835658.2028035274.2630313596.2501990816.6226856967.185084223.9483769282s-.2318179548.6224850863-.4228431515.8941909886c-.61380932.8730553972-1.5098429726,1.5443269931-2.520213516,1.8880404"/>
    <path class="cls-3" d="m34.4121473945,73.1681525891c.1447229736.342567721.4683368397.5887403342.82263004.7017611765s.7370666316.1056105923,1.1045172149.0483615625c.7378189667-.1149528,1.4710156331-.4519261786,1.9093065724-1.0564854989s.507363672-1.5026128523.0379687373-2.0833531681c-.320462632-.3964797475-.8382054966-.5959536395-1.3471292204-.6257700127s-1.0144452873.0922314377-1.5013809551.2431818536"/>
  </g>
  <g>
    <path class="cls-1" d="m35.4860034856,86.2034663044c-.5377837687,1.8484567024-1.0755675375,3.6969134047-1.5066769742,5.5628413741,1.6726088749-.346489055,3.3631734854-.6062841299,5.0626412856-.7779940877"/>
    <path class="cls-1" d="m36.8803198715,89.4825166135c-.1823983593,1.5321844215-.1186922548,3.0934009085.1879347142,4.605630443"/>
  </g>
  <path class="cls-1" d="m38.9185784204,126.3474607707c-.3371851297-.6484724979-1.1566341592-.9473447382-1.8770087709-.823769615s-1.3399426604.5973633915-1.8053301284,1.1609455922c-1.215679092,1.4721828617-1.4833364973,3.662309383-.6579750332,5.3839295453.3448965773.719419155.9381056689,1.3990016025,1.727453004,1.5149672647.8757247031.1286557669,1.7302251016-.5072112311,2.0983740234-1.3121413188.2784346329-.6087765311.3210621925-1.3618523741-.0417063991-1.9244655028-.5026687693-.7795825703-1.6927240621-.9327959799-2.4646329357-.4184210552s-1.3704787912,1.4444548114-1.2061792737,2.3573789817"/>
  <path class="cls-1" d="m34.4610281125,146.5272913292c1.2566659961-.5006614369,2.6542706505-.266506245,4.0992380834-.5189040459-1.4692632419,2.4065435074-2.6902885008,5.0525811223-3.6228530221,7.8509476361"/>
  <path class="cls-1" d="m37.9528911725,166.4171148705c-.7807670047-.6184121988-2.055022403-.648974136-2.8720527777.1680562387-.5047624547.5047624547-.6820189647.8562437917-.6820189647,1.5296680493,0,.6766872331.542707277,1.0930733501,1.0869636716,1.3168287198.7988880123.3284397348,1.6363392425.6241333343,2.2835837627,1.1961204224s1.0621200163,1.5117077384.7434916496,2.3145593199c-.204086681.5142399222-.682339379.8910442727-1.2119281072,1.0511374252s-1.1040283113.1215459644-1.6379957907-.0232738181c-.5129895654-.139130125-1.0476734313-.4274181735-1.2089269896-.9338888865-.1285881263-.4038742007.0169084705-.8485354643.2436718139-1.2066243234.4325449985-.6830446966,1.1312289919-1.1436839922,1.7967194275-1.602778413s.9928162791-.6253233553,1.6964241713-1.6939062852c.4446171582-.6752486873.385686993-1.6219565842-.2379318669-2.1158984491Z"/>
  <path class="cls-1" d="m38.4230944996,186.0485148095c-.8442415888-.7627075936-1.8594278318-.9884759698-2.7870941104-.3581361843s-1.3736843243,2.0699379579-.8993996443,3.1609061003,1.8661819863,1.5701795692,2.7580377208.8783647845c.4909009307-.380792724.7792023832-1.0227345369.8978200931-1.676997304s.0863549616-1.3294239282.0535787543-1.9959605619c-.009316832,2.6046628553-.0186335435,5.2093259581.0038978173,7.8141275181"/>
  <g>
    <path class="cls-2" d="m38.4790479885,205.7418575518c-.407846802-.2385402133-.9295187659-.1864715881-1.3442925727.0385684893s-.7369477277.6014241093-1.0061246856,1.0014393456c-.5923312359.8802445032-.9720802107,1.9162970552-1.09438293,2.9857572013-.1153139816,1.0083477682.0138659871,2.0886004788.5769476124,2.9151256791s1.6260560233,1.3207867272,2.5416010148.98798666c.7129689543-.2591637775,1.2100845721-.945015952,1.529938878-1.6613205623.5436362054-1.217457859.6917402319-2.6244167423.4144074352-3.9367885705-.1248791516-.5909440029-.3400918219-1.1739277297-.7165469137-1.6329420611s-.9312327251-.7811328959-.9015478384-.6978261812Z"/>
    <path class="cls-3" d="m32.827024129,205.6857748258c-.0623206188,2.6619366607-.0509192331,5.3300287439.0341419434,7.9897173764"/>
  </g>
  <g>
    <path class="cls-3" d="m34.4349735017,225.1785580845c-.0623206188,2.6619366607-.0509192331,5.3300287439.0341419434,7.9897173764"/>
    <path class="cls-3" d="m38.5916954377,225.1785580845c-.0623206188,2.6619366607-.0509192331,5.3300287439.0341419434,7.9897173764"/>
  </g>
  <g>
    <path class="cls-3" d="m33.1670906438,245.5374718509c-.0623206188,2.6619366607-.0509192331,5.3300287439.0341419434,7.9897173764"/>
    <g>
      <path class="cls-3" d="m35.9294576188,247.6205595717c.3312948943-.8369225229,1.0649445426-1.4907644336,1.9135186563-1.705362631.5301666095-.1340755058,1.1761894654-.059511647,1.4891775269.403427062.2639341622.39038369.2045725635.9201628269.0837436112,1.3799848454-.5813478893,2.2123545387-2.2532824376,3.9088731685-3.8643465269,5.4817541217"/>
      <path class="cls-3" d="m39.893720239,252.9790887051c-1.4495552127-.1005916165-2.9105541152-.0232089759-4.3426314524.2300099529"/>
    </g>
  </g>
  <g>
    <path class="cls-3" d="m33.319793452,264.6837457113c-.0623206188,2.6619366607-.0509192331,5.3300287439.0341419434,7.9897173764"/>
    <g>
      <path class="cls-3" d="m35.8410000692,266.3840947223c.4023454581-.8425902784,1.255922694-1.452650944,2.1833974516-1.5604972186.4742742892-.0551484463,1.0113585497.0420575343,1.3029029825.4201835658.2028035274.2630313596.2501990816.6226856967.185084223.9483769282s-.2318179548.6224850863-.4228431515.8941909886c-.61380932.8730553972-1.5098429726,1.5443269931-2.520213516,1.8880404"/>
      <path class="cls-3" d="m35.5440179113,271.7571643482c.1447229736.342567721.4683368397.5887403342.82263004.7017611765s.7370666316.1056105923,1.1045172149.0483615625c.7378189667-.1149528,1.4710156331-.4519261786,1.9093065724-1.0564854989s.507363672-1.5026128523.0379687373-2.0833531681c-.320462632-.3964797475-.8382054966-.5959536395-1.3471292204-.6257700127s-1.0144452873.0922314377-1.5013809551.2431818536"/>
    </g>
  </g>
  <rect class="cls-4" x="229.8579673824" y=".5" width="76.0464229241" height="278.3798492288"/>
  <rect class="cls-4" x="382.8163820688" y=".5" width="76.0464229241" height="278.3798492288" rx=".5819272551" ry=".5819272551"/>
</svg>