<svg xmlns="http://www.w3.org/2000/svg" id="Layer_1" data-name="Layer 1" viewBox="0 0 681.56 442.71">
  <defs>
    <style>
      .cls-1, .cls-2, .cls-3, .cls-4 {
        fill: none;
        stroke-linecap: round;
      }

      .cls-1, .cls-2, .cls-4 {
        stroke-linejoin: round;
      }

      .cls-1, .cls-3, .cls-4 {
        stroke: #231f20;
      }

      .cls-2 {
        stroke: #010101;
      }

      .cls-3 {
        stroke-miterlimit: 10;
      }

      .cls-5 {
        font-family: AnnaiMN-Regular, 'Annai MN';
        font-size: 12px;
      }

      .cls-5, .cls-6 {
        fill: #231f20;
      }

      .cls-4 {
        opacity: .15;
      }

      .cls-6 {
        stroke-width: 0px;
      }
    </style>
  </defs>
  <polyline class="cls-1" points="209.3642743422 30.5606591006 316.8599438553 30.5606591006 316.8599438553 173.8882184515 173.5323845044 173.8882184515 173.5323845044 66.3925489384"/>
  <line class="cls-1" x1="173.5323845044" y1="138.0563286138" x2="316.8599438553" y2="138.0563286138"/>
  <line class="cls-1" x1="173.5323845044" y1="102.2244387761" x2="316.8599438553" y2="102.2244387761"/>
  <line class="cls-1" x1="173.5323845044" y1="66.3925489384" x2="316.8599438553" y2="66.3925489384"/>
  <line class="cls-1" x1="281.0280540176" y1="31.1259383539" x2="281.0280540176" y2="173.8882184515"/>
  <line class="cls-1" x1="245.1961641799" y1="30.5606591006" x2="245.1961641799" y2="173.8882184515"/>
  <line class="cls-1" x1="209.3642743422" y1="30.5606591006" x2="209.3642743422" y2="173.8882184515"/>
  <line class="cls-1" x1="190.7924735321" y1="66.3925489384" x2="190.7924735321" y2="173.8882184515"/>
  <line class="cls-1" x1="209.3642743422" y1="47.2568013307" x2="316.8599438553" y2="47.2568013307"/>
  <line class="cls-1" x1="227.1426349627" y1="47.2568013307" x2="227.1426349627" y2="66.3925489384"/>
  <line class="cls-1" x1="263.1121090987" y1="47.2568013307" x2="263.1121090987" y2="66.3925489384"/>
  <line class="cls-1" x1="299.1997490478" y1="47.2568013307" x2="299.1997490478" y2="66.3925489384"/>
  <line class="cls-1" x1="190.7924735321" y1="84.0845792371" x2="209.3642743422" y2="84.0845792371"/>
  <line class="cls-1" x1="190.7924735321" y1="120.1403836949" x2="209.3642743422" y2="120.1403836949"/>
  <line class="cls-1" x1="190.7924735321" y1="156.0753536603" x2="209.3642743422" y2="156.0753536603"/>
  <line class="cls-4" x1="209.3642743422" y1="84.0845792371" x2="316.8599438553" y2="84.0845792371"/>
  <line class="cls-4" x1="227.1426349627" y1="66.3925489384" x2="227.1426349627" y2="173.8882184515"/>
  <line class="cls-4" x1="209.3642743422" y1="156.0753536603" x2="316.8599438553" y2="156.0753536603"/>
  <line class="cls-4" x1="209.3642743422" y1="120.1403836949" x2="316.8599438553" y2="120.1403836949"/>
  <line class="cls-4" x1="299.1997490478" y1="66.3925489384" x2="299.1997490478" y2="173.8882184515"/>
  <line class="cls-4" x1="263.1121090987" y1="66.3925489384" x2="263.1121090987" y2="173.8882184515"/>
  <path class="cls-3" d="m227.2492941901,34.2877044271c-.0884722894,2.5618769703-.0722865276,5.1296779865.0484689651,7.6893914298"/>
  <g>
    <path class="cls-3" d="m259.9803097127,36.0882556201c.3445853247-.8948721471,1.1076665148-1.5939869378,1.9902825512-1.8234441987.5514351002-.1433590714,1.2233742076-.0636323123,1.5489182913.4313608862.2745223079.4174143739.2127793227.98387612.0871031216,1.4755368242-.6046695999,2.3655408978-2.343676506,4.1795287249-4.0193710361,5.861318039"/>
    <path class="cls-3" d="m264.1036051377,41.8178164094c-1.5077064639-.1075567132-3.0273156996-.0248159961-4.5168431348.2459361467"/>
  </g>
  <g>
    <path class="cls-3" d="m297.0868688239,35.8485123175c.4244493626-.8386897197,1.3249201057-1.4459262636,2.303348125-1.5532732912.5003297929-.0548931505,1.0669201878.0418628396,1.3744813797.4182384321.2139450718.2618137224.2639444252.6198031306.1952523109.9439866569s-.244553483.6196034489-.4460731506.8900515574c-.6475305471.8690138079-1.5927901617,1.5371779216-2.6586680646,1.8793001942"/>
    <path class="cls-3" d="m296.7735711711,41.1967086755c.1526737102.3409818903.494066154.5860149096.8678233818.6985125505s.7775593228.1051216947,1.165196769.0481376848c.7783529894-.114420655,1.5518297404-.4498341006,2.0141993435-1.0515947662s.5352370278-1.4956568859.0400546496-2.0737088112c-.3380680883-.3946443447-.884254517-.5931948228-1.4211373022-.6228731686s-1.0701765035.0918044756-1.5838632611.2420561047"/>
  </g>
  <path class="cls-3" d="m181.4743991134,80.2398835222c-.0884722894,2.5618769703-.0722865276,5.1296779865.0484689651,7.6893914298"/>
  <g>
    <path class="cls-3" d="m180.4159240834,118.0962391731c.3445853247-.8948721471,1.1076665148-1.5939869378,1.9902825512-1.8234441987.5514351002-.1433590714,1.2233742076-.0636323123,1.5489182913.4313608862.2745223079.4174143739.2127793227.98387612.0871031216,1.4755368242-.6046695999,2.3655408978-2.343676506,4.1795287249-4.0193710361,5.861318039"/>
    <path class="cls-3" d="m184.5392195085,123.8257999624c-1.5077064639-.1075567132-3.0273156996-.0248159961-4.5168431348.2459361467"/>
  </g>
  <g>
    <path class="cls-3" d="m179.570095414,153.7914658358c.4244493626-.8386897197,1.3249201057-1.4459262636,2.303348125-1.5532732911.5003297929-.0548931505,1.0669201878.0418628396,1.3744813797.4182384321.2139450718.2618137224.2639444252.6198031306.1952523109.9439866569s-.244553483.6196034489-.4460731506.8900515574c-.6475305471.8690138079-1.5927901617,1.5371779216-2.6586680646,1.8793001942"/>
    <path class="cls-3" d="m179.2567977613,159.1396621939c.1526737102.3409818903.494066154.5860149096.8678233818.6985125505s.7775593228.1051216947,1.165196769.0481376848c.7783529894-.114420655,1.5518297404-.4498341006,2.0141993435-1.0515947662s.5352370278-1.4956568859.0400546496-2.0737088112c-.3380680883-.3946443447-.884254517-.5931948228-1.4211373022-.6228731686s-1.0701765035.0918044756-1.5838632611.2420561047"/>
  </g>
  <g>
    <path class="cls-3" d="m222.3758361332,52.7165151378c-.1096803755,2.7374339262-.0896146528,5.4811978536.0600876764,8.2163199935"/>
    <line class="cls-2" x1="214.0709854953" y1="56.8246751345" x2="219.0846010574" y2="56.8246751345"/>
    <line class="cls-2" x1="216.5777932763" y1="54.3178673535" x2="216.5777932763" y2="59.3314829156"/>
  </g>
  <g>
    <line class="cls-2" x1="231.9869304141" y1="56.8246751345" x2="237.0005459762" y2="56.8246751345"/>
    <path class="cls-3" d="m240.2917810521,52.7165151378c-.1096803755,2.7374339262-.0896146528,5.4811978536.0600876764,8.2163199935"/>
  </g>
  <g>
    <path class="cls-3" d="m257.9062466779,52.7165151378c-.1096803755,2.7374339262-.0896146528,5.4811978536.0600876764,8.2163199935"/>
    <line class="cls-2" x1="249.60139604" y1="56.8246751345" x2="254.6150116021" y2="56.8246751345"/>
    <line class="cls-2" x1="252.108203821" y1="54.3178673535" x2="252.108203821" y2="59.3314829156"/>
  </g>
  <g>
    <line class="cls-2" x1="267.3171409147" y1="56.8246751345" x2="272.3307564768" y2="56.8246751345"/>
    <path class="cls-3" d="m275.6219915526,52.7165151378c-.1096803755,2.7374339262-.0896146528,5.4811978536.0600876764,8.2163199935"/>
  </g>
  <g>
    <path class="cls-3" d="m293.7653083707,52.7165151378c-.1096803755,2.7374339262-.0896146528,5.4811978536.0600876764,8.2163199935"/>
    <line class="cls-2" x1="285.4604577328" y1="56.8246751345" x2="290.4740732949" y2="56.8246751345"/>
    <line class="cls-2" x1="287.9672655138" y1="54.3178673535" x2="287.9672655138" y2="59.3314829156"/>
  </g>
  <g>
    <line class="cls-2" x1="302.6925931247" y1="56.8246751345" x2="307.7062086868" y2="56.8246751345"/>
    <path class="cls-3" d="m310.9974437627,52.7165151378c-.1096803755,2.7374339262-.0896146528,5.4811978536.0600876764,8.2163199935"/>
  </g>
  <g>
    <path class="cls-3" d="m203.5476263448,71.130404091c-.1096803755,2.7374339262-.0896146528,5.4811978536.0600876764,8.2163199935"/>
    <line class="cls-2" x1="195.2427757069" y1="75.2385640877" x2="200.256391269" y2="75.2385640877"/>
    <line class="cls-2" x1="197.7495834879" y1="72.7317563067" x2="197.7495834879" y2="77.7453718688"/>
  </g>
  <g>
    <line class="cls-2" x1="195.4084464229" y1="93.1545090066" x2="200.422061985" y2="93.1545090066"/>
    <path class="cls-3" d="m203.7132970608,89.0463490098c-.1096803755,2.7374339262-.0896146528,5.4811978536.0600876764,8.2163199935"/>
  </g>
  <g>
    <path class="cls-3" d="m203.5476263448,107.7427351656c-.1096803755,2.7374339262-.0896146528,5.4811978536.0600876764,8.2163199935"/>
    <line class="cls-2" x1="195.2427757069" y1="111.8508951623" x2="200.256391269" y2="111.8508951623"/>
    <line class="cls-2" x1="197.7495834879" y1="109.3440873813" x2="197.7495834879" y2="114.3577029434"/>
  </g>
  <g>
    <line class="cls-2" x1="195.2427757069" y1="129.0983561544" x2="200.256391269" y2="129.0983561544"/>
    <path class="cls-3" d="m203.5476263448,124.9901961576c-.1096803755,2.7374339262-.0896146528,5.4811978536.0600876764,8.2163199935"/>
  </g>
  <g>
    <path class="cls-3" d="m203.5476263448,142.9298815504c-.1096803755,2.7374339262-.0896146528,5.4811978536.0600876764,8.2163199935"/>
    <line class="cls-2" x1="195.2427757069" y1="147.0380415471" x2="200.256391269" y2="147.0380415471"/>
    <line class="cls-2" x1="197.7495834879" y1="144.5312337661" x2="197.7495834879" y2="149.5448493282"/>
  </g>
  <g>
    <line class="cls-2" x1="195.2427757069" y1="164.7897767231" x2="200.256391269" y2="164.7897767231"/>
    <path class="cls-3" d="m203.5476263448,160.6816167264c-.1096803755,2.7374339262-.0896146528,5.4811978536.0600876764,8.2163199935"/>
  </g>
  <path class="cls-1" d="m184.1707894166,177.524389023c-1.9387351678,2.6055633593-3.628857644,4.7604067211-5.5675928117,7.3659700804"/>
  <path class="cls-1" d="m178.374084626,177.7643083378l5.7967047906,6.8861314508"/>
  <path class="cls-1" d="m203.1212060731,177.8969720608c-.4576364028,1.1310705532-.8350100181,1.9468985478-1.2790416779,2.9091991511s-.997268974,1.9008100505-1.8064634442,2.5965159177-1.9104594801,1.1225673381-2.968929373.9372831058-2.0052243159-1.0812981246-2.0384243036-2.1374203242c-.0313147741-.9961437547.7503725517-1.9082850127,1.7111851625-2.2270165617s2.0415836961-.1184228755,2.937062023.3492637897,1.6320417326,1.180360608,2.3086567714,1.9226971268,1.3102424782,1.527464764,1.9949085894,2.2702817997"/>
  <g>
    <path class="cls-1" d="m321.8642153537,34.995477491c-.1739913055.6823073593-.1734773565.7448232303-.1816279361,1.4429265134s.1622600544,1.415889551.6265013312,1.9919287392,1.2544068009.98742256,2.0752097973.9547554947c1.1142477184-.0443458456,2.0065296816-.8829960316,2.3160945067-1.7934975364s.164037974-1.8821731423.0160653502-2.8215257143c.3630742132,2.1812453972.5936616547,4.1562178735-.1341261728,6.1272107051-.205587361.5567711421-.4793392372,1.103931845-.9059265917,1.5612531335s-1.0199112371.8205125424-1.6947925864.9287852045c-.7374955268.1183181521-1.536951899-.0906916469-2.0685743221-.5408077388s-.7803942422-1.1286241182-.643691168-1.7556233886"/>
    <path class="cls-1" d="m321.6147978242,62.4862711642c-.0707114272-2.649762932-.1087925584-5.4269440034,1.3175660853-7.7841100529.3892147531-.6432074149.935641105-1.2773051141,1.7399035441-1.5142502119s1.8796682788.117160274,2.0163329175.8310135316c.0966350495.5047622878-.2797257164.9845130437-.6894633682,1.3591279715-.9742940523.8907775458-2.6050359878,1.5371596611-3.9916524919,1.8384673153.6474081481-.2051754402,1.6604052463-.4129124639,2.3511900861-.42690047s1.427509731.2014537722,1.8148313083.6876256839c.4366928884.5481435243.312096827,1.333138677-.1788877805,1.8470499065s-1.2790008661.7766946879-2.0564825898.8187970274-1.5513453115-.114325415-2.2932539693-.3162873629"/>
  </g>
  <polyline class="cls-1" points="393.623381373 30.5606591006 501.1190508862 30.5606591006 501.1190508862 173.8882184515 357.7914915353 173.8882184515 357.7914915353 66.3925489384"/>
  <line class="cls-1" x1="357.7914915353" y1="138.0563286138" x2="501.1190508862" y2="138.0563286138"/>
  <line class="cls-1" x1="357.7914915353" y1="102.2244387761" x2="501.1190508862" y2="102.2244387761"/>
  <line class="cls-1" x1="357.7914915353" y1="66.3925489384" x2="501.1190508862" y2="66.3925489384"/>
  <line class="cls-1" x1="465.2871610484" y1="31.1259383539" x2="465.2871610484" y2="173.8882184515"/>
  <line class="cls-1" x1="429.4552712107" y1="30.5606591006" x2="429.4552712107" y2="173.8882184515"/>
  <line class="cls-1" x1="393.623381373" y1="30.5606591006" x2="393.623381373" y2="173.8882184515"/>
  <line class="cls-1" x1="375.051580563" y1="66.3925489384" x2="375.051580563" y2="173.8882184515"/>
  <line class="cls-1" x1="393.623381373" y1="47.2568013307" x2="501.1190508862" y2="47.2568013307"/>
  <line class="cls-1" x1="411.4017419935" y1="47.2568013307" x2="411.4017419935" y2="66.3925489384"/>
  <line class="cls-1" x1="447.3712161296" y1="47.2568013307" x2="447.3712161296" y2="66.3925489384"/>
  <line class="cls-1" x1="483.4588560787" y1="47.2568013307" x2="483.4588560787" y2="66.3925489384"/>
  <line class="cls-1" x1="375.051580563" y1="84.0845792371" x2="393.623381373" y2="84.0845792371"/>
  <line class="cls-1" x1="375.051580563" y1="120.1403836949" x2="393.623381373" y2="120.1403836949"/>
  <line class="cls-1" x1="375.051580563" y1="156.0753536603" x2="393.623381373" y2="156.0753536603"/>
  <line class="cls-4" x1="393.623381373" y1="84.0845792371" x2="501.1190508862" y2="84.0845792371"/>
  <line class="cls-4" x1="411.4017419935" y1="66.3925489384" x2="411.4017419935" y2="173.8882184515"/>
  <line class="cls-4" x1="393.623381373" y1="156.0753536603" x2="501.1190508862" y2="156.0753536603"/>
  <line class="cls-4" x1="393.623381373" y1="120.1403836949" x2="501.1190508862" y2="120.1403836949"/>
  <line class="cls-4" x1="483.4588560787" y1="66.3925489384" x2="483.4588560787" y2="173.8882184515"/>
  <line class="cls-4" x1="447.3712161296" y1="66.3925489384" x2="447.3712161296" y2="173.8882184515"/>
  <path class="cls-3" d="m411.5084012209,34.2877044271c-.0884722894,2.5618769703-.0722865276,5.1296779865.0484689651,7.6893914298"/>
  <g>
    <path class="cls-3" d="m444.2394167435,36.0882556201c.3445853247-.8948721471,1.1076665148-1.5939869378,1.9902825512-1.8234441987.5514351002-.1433590714,1.2233742076-.0636323123,1.5489182913.4313608862.2745223079.4174143739.2127793227.98387612.0871031216,1.4755368242-.6046695999,2.3655408978-2.343676506,4.1795287249-4.0193710361,5.861318039"/>
    <path class="cls-3" d="m448.3627121686,41.8178164094c-1.5077064639-.1075567132-3.0273156996-.0248159961-4.5168431348.2459361467"/>
  </g>
  <g>
    <path class="cls-3" d="m481.3459758547,35.8485123175c.4244493626-.8386897197,1.3249201057-1.4459262636,2.303348125-1.5532732912.5003297929-.0548931505,1.0669201878.0418628396,1.3744813797.4182384321.2139450718.2618137224.2639444252.6198031306.1952523109.9439866569s-.244553483.6196034489-.4460731506.8900515574c-.6475305471.8690138079-1.5927901617,1.5371779216-2.6586680646,1.8793001942"/>
    <path class="cls-3" d="m481.0326782019,41.1967086755c.1526737102.3409818903.494066154.5860149096.8678233818.6985125505s.7775593228.1051216947,1.165196769.0481376848c.7783529894-.114420655,1.5518297404-.4498341006,2.0141993435-1.0515947662s.5352370278-1.4956568859.0400546496-2.0737088112c-.3380680883-.3946443447-.884254517-.5931948228-1.4211373021-.6228731686s-1.0701765035.0918044756-1.5838632611.2420561047"/>
  </g>
  <path class="cls-3" d="m365.7335061443,80.2398835222c-.0884722894,2.5618769703-.0722865276,5.1296779865.0484689651,7.6893914298"/>
  <g>
    <path class="cls-3" d="m364.6750311142,118.0962391731c.3445853247-.8948721471,1.1076665148-1.5939869378,1.9902825512-1.8234441987.5514351002-.1433590714,1.2233742076-.0636323123,1.5489182913.4313608862.2745223079.4174143739.2127793227.98387612.0871031216,1.4755368242-.6046695999,2.3655408978-2.343676506,4.1795287249-4.0193710361,5.861318039"/>
    <path class="cls-3" d="m368.7983265393,123.8257999624c-1.5077064639-.1075567132-3.0273156996-.0248159961-4.5168431348.2459361467"/>
  </g>
  <g>
    <path class="cls-3" d="m363.8292024449,153.7914658358c.4244493626-.8386897197,1.3249201057-1.4459262636,2.303348125-1.5532732911.5003297929-.0548931505,1.0669201878.0418628396,1.3744813797.4182384321.2139450718.2618137224.2639444252.6198031306.1952523109.9439866569s-.244553483.6196034489-.4460731506.8900515574c-.6475305471.8690138079-1.5927901617,1.5371779216-2.6586680646,1.8793001942"/>
    <path class="cls-3" d="m363.5159047921,159.1396621939c.1526737102.3409818903.494066154.5860149096.8678233818.6985125505s.7775593228.1051216947,1.165196769.0481376848c.7783529894-.114420655,1.5518297404-.4498341006,2.0141993435-1.0515947662s.5352370278-1.4956568859.0400546496-2.0737088112c-.3380680883-.3946443447-.884254517-.5931948228-1.4211373022-.6228731686s-1.0701765035.0918044756-1.5838632611.2420561047"/>
  </g>
  <g>
    <path class="cls-3" d="m406.634943164,52.7165151378c-.1096803755,2.7374339262-.0896146528,5.4811978536.0600876764,8.2163199935"/>
    <line class="cls-2" x1="398.3300925261" y1="56.8246751345" x2="403.3437080882" y2="56.8246751345"/>
    <line class="cls-2" x1="400.8369003072" y1="54.3178673535" x2="400.8369003072" y2="59.3314829156"/>
  </g>
  <g>
    <line class="cls-2" x1="416.246037445" y1="56.8246751345" x2="421.2596530071" y2="56.8246751345"/>
    <path class="cls-3" d="m424.5508880829,52.7165151378c-.1096803755,2.7374339262-.0896146528,5.4811978536.0600876764,8.2163199935"/>
  </g>
  <g>
    <path class="cls-3" d="m442.1653537088,52.7165151378c-.1096803755,2.7374339262-.0896146528,5.4811978536.0600876764,8.2163199935"/>
    <line class="cls-2" x1="433.8605030708" y1="56.8246751345" x2="438.8741186329" y2="56.8246751345"/>
    <line class="cls-2" x1="436.3673108519" y1="54.3178673535" x2="436.3673108519" y2="59.3314829156"/>
  </g>
  <g>
    <line class="cls-2" x1="451.5762479455" y1="56.8246751345" x2="456.5898635076" y2="56.8246751345"/>
    <path class="cls-3" d="m459.8810985834,52.7165151378c-.1096803755,2.7374339262-.0896146528,5.4811978536.0600876764,8.2163199935"/>
  </g>
  <g>
    <path class="cls-3" d="m478.0244154016,52.7165151378c-.1096803755,2.7374339262-.0896146528,5.4811978536.0600876764,8.2163199935"/>
    <line class="cls-2" x1="469.7195647636" y1="56.8246751345" x2="474.7331803257" y2="56.8246751345"/>
    <line class="cls-2" x1="472.2263725447" y1="54.3178673535" x2="472.2263725447" y2="59.3314829156"/>
  </g>
  <g>
    <line class="cls-2" x1="486.9517001556" y1="56.8246751345" x2="491.9653157177" y2="56.8246751345"/>
    <path class="cls-3" d="m495.2565507935,52.7165151378c-.1096803755,2.7374339262-.0896146528,5.4811978536.0600876764,8.2163199935"/>
  </g>
  <g>
    <path class="cls-3" d="m387.8067333756,71.130404091c-.1096803755,2.7374339262-.0896146528,5.4811978536.0600876764,8.2163199935"/>
    <line class="cls-2" x1="379.5018827377" y1="75.2385640877" x2="384.5154982998" y2="75.2385640877"/>
    <line class="cls-2" x1="382.0086905188" y1="72.7317563067" x2="382.0086905188" y2="77.7453718688"/>
  </g>
  <g>
    <line class="cls-2" x1="379.6675534537" y1="93.1545090066" x2="384.6811690158" y2="93.1545090066"/>
    <path class="cls-3" d="m387.9724040917,89.0463490098c-.1096803755,2.7374339262-.0896146528,5.4811978536.0600876764,8.2163199935"/>
  </g>
  <g>
    <path class="cls-3" d="m387.8067333756,107.7427351656c-.1096803755,2.7374339262-.0896146528,5.4811978536.0600876764,8.2163199935"/>
    <line class="cls-2" x1="379.5018827377" y1="111.8508951623" x2="384.5154982998" y2="111.8508951623"/>
    <line class="cls-2" x1="382.0086905188" y1="109.3440873813" x2="382.0086905188" y2="114.3577029433"/>
  </g>
  <g>
    <line class="cls-2" x1="379.5018827377" y1="129.0983561544" x2="384.5154982998" y2="129.0983561544"/>
    <path class="cls-3" d="m387.8067333756,124.9901961576c-.1096803755,2.7374339262-.0896146528,5.4811978536.0600876764,8.2163199935"/>
  </g>
  <g>
    <path class="cls-3" d="m387.8067333756,142.9298815504c-.1096803755,2.7374339262-.0896146528,5.4811978536.0600876764,8.2163199935"/>
    <line class="cls-2" x1="379.5018827377" y1="147.0380415471" x2="384.5154982998" y2="147.0380415471"/>
    <line class="cls-2" x1="382.0086905188" y1="144.5312337661" x2="382.0086905188" y2="149.5448493282"/>
  </g>
  <g>
    <line class="cls-2" x1="379.5018827377" y1="164.7897767231" x2="384.5154982998" y2="164.7897767231"/>
    <path class="cls-3" d="m387.8067333756,160.6816167264c-.1096803755,2.7374339262-.0896146528,5.4811978536.0600876764,8.2163199935"/>
  </g>
  <path class="cls-1" d="m368.4298964475,177.524389023c-1.9387351678,2.6055633593-3.628857644,4.7604067211-5.5675928117,7.3659700804"/>
  <path class="cls-1" d="m362.6331916569,177.7643083378l5.7967047906,6.8861314508"/>
  <path class="cls-1" d="m387.3803131039,177.8969720608c-.4576364028,1.1310705532-.8350100181,1.9468985478-1.2790416779,2.9091991511s-.997268974,1.9008100505-1.8064634442,2.5965159177-1.9104594801,1.1225673381-2.968929373.9372831058-2.0052243159-1.0812981246-2.0384243036-2.1374203242c-.0313147741-.9961437547.7503725517-1.9082850127,1.7111851625-2.2270165617s2.0415836961-.1184228755,2.937062023.3492637897,1.6320417326,1.180360608,2.3086567714,1.9226971268,1.3102424782,1.527464764,1.9949085894,2.2702817997"/>
  <g>
    <path class="cls-1" d="m506.1233223845,34.995477491c-.1739913055.6823073593-.1734773565.7448232303-.1816279361,1.4429265134s.1622600544,1.415889551.6265013312,1.9919287392,1.2544068009.98742256,2.0752097973.9547554947c1.1142477184-.0443458456,2.0065296816-.8829960316,2.3160945067-1.7934975364s.164037974-1.8821731423.0160653502-2.8215257143c.3630742132,2.1812453972.5936616547,4.1562178735-.1341261728,6.1272107051-.205587361.5567711421-.4793392372,1.103931845-.9059265917,1.5612531335s-1.0199112371.8205125424-1.6947925864.9287852046c-.7374955268.1183181521-1.536951899-.0906916469-2.0685743221-.5408077388s-.7803942422-1.1286241182-.643691168-1.7556233886"/>
    <path class="cls-1" d="m505.873904855,62.4862711642c-.0707114272-2.649762932-.1087925584-5.4269440033,1.3175660853-7.7841100529.3892147531-.6432074149.935641105-1.2773051141,1.7399035441-1.5142502119s1.8796682788.117160274,2.0163329175.8310135316c.0966350495.5047622878-.2797257164.9845130437-.6894633682,1.3591279715-.9742940523.8907775458-2.6050359878,1.5371596611-3.9916524919,1.8384673153.6474081481-.2051754402,1.6604052463-.4129124639,2.3511900861-.42690047s1.427509731.2014537722,1.8148313083.6876256839c.4366928884.5481435243.312096827,1.333138677-.1788877805,1.8470499065s-1.2790008661.7766946879-2.0564825898.8187970275-1.5513453115-.114325415-2.2932539693-.3162873629"/>
  </g>
  <polyline class="cls-1" points="36.3318898377 30.5778851642 143.8275593509 30.5778851642 143.8275593509 173.905444515 .5 173.905444515 .5 66.4097750019"/>
  <line class="cls-1" x1=".5" y1="138.0735546773" x2="143.8275593509" y2="138.0735546773"/>
  <line class="cls-1" x1=".5" y1="102.2416648396" x2="143.8275593509" y2="102.2416648396"/>
  <line class="cls-1" x1=".5" y1="66.4097750019" x2="143.8275593509" y2="66.4097750019"/>
  <line class="cls-1" x1="107.9956695132" y1="31.1431644174" x2="107.9956695132" y2="173.905444515"/>
  <line class="cls-1" x1="72.1637796754" y1="30.5778851642" x2="72.1637796754" y2="173.905444515"/>
  <line class="cls-1" x1="36.3318898377" y1="30.5778851642" x2="36.3318898377" y2="173.905444515"/>
  <line class="cls-1" x1="17.7600890277" y1="66.4097750019" x2="17.7600890277" y2="173.905444515"/>
  <line class="cls-1" x1="36.3318898377" y1="47.2740273942" x2="143.8275593509" y2="47.2740273942"/>
  <line class="cls-1" x1="54.1102504582" y1="47.2740273942" x2="54.1102504582" y2="66.4097750019"/>
  <line class="cls-1" x1="90.0797245943" y1="47.2740273942" x2="90.0797245943" y2="66.4097750019"/>
  <line class="cls-1" x1="126.1673645434" y1="47.2740273942" x2="126.1673645434" y2="66.4097750019"/>
  <line class="cls-1" x1="17.7600890277" y1="84.1018053006" x2="36.3318898377" y2="84.1018053006"/>
  <line class="cls-1" x1="17.7600890277" y1="120.1576097584" x2="36.3318898377" y2="120.1576097584"/>
  <line class="cls-1" x1="17.7600890277" y1="156.0925797238" x2="36.3318898377" y2="156.0925797238"/>
  <line class="cls-4" x1="36.3318898377" y1="84.1018053006" x2="143.8275593509" y2="84.1018053006"/>
  <line class="cls-4" x1="54.1102504582" y1="66.4097750019" x2="54.1102504582" y2="173.905444515"/>
  <line class="cls-4" x1="36.3318898377" y1="156.0925797238" x2="143.8275593509" y2="156.0925797238"/>
  <line class="cls-4" x1="36.3318898377" y1="120.1576097584" x2="143.8275593509" y2="120.1576097584"/>
  <line class="cls-4" x1="126.1673645434" y1="66.4097750019" x2="126.1673645434" y2="173.905444515"/>
  <line class="cls-4" x1="90.0797245943" y1="66.4097750019" x2="90.0797245943" y2="173.905444515"/>
  <path class="cls-3" d="m54.2169096856,34.3049304906c-.0884722894,2.5618769703-.0722865276,5.1296779865.0484689651,7.6893914298"/>
  <g>
    <path class="cls-3" d="m86.9479252082,36.1054816837c.3445853247-.8948721471,1.1076665148-1.5939869378,1.9902825512-1.8234441987.5514351002-.1433590714,1.2233742076-.0636323123,1.5489182913.4313608862.2745223079.4174143739.2127793227.98387612.0871031216,1.4755368242-.6046695999,2.3655408978-2.343676506,4.1795287249-4.0193710361,5.861318039"/>
    <path class="cls-3" d="m91.0712206333,41.835042473c-1.5077064639-.1075567132-3.0273156996-.0248159961-4.5168431348.2459361467"/>
  </g>
  <g>
    <path class="cls-3" d="m124.0544843194,35.865738381c.4244493626-.8386897197,1.3249201057-1.4459262636,2.303348125-1.5532732912.5003297929-.0548931505,1.0669201878.0418628396,1.3744813797.4182384321.2139450718.2618137224.2639444252.6198031306.1952523109.9439866569s-.244553483.6196034489-.4460731506.8900515574c-.6475305471.8690138079-1.5927901617,1.5371779216-2.6586680646,1.8793001942"/>
    <path class="cls-3" d="m123.7411866666,41.2139347391c.1526737102.3409818903.494066154.5860149096.8678233818.6985125505s.7775593228.1051216947,1.165196769.0481376848c.7783529894-.114420655,1.5518297404-.4498341006,2.0141993435-1.0515947662s.5352370278-1.4956568859.0400546496-2.0737088112c-.3380680883-.3946443447-.884254517-.5931948228-1.4211373021-.6228731686s-1.0701765035.0918044756-1.5838632611.2420561047"/>
  </g>
  <path class="cls-3" d="m8.442014609,80.2571095857c-.0884722894,2.5618769703-.0722865276,5.1296779865.0484689651,7.6893914298"/>
  <g>
    <path class="cls-3" d="m7.3835395789,118.1134652366c.3445853247-.8948721471,1.1076665148-1.5939869378,1.9902825512-1.8234441987.5514351002-.1433590714,1.2233742076-.0636323123,1.5489182913.4313608862.2745223079.4174143739.2127793227.98387612.0871031216,1.4755368242-.6046695999,2.3655408978-2.343676506,4.1795287249-4.0193710361,5.861318039"/>
    <path class="cls-3" d="m11.506835004,123.8430260259c-1.5077064639-.1075567132-3.0273156996-.0248159961-4.5168431348.2459361467"/>
  </g>
  <g>
    <path class="cls-3" d="m6.5377109096,153.8086918993c.4244493626-.8386897197,1.3249201057-1.4459262636,2.303348125-1.5532732911.5003297929-.0548931505,1.0669201878.0418628396,1.3744813797.4182384321.2139450718.2618137224.2639444252.6198031306.1952523109.9439866569s-.244553483.6196034489-.4460731506.8900515574c-.6475305471.8690138079-1.5927901617,1.5371779216-2.6586680646,1.8793001942"/>
    <path class="cls-3" d="m6.2244132568,159.1568882574c.1526737102.3409818903.494066154.5860149096.8678233818.6985125505s.7775593228.1051216947,1.165196769.0481376848c.7783529894-.114420655,1.5518297404-.4498341006,2.0141993435-1.0515947662s.5352370278-1.4956568859.0400546496-2.0737088112c-.3380680883-.3946443447-.884254517-.5931948228-1.4211373022-.6228731686s-1.0701765035.0918044756-1.5838632611.2420561047"/>
  </g>
  <g>
    <path class="cls-3" d="m49.3434516288,52.7337412013c-.1096803755,2.7374339262-.0896146528,5.4811978536.0600876764,8.2163199935"/>
    <line class="cls-2" x1="41.0386009908" y1="56.841901198" x2="46.0522165529" y2="56.841901198"/>
    <line class="cls-2" x1="43.5454087719" y1="54.335093417" x2="43.5454087719" y2="59.3487089791"/>
  </g>
  <g>
    <line class="cls-2" x1="58.9545459097" y1="56.841901198" x2="63.9681614718" y2="56.841901198"/>
    <path class="cls-3" d="m67.2593965476,52.7337412013c-.1096803755,2.7374339262-.0896146528,5.4811978536.0600876764,8.2163199935"/>
  </g>
  <g>
    <path class="cls-3" d="m84.8738621735,52.7337412013c-.1096803755,2.7374339262-.0896146528,5.4811978536.0600876764,8.2163199935"/>
    <line class="cls-2" x1="76.5690115355" y1="56.841901198" x2="81.5826270976" y2="56.841901198"/>
    <line class="cls-2" x1="79.0758193166" y1="54.335093417" x2="79.0758193166" y2="59.3487089791"/>
  </g>
  <g>
    <line class="cls-2" x1="94.2847564102" y1="56.841901198" x2="99.2983719723" y2="56.841901198"/>
    <path class="cls-3" d="m102.5896070482,52.7337412013c-.1096803755,2.7374339262-.0896146528,5.4811978536.0600876764,8.2163199935"/>
  </g>
  <g>
    <path class="cls-3" d="m120.7329238663,52.7337412013c-.1096803755,2.7374339262-.0896146528,5.4811978536.0600876764,8.2163199935"/>
    <line class="cls-2" x1="112.4280732283" y1="56.841901198" x2="117.4416887904" y2="56.841901198"/>
    <line class="cls-2" x1="114.9348810094" y1="54.335093417" x2="114.9348810094" y2="59.3487089791"/>
  </g>
  <g>
    <line class="cls-2" x1="129.6602086203" y1="56.841901198" x2="134.6738241824" y2="56.841901198"/>
    <path class="cls-3" d="m137.9650592582,52.7337412013c-.1096803755,2.7374339262-.0896146528,5.4811978536.0600876764,8.2163199935"/>
  </g>
  <g>
    <path class="cls-3" d="m30.5152418404,71.1476301545c-.1096803755,2.7374339262-.0896146528,5.4811978536.0600876764,8.2163199935"/>
    <line class="cls-2" x1="22.2103912024" y1="75.2557901512" x2="27.2240067645" y2="75.2557901512"/>
    <line class="cls-2" x1="24.7171989835" y1="72.7489823702" x2="24.7171989835" y2="77.7625979323"/>
  </g>
  <g>
    <line class="cls-2" x1="22.3760619185" y1="93.1717350701" x2="27.3896774805" y2="93.1717350701"/>
    <path class="cls-3" d="m30.6809125564,89.0635750734c-.1096803755,2.7374339262-.0896146528,5.4811978536.0600876764,8.2163199935"/>
  </g>
  <g>
    <path class="cls-3" d="m30.5152418404,107.7599612291c-.1096803755,2.7374339262-.0896146528,5.4811978536.0600876764,8.2163199935"/>
    <line class="cls-2" x1="22.2103912024" y1="111.8681212258" x2="27.2240067645" y2="111.8681212258"/>
    <line class="cls-2" x1="24.7171989835" y1="109.3613134448" x2="24.7171989835" y2="114.3749290069"/>
  </g>
  <g>
    <line class="cls-2" x1="22.2103912024" y1="129.1155822179" x2="27.2240067645" y2="129.1155822179"/>
    <path class="cls-3" d="m30.5152418404,125.0074222211c-.1096803755,2.7374339262-.0896146528,5.4811978536.0600876764,8.2163199935"/>
  </g>
  <g>
    <path class="cls-3" d="m30.5152418404,142.9471076139c-.1096803755,2.7374339262-.0896146528,5.4811978536.0600876764,8.2163199935"/>
    <line class="cls-2" x1="22.2103912024" y1="147.0552676106" x2="27.2240067645" y2="147.0552676106"/>
    <line class="cls-2" x1="24.7171989835" y1="144.5484598296" x2="24.7171989835" y2="149.5620753917"/>
  </g>
  <g>
    <line class="cls-2" x1="22.2103912024" y1="164.8070027867" x2="27.2240067645" y2="164.8070027867"/>
    <path class="cls-3" d="m30.5152418404,160.6988427899c-.1096803755,2.7374339262-.0896146528,5.4811978536.0600876764,8.2163199935"/>
  </g>
  <path class="cls-1" d="m11.1384049122,177.5416150865c-1.9387351678,2.6055633593-3.628857644,4.7604067211-5.5675928117,7.3659700804"/>
  <path class="cls-1" d="m5.3417001216,177.7815344013l5.7967047906,6.8861314508"/>
  <path class="cls-1" d="m30.0888215687,177.9141981243c-.4576364028,1.1310705532-.8350100181,1.9468985478-1.2790416779,2.9091991511s-.997268974,1.9008100505-1.8064634442,2.5965159177-1.9104594801,1.1225673381-2.968929373.9372831058-2.0052243159-1.0812981246-2.0384243036-2.1374203242c-.0313147741-.9961437547.7503725517-1.9082850127,1.7111851625-2.2270165617s2.0415836961-.1184228755,2.937062023.3492637897,1.6320417326,1.180360608,2.3086567714,1.9226971268,1.3102424782,1.527464764,1.9949085894,2.2702817997"/>
  <g>
    <path class="cls-1" d="m148.8318308492,35.0127035545c-.1739913055.6823073593-.1734773565.7448232303-.1816279361,1.4429265134s.1622600544,1.415889551.6265013312,1.9919287392,1.2544068009.98742256,2.0752097973.9547554947c1.1142477184-.0443458456,2.0065296816-.8829960316,2.3160945067-1.7934975364s.164037974-1.8821731423.0160653502-2.8215257143c.3630742132,2.1812453972.5936616547,4.1562178735-.1341261728,6.1272107051-.205587361.5567711421-.4793392372,1.103931845-.9059265917,1.5612531335s-1.0199112371.8205125424-1.6947925864.9287852045c-.7374955268.1183181521-1.536951899-.0906916469-2.0685743221-.5408077388s-.7803942422-1.1286241182-.643691168-1.7556233886"/>
    <path class="cls-1" d="m148.5824133197,62.5034972277c-.0707114272-2.649762932-.1087925584-5.4269440033,1.3175660853-7.7841100529.3892147531-.6432074149.935641105-1.2773051141,1.7399035441-1.5142502119s1.8796682788.117160274,2.0163329175.8310135316c.0966350495.5047622878-.2797257164.9845130437-.6894633682,1.3591279715-.9742940523.8907775458-2.6050359878,1.5371596611-3.9916524919,1.8384673153.6474081481-.2051754402,1.6604052463-.4129124639,2.3511900861-.4269004701s1.427509731.2014537722,1.8148313083.6876256839c.4366928884.5481435243.312096827,1.333138677-.1788877805,1.8470499065s-1.2790008661.7766946879-2.0564825898.8187970274-1.5513453115-.114325415-2.2932539693-.3162873629"/>
  </g>
  <g>
    <path class="cls-3" d="m339.9924273106,114.7203167209c.6951641948-1.8053092544,2.234599229-3.2156988902,4.0151830853-3.6786044772,1.1124615878-.2892116591,2.4680271767-.1283714134,3.1247776955.8702246487.55381952.8420890454.4292596229,1.984865291.1757212714,2.9767384007-1.2198565214,4.7722268353-4.7281177532,8.4317540898-8.1086530092,11.8245849233"/>
    <path class="cls-3" d="m348.3107367068,126.2790954248c-3.0416372227-.2169842144-6.10728702-.0500636294-9.1122499883.4961499842"/>
  </g>
  <line class="cls-1" x1="322.8806118143" y1="120.1403836949" x2="334.1620865443" y2="120.1403836949"/>
  <g>
    <line class="cls-1" x1="152.1635329344" y1="117.34089503" x2="163.4450076643" y2="117.34089503"/>
    <line class="cls-1" x1="152.1635329344" y1="122.9091469745" x2="163.4450076643" y2="122.9091469745"/>
  </g>
  <g>
    <line class="cls-2" x1="93.8081972324" y1="147.4641691912" x2="98.8218127945" y2="147.4641691912"/>
    <line class="cls-2" x1="96.3150050135" y1="144.9573614102" x2="96.3150050135" y2="149.9709769723"/>
  </g>
  <g>
    <line class="cls-2" x1="75.4738637698" y1="112.1145950056" x2="80.4874793319" y2="112.1145950056"/>
    <line class="cls-2" x1="77.9806715508" y1="109.6077872245" x2="77.9806715508" y2="114.6214027866"/>
  </g>
  <line class="cls-2" x1="112.2247723592" y1="147.4826905307" x2="117.2383879213" y2="147.4826905307"/>
  <g>
    <line class="cls-2" x1="112.3293402827" y1="129.1255631681" x2="117.3429558448" y2="129.1255631681"/>
    <line class="cls-2" x1="114.8361480638" y1="126.618755387" x2="114.8361480638" y2="131.6323709491"/>
  </g>
  <line class="cls-2" x1="40.2866943104" y1="75.791533162" x2="45.3003098725" y2="75.791533162"/>
  <g>
    <line class="cls-2" x1="93.1314833329" y1="75.791533162" x2="98.145098895" y2="75.791533162"/>
    <line class="cls-2" x1="95.6382911139" y1="73.284725381" x2="95.6382911139" y2="78.2983409431"/>
  </g>
  <g>
    <line class="cls-2" x1="39.581147525" y1="129.6404406807" x2="44.5947630871" y2="129.6404406807"/>
    <line class="cls-2" x1="42.0879553061" y1="127.1336328997" x2="42.0879553061" y2="132.1472484618"/>
  </g>
  <g>
    <line class="cls-2" x1="57.8605343383" y1="92.7307349851" x2="62.8741499004" y2="92.7307349851"/>
    <line class="cls-2" x1="60.3673421194" y1="90.2239272041" x2="60.3673421194" y2="95.2375427662"/>
  </g>
  <path class="cls-3" d="m120.3579920275,143.6379948158c-.0884722894,2.5618769703-.0722865276,5.1296779865.0484689651,7.6893914298"/>
  <path class="cls-3" d="m120.462559951,125.2808674532c-.0884722894,2.5618769703-.0722865276,5.1296779865.0484689651,7.6893914298"/>
  <path class="cls-3" d="m101.9770192427,143.6379948158c-.0884722894,2.5618769703-.0722865276,5.1296779865.0484689651,7.6893914298"/>
  <path class="cls-3" d="m65.7365641065,88.8860392702c-.0884722894,2.5618769703-.0722865276,5.1296779865.0484689651,7.6893914298"/>
  <g>
    <path class="cls-3" d="m46.5130455187,73.7473886402c.3445853247-.8948721471,1.1076665148-1.5939869378,1.9902825512-1.8234441987.5514351002-.1433590714,1.2233742076-.0636323123,1.5489182913.4313608862.2745223079.4174143739.2127793227.98387612.0871031216,1.4755368242-.6046695999,2.3655408978-2.343676506,4.1795287249-4.0193710361,5.861318039"/>
    <path class="cls-3" d="m50.6363409438,79.4769494295c-1.5077064639-.1075567132-3.0273156996-.0248159961-4.5168431348.2459361467"/>
  </g>
  <g>
    <path class="cls-3" d="m99.8232510728,73.1637036842c.3445853247-.8948721471,1.1076665148-1.5939869378,1.9902825512-1.8234441987.5514351002-.1433590714,1.2233742076-.0636323123,1.5489182913.4313608862.2745223079.4174143739.2127793227.98387612.0871031216,1.4755368242-.6046695999,2.3655408978-2.343676506,4.1795287249-4.0193710361,5.861318039"/>
    <path class="cls-3" d="m103.9465464979,78.8932644735c-1.5077064639-.1075567132-3.0273156996-.0248159961-4.5168431348.2459361467"/>
  </g>
  <g>
    <path class="cls-3" d="m46.6788225631,127.5962961589c.3445853247-.8948721471,1.1076665148-1.5939869378,1.9902825512-1.8234441987.5514351002-.1433590714,1.2233742076-.0636323123,1.5489182913.4313608862.2745223079.4174143739.2127793227.98387612.0871031216,1.4755368242-.6046695999,2.3655408978-2.343676506,4.1795287249-4.0193710361,5.861318039"/>
    <path class="cls-3" d="m50.8021179882,133.3258569482c-1.5077064639-.1075567132-3.0273156996-.0248159961-4.5168431348.2459361467"/>
  </g>
  <g>
    <path class="cls-3" d="m82.5014546902,109.7913974514c.3445853247-.8948721471,1.1076665148-1.5939869378,1.9902825512-1.8234441987.5514351002-.1433590714,1.2233742076-.0636323123,1.5489182913.4313608862.2745223079.4174143739.2127793227.98387612.0871031216,1.4755368242-.6046695999,2.3655408978-2.343676506,4.1795287249-4.0193710361,5.861318039"/>
    <path class="cls-3" d="m86.6247501153,115.5209582407c-1.5077064639-.1075567132-3.0273156996-.0248159961-4.5168431348.2459361467"/>
  </g>
  <g>
    <path class="cls-3" d="m404.9592817879,71.130404091c-.1096803755,2.7374339262-.0896146528,5.4811978536.0600876764,8.2163199935"/>
    <line class="cls-2" x1="396.65443115" y1="75.2385640877" x2="401.6680467121" y2="75.2385640877"/>
    <line class="cls-2" x1="399.1612389311" y1="72.7317563067" x2="399.1612389311" y2="77.7453718688"/>
  </g>
  <g>
    <line class="cls-2" x1="433.7308687051" y1="111.8508951623" x2="438.7444842671" y2="111.8508951623"/>
    <path class="cls-3" d="m442.035719343,107.7427351656c-.1096803755,2.7374339262-.0896146528,5.4811978536.0600876764,8.2163199935"/>
  </g>
  <g>
    <line class="cls-2" x1="451.4466135797" y1="75.2385640877" x2="456.4602291418" y2="75.2385640877"/>
    <path class="cls-3" d="m459.7514642177,71.130404091c-.1096803755,2.7374339262-.0896146528,5.4811978536.0600876764,8.2163199935"/>
  </g>
  <g>
    <line class="cls-2" x1="397.3687750497" y1="129.0983561544" x2="402.3823906118" y2="129.0983561544"/>
    <path class="cls-3" d="m405.6736256876,124.9901961576c-.1096803755,2.7374339262-.0896146528,5.4811978536.0600876764,8.2163199935"/>
  </g>
  <g>
    <path class="cls-3" d="m239.7403123183,89.0463490098c-.1096803755,2.7374339262-.0896146528,5.4811978536.0600876764,8.2163199935"/>
    <line class="cls-2" x1="231.4354616803" y1="93.1545090066" x2="236.4490772424" y2="93.1545090066"/>
    <line class="cls-2" x1="233.9422694614" y1="90.6477012255" x2="233.9422694614" y2="95.6613167876"/>
  </g>
  <g>
    <path class="cls-3" d="m294.5964547757,124.9901961576c-.1096803755,2.7374339262-.0896146528,5.4811978536.0600876764,8.2163199935"/>
    <line class="cls-2" x1="286.2916041377" y1="129.0983561544" x2="291.3052196998" y2="129.0983561544"/>
    <line class="cls-2" x1="288.7984119188" y1="126.5915483733" x2="288.7984119188" y2="131.6051639354"/>
  </g>
  <g>
    <path class="cls-3" d="m275.6219915526,142.9298815504c-.1096803755,2.7374339262-.0896146528,5.4811978536.0600876764,8.2163199935"/>
    <line class="cls-2" x1="267.3171409147" y1="147.0380415471" x2="272.3307564768" y2="147.0380415471"/>
    <line class="cls-2" x1="269.8239486957" y1="144.5312337661" x2="269.8239486957" y2="149.5448493282"/>
  </g>
  <g>
    <line class="cls-2" x1="286.1448767002" y1="147.0380415471" x2="291.1584922623" y2="147.0380415471"/>
    <path class="cls-3" d="m294.4497273381,142.9298815504c-.1096803755,2.7374339262-.0896146528,5.4811978536.0600876764,8.2163199935"/>
  </g>
  <g>
    <g>
      <path class="cls-6" d="m298.1271971353,344.0190508081l6.4934749883,10.2420228167-.3225925074.4162215368c-2.8304890975,0-5.5985409355-1.2040694458-8.2729368842-3.4932878983l2.1020544033-7.1649564552Z"/>
      <path class="cls-6" d="m305.4115440774,355.7178490036l-11.0409887221,1.2486646104-.0104062099-.133785494,1.6649935868-5.6487208568c2.6743959487,2.2892184525,5.4424477867,3.4932878983,8.2729368842,3.4932878983l.3225925074-.4162215368.8429030033,1.3229898849-.0520310496.133785494Z"/>
    </g>
    <g>
      <path class="cls-1" d="m263.1103007639,181.1575094739c0,83.9726950526,14.1212268576,153.9127782926,32.9148419681,170.0264977893,2.6743959487,2.2892184525,5.4424477867,3.4932878983,8.2729368842,3.4932878983"/>
      <polyline class="cls-1" points="305.4635751269 355.5840635096 304.6206721236 354.2610736247 298.1271971353 344.0190508081"/>
      <polyline class="cls-1" points="305.4115440774 355.7178490036 294.3705553552 356.966513614 294.3185243056 356.966513614"/>
      <polyline class="cls-1" points="294.3601491453 356.83272812 296.025142732 351.1840072633 298.1271971353 344.0190508081"/>
    </g>
  </g>
  <g>
    <line class="cls-1" x1="228.5693436961" y1="178.9441911695" x2="224.4605424179" y2="187.5567603374"/>
    <line class="cls-1" x1="228.7346503859" y1="178.9441911695" x2="232.843451664" y2="187.5567603374"/>
    <line class="cls-1" x1="225.5506195395" y1="178.9441911695" x2="221.4418182613" y2="187.5567603374"/>
  </g>
  <g>
    <line class="cls-1" x1="448.797924863" y1="178.9441911695" x2="444.6891235848" y2="187.5567603374"/>
    <line class="cls-1" x1="448.9632315527" y1="178.9441911695" x2="453.0720328309" y2="187.5567603374"/>
    <line class="cls-1" x1="445.7792007064" y1="178.9441911695" x2="441.6703994282" y2="187.5567603374"/>
  </g>
  <g>
    <line class="cls-1" x1="91.5064333277" y1="178.9441911695" x2="87.3976320495" y2="187.5567603374"/>
    <line class="cls-1" x1="91.6717400175" y1="178.9441911695" x2="95.7805412956" y2="187.5567603374"/>
    <line class="cls-1" x1="88.4877091711" y1="178.9441911695" x2="84.3789078929" y2="187.5567603374"/>
  </g>
  <polyline class="cls-1" points="563.3637893601 267.3897811114 670.8594588732 267.3897811114 670.8594588732 410.7173404623 527.5318995223 410.7173404623 527.5318995223 303.2216709491"/>
  <line class="cls-1" x1="527.5318995223" y1="374.8854506246" x2="670.8594588732" y2="374.8854506246"/>
  <line class="cls-1" x1="527.5318995223" y1="339.0535607868" x2="670.8594588732" y2="339.0535607868"/>
  <line class="cls-1" x1="527.5318995223" y1="303.2216709491" x2="670.8594588732" y2="303.2216709491"/>
  <line class="cls-1" x1="635.0275690355" y1="267.9550603647" x2="635.0275690355" y2="410.7173404623"/>
  <line class="cls-1" x1="599.1956791978" y1="267.3897811114" x2="599.1956791978" y2="410.7173404623"/>
  <line class="cls-1" x1="563.3637893601" y1="267.3897811114" x2="563.3637893601" y2="410.7173404623"/>
  <line class="cls-1" x1="544.79198855" y1="303.2216709491" x2="544.79198855" y2="410.7173404623"/>
  <line class="cls-1" x1="563.3637893601" y1="284.0859233414" x2="670.8594588732" y2="284.0859233414"/>
  <line class="cls-1" x1="581.1421499806" y1="284.0859233414" x2="581.1421499806" y2="303.2216709491"/>
  <line class="cls-1" x1="617.1116241166" y1="284.0859233414" x2="617.1116241166" y2="303.2216709491"/>
  <line class="cls-1" x1="653.1992640657" y1="284.0859233414" x2="653.1992640657" y2="303.2216709491"/>
  <line class="cls-1" x1="544.79198855" y1="320.9137012479" x2="563.3637893601" y2="320.9137012479"/>
  <line class="cls-1" x1="544.79198855" y1="356.9695057057" x2="563.3637893601" y2="356.9695057057"/>
  <line class="cls-1" x1="544.79198855" y1="392.9044756711" x2="563.3637893601" y2="392.9044756711"/>
  <line class="cls-4" x1="563.3637893601" y1="320.9137012479" x2="670.8594588732" y2="320.9137012479"/>
  <line class="cls-4" x1="581.1421499806" y1="303.2216709491" x2="581.1421499806" y2="410.7173404623"/>
  <line class="cls-4" x1="563.3637893601" y1="392.9044756711" x2="670.8594588732" y2="392.9044756711"/>
  <line class="cls-4" x1="563.3637893601" y1="356.9695057057" x2="670.8594588732" y2="356.9695057057"/>
  <line class="cls-4" x1="653.1992640657" y1="303.2216709491" x2="653.1992640657" y2="410.7173404623"/>
  <line class="cls-4" x1="617.1116241166" y1="303.2216709491" x2="617.1116241166" y2="410.7173404623"/>
  <path class="cls-3" d="m581.248809208,271.1168264378c-.0884722894,2.5618769703-.0722865276,5.1296779865.0484689651,7.6893914298"/>
  <g>
    <path class="cls-3" d="m613.9798247306,272.9173776309c.3445853247-.8948721471,1.1076665148-1.5939869378,1.9902825512-1.8234441987.5514351002-.1433590714,1.2233742076-.0636323123,1.5489182913.4313608862.2745223079.4174143739.2127793227.98387612.0871031216,1.4755368242-.6046695999,2.3655408978-2.343676506,4.1795287249-4.0193710361,5.861318039"/>
    <path class="cls-3" d="m618.1031201556,278.6469384202c-1.5077064639-.1075567132-3.0273156996-.0248159961-4.5168431348.2459361467"/>
  </g>
  <g>
    <path class="cls-3" d="m651.0863838417,272.6776343282c.4244493626-.8386897197,1.3249201057-1.4459262636,2.303348125-1.5532732912.5003297929-.0548931505,1.0669201878.0418628396,1.3744813797.4182384321.2139450718.2618137224.2639444252.6198031306.1952523109.9439866569s-.244553483.6196034489-.4460731506.8900515574c-.6475305471.8690138079-1.5927901617,1.5371779216-2.6586680646,1.8793001942"/>
    <path class="cls-3" d="m650.773086189,278.0258306863c.1526737102.3409818903.494066154.5860149096.8678233818.6985125505s.7775593228.1051216947,1.165196769.0481376848c.7783529894-.114420655,1.5518297404-.4498341006,2.0141993435-1.0515947662s.5352370278-1.4956568859.0400546496-2.0737088112c-.3380680883-.3946443447-.884254517-.5931948228-1.4211373021-.6228731686s-1.0701765035.0918044756-1.5838632611.2420561047"/>
  </g>
  <path class="cls-3" d="m535.4739141313,317.069005533c-.0884722894,2.5618769703-.0722865276,5.1296779865.0484689651,7.6893914298"/>
  <g>
    <path class="cls-3" d="m534.4154391013,354.9253611838c.3445853247-.8948721471,1.1076665148-1.5939869378,1.9902825512-1.8234441987.5514351002-.1433590714,1.2233742076-.0636323123,1.5489182913.4313608862.2745223079.4174143739.2127793227.98387612.0871031216,1.4755368242-.6046695999,2.3655408978-2.343676506,4.1795287249-4.0193710361,5.861318039"/>
    <path class="cls-3" d="m538.5387345264,360.6549219732c-1.5077064639-.1075567132-3.0273156996-.0248159961-4.5168431348.2459361467"/>
  </g>
  <g>
    <path class="cls-3" d="m533.5696104319,390.6205878466c.4244493626-.8386897197,1.3249201057-1.4459262636,2.303348125-1.5532732911.5003297929-.0548931505,1.0669201878.0418628396,1.3744813797.4182384321.2139450718.2618137224.2639444252.6198031306.1952523109.9439866569s-.244553483.6196034489-.4460731506.8900515574c-.6475305471.8690138079-1.5927901617,1.5371779216-2.6586680646,1.8793001942"/>
    <path class="cls-3" d="m533.2563127792,395.9687842046c.1526737102.3409818903.494066154.5860149096.8678233818.6985125505s.7775593228.1051216947,1.165196769.0481376848c.7783529894-.114420655,1.5518297404-.4498341006,2.0141993435-1.0515947662s.5352370278-1.4956568859.0400546496-2.0737088112c-.3380680883-.3946443447-.884254517-.5931948228-1.4211373022-.6228731686s-1.0701765035.0918044756-1.5838632611.2420561047"/>
  </g>
  <g>
    <path class="cls-3" d="m576.3753511511,289.5456371485c-.1096803755,2.7374339262-.0896146528,5.4811978536.0600876764,8.2163199935"/>
    <line class="cls-2" x1="568.0705005132" y1="293.6537971453" x2="573.0841160753" y2="293.6537971453"/>
    <line class="cls-2" x1="570.5773082942" y1="291.1469893642" x2="570.5773082942" y2="296.1606049263"/>
  </g>
  <g>
    <line class="cls-2" x1="585.986445432" y1="293.6537971453" x2="591.0000609941" y2="293.6537971453"/>
    <path class="cls-3" d="m594.29129607,289.5456371485c-.1096803755,2.7374339262-.0896146528,5.4811978536.0600876764,8.2163199935"/>
  </g>
  <g>
    <path class="cls-3" d="m611.9057616958,289.5456371485c-.1096803755,2.7374339262-.0896146528,5.4811978536.0600876764,8.2163199935"/>
    <line class="cls-2" x1="603.6009110579" y1="293.6537971453" x2="608.61452662" y2="293.6537971453"/>
    <line class="cls-2" x1="606.1077188389" y1="291.1469893642" x2="606.1077188389" y2="296.1606049263"/>
  </g>
  <g>
    <line class="cls-2" x1="621.3166559326" y1="293.6537971453" x2="626.3302714947" y2="293.6537971453"/>
    <path class="cls-3" d="m629.6215065705,289.5456371485c-.1096803755,2.7374339262-.0896146528,5.4811978536.0600876764,8.2163199935"/>
  </g>
  <g>
    <path class="cls-3" d="m647.7648233886,289.5456371485c-.1096803755,2.7374339262-.0896146528,5.4811978536.0600876764,8.2163199935"/>
    <line class="cls-2" x1="639.4599727507" y1="293.6537971453" x2="644.4735883128" y2="293.6537971453"/>
    <line class="cls-2" x1="641.9667805317" y1="291.1469893642" x2="641.9667805317" y2="296.1606049263"/>
  </g>
  <g>
    <line class="cls-2" x1="656.6921081426" y1="293.6537971453" x2="661.7057237047" y2="293.6537971453"/>
    <path class="cls-3" d="m664.9969587806,289.5456371485c-.1096803755,2.7374339262-.0896146528,5.4811978536.0600876764,8.2163199935"/>
  </g>
  <g>
    <path class="cls-3" d="m557.5471413627,307.9595261017c-.1096803755,2.7374339262-.0896146528,5.4811978536.0600876764,8.2163199935"/>
    <line class="cls-2" x1="549.2422907248" y1="312.0676860985" x2="554.2559062869" y2="312.0676860985"/>
    <line class="cls-2" x1="551.7490985058" y1="309.5608783174" x2="551.7490985058" y2="314.5744938795"/>
  </g>
  <g>
    <line class="cls-2" x1="549.4079614408" y1="329.9836310173" x2="554.4215770029" y2="329.9836310173"/>
    <path class="cls-3" d="m557.7128120787,325.8754710206c-.1096803755,2.7374339262-.0896146528,5.4811978536.0600876764,8.2163199935"/>
  </g>
  <g>
    <path class="cls-3" d="m557.5471413627,344.5718571763c-.1096803755,2.7374339262-.0896146528,5.4811978536.0600876764,8.2163199935"/>
    <line class="cls-2" x1="549.2422907248" y1="348.6800171731" x2="554.2559062869" y2="348.6800171731"/>
    <line class="cls-2" x1="551.7490985058" y1="346.173209392" x2="551.7490985058" y2="351.1868249541"/>
  </g>
  <g>
    <line class="cls-2" x1="549.2422907248" y1="365.9274781651" x2="554.2559062869" y2="365.9274781651"/>
    <path class="cls-3" d="m557.5471413627,361.8193181684c-.1096803755,2.7374339262-.0896146528,5.4811978536.0600876764,8.2163199935"/>
  </g>
  <g>
    <path class="cls-3" d="m557.5471413627,379.7590035611c-.1096803755,2.7374339262-.0896146528,5.4811978536.0600876764,8.2163199935"/>
    <line class="cls-2" x1="549.2422907248" y1="383.8671635579" x2="554.2559062869" y2="383.8671635579"/>
    <line class="cls-2" x1="551.7490985058" y1="381.3603557768" x2="551.7490985058" y2="386.3739713389"/>
  </g>
  <g>
    <line class="cls-2" x1="549.2422907248" y1="401.6188987339" x2="554.2559062869" y2="401.6188987339"/>
    <path class="cls-3" d="m557.5471413627,397.5107387371c-.1096803755,2.7374339262-.0896146528,5.4811978536.0600876764,8.2163199935"/>
  </g>
  <path class="cls-1" d="m538.1703044345,414.3535110337c-1.9387351678,2.6055633593-3.628857644,4.7604067211-5.5675928117,7.3659700804"/>
  <path class="cls-1" d="m532.3735996439,414.5934303486l5.7967047906,6.8861314508"/>
  <path class="cls-1" d="m557.120721091,414.7260940715c-.4576364028,1.1310705532-.8350100181,1.9468985478-1.2790416779,2.9091991511s-.997268974,1.9008100505-1.8064634442,2.5965159177-1.9104594801,1.1225673381-2.968929373.9372831058-2.0052243159-1.0812981246-2.0384243036-2.1374203242c-.0313147741-.9961437547.7503725517-1.9082850127,1.7111851625-2.2270165617s2.0415836961-.1184228755,2.937062023.3492637897,1.6320417326,1.180360608,2.3086567714,1.9226971268,1.3102424782,1.527464764,1.9949085894,2.2702817997"/>
  <g>
    <path class="cls-1" d="m675.8637303716,271.8245995018c-.1739913055.6823073593-.1734773565.7448232303-.1816279361,1.4429265134s.1622600544,1.415889551.6265013312,1.9919287392,1.2544068009.98742256,2.0752097973.9547554947c1.1142477184-.0443458456,2.0065296816-.8829960316,2.3160945067-1.7934975364s.164037974-1.8821731423.0160653502-2.8215257143c.3630742132,2.1812453972.5936616547,4.1562178735-.1341261728,6.1272107051-.205587361.5567711421-.4793392372,1.103931845-.9059265917,1.5612531335s-1.0199112371.8205125424-1.6947925864.9287852046c-.7374955268.1183181521-1.536951899-.0906916469-2.0685743221-.5408077388s-.7803942422-1.1286241182-.643691168-1.7556233886"/>
    <path class="cls-1" d="m675.6143128421,299.3153931749c-.0707114272-2.649762932-.1087925584-5.4269440033,1.3175660853-7.7841100529.3892147531-.6432074149.935641105-1.2773051141,1.7399035441-1.5142502119s1.8796682788.117160274,2.0163329175.8310135316c.0966350495.5047622878-.2797257164.9845130437-.6894633682,1.3591279715-.9742940523.8907775458-2.6050359878,1.5371596611-3.9916524919,1.8384673153.6474081481-.2051754402,1.6604052463-.4129124639,2.3511900861-.42690047s1.427509731.2014537722,1.8148313083.6876256839c.4366928884.5481435243.312096827,1.333138677-.1788877805,1.8470499065s-1.2790008661.7766946879-2.0564825898.8187970275-1.5513453115-.114325415-2.2932539693-.3162873629"/>
  </g>
  <g>
    <line class="cls-1" x1="337.3091842472" y1="354.0838867232" x2="348.5906589771" y2="354.0838867232"/>
    <line class="cls-1" x1="337.3091842472" y1="359.6521386676" x2="348.5906589771" y2="359.6521386676"/>
  </g>
  <polyline class="cls-1" points="393.623381373 267.3553289844 501.1190508862 267.3553289844 501.1190508862 410.6828883352 357.7914915353 410.6828883352 357.7914915353 303.1872188221"/>
  <line class="cls-1" x1="357.7914915353" y1="374.8509984975" x2="501.1190508862" y2="374.8509984975"/>
  <line class="cls-1" x1="357.7914915353" y1="339.0191086598" x2="501.1190508862" y2="339.0191086598"/>
  <line class="cls-1" x1="357.7914915353" y1="303.1872188221" x2="501.1190508862" y2="303.1872188221"/>
  <line class="cls-1" x1="465.2871610484" y1="267.9206082376" x2="465.2871610484" y2="410.6828883352"/>
  <line class="cls-1" x1="429.4552712107" y1="267.3553289844" x2="429.4552712107" y2="410.6828883352"/>
  <line class="cls-1" x1="393.623381373" y1="267.3553289844" x2="393.623381373" y2="410.6828883352"/>
  <line class="cls-1" x1="375.051580563" y1="303.1872188221" x2="375.051580563" y2="410.6828883352"/>
  <line class="cls-1" x1="393.623381373" y1="284.0514712144" x2="501.1190508862" y2="284.0514712144"/>
  <line class="cls-1" x1="411.4017419935" y1="284.0514712144" x2="411.4017419935" y2="303.1872188221"/>
  <line class="cls-1" x1="447.3712161296" y1="284.0514712144" x2="447.3712161296" y2="303.1872188221"/>
  <line class="cls-1" x1="483.4588560787" y1="284.0514712144" x2="483.4588560787" y2="303.1872188221"/>
  <line class="cls-1" x1="375.051580563" y1="320.8792491208" x2="393.623381373" y2="320.8792491208"/>
  <line class="cls-1" x1="375.051580563" y1="356.9350535786" x2="393.623381373" y2="356.9350535786"/>
  <line class="cls-1" x1="375.051580563" y1="392.870023544" x2="393.623381373" y2="392.870023544"/>
  <line class="cls-4" x1="393.623381373" y1="320.8792491208" x2="501.1190508862" y2="320.8792491208"/>
  <line class="cls-4" x1="411.4017419935" y1="303.1872188221" x2="411.4017419935" y2="410.6828883352"/>
  <line class="cls-4" x1="393.623381373" y1="392.870023544" x2="501.1190508862" y2="392.870023544"/>
  <line class="cls-4" x1="393.623381373" y1="356.9350535786" x2="501.1190508862" y2="356.9350535786"/>
  <line class="cls-4" x1="483.4588560787" y1="303.1872188221" x2="483.4588560787" y2="410.6828883352"/>
  <line class="cls-4" x1="447.3712161296" y1="303.1872188221" x2="447.3712161296" y2="410.6828883352"/>
  <path class="cls-3" d="m411.5084012209,271.0823743108c-.0884722894,2.5618769703-.0722865276,5.1296779865.0484689651,7.6893914298"/>
  <g>
    <path class="cls-3" d="m444.2394167435,272.8829255039c.3445853247-.8948721471,1.1076665148-1.5939869378,1.9902825512-1.8234441987.5514351002-.1433590714,1.2233742076-.0636323123,1.5489182913.4313608862.2745223079.4174143739.2127793227.98387612.0871031216,1.4755368242-.6046695999,2.3655408978-2.343676506,4.1795287249-4.0193710361,5.861318039"/>
    <path class="cls-3" d="m448.3627121686,278.6124862932c-1.5077064639-.1075567132-3.0273156996-.0248159961-4.5168431348.2459361467"/>
  </g>
  <g>
    <path class="cls-3" d="m481.3459758547,272.6431822012c.4244493626-.8386897197,1.3249201057-1.4459262636,2.303348125-1.5532732912.5003297929-.0548931505,1.0669201878.0418628396,1.3744813797.4182384321.2139450718.2618137224.2639444252.6198031306.1952523109.9439866569s-.244553483.6196034489-.4460731506.8900515574c-.6475305471.8690138079-1.5927901617,1.5371779216-2.6586680646,1.8793001942"/>
    <path class="cls-3" d="m481.0326782019,277.9913785593c.1526737102.3409818903.494066154.5860149096.8678233818.6985125505s.7775593228.1051216947,1.165196769.0481376848c.7783529894-.114420655,1.5518297404-.4498341006,2.0141993435-1.0515947662s.5352370278-1.4956568859.0400546496-2.0737088112c-.3380680883-.3946443447-.884254517-.5931948228-1.4211373021-.6228731686s-1.0701765035.0918044756-1.5838632611.2420561047"/>
  </g>
  <path class="cls-3" d="m365.7335061443,317.0345534059c-.0884722894,2.5618769703-.0722865276,5.1296779865.0484689651,7.6893914298"/>
  <g>
    <path class="cls-3" d="m364.6750311142,354.8909090568c.3445853247-.8948721471,1.1076665148-1.5939869378,1.9902825512-1.8234441987.5514351002-.1433590714,1.2233742076-.0636323123,1.5489182913.4313608862.2745223079.4174143739.2127793227.98387612.0871031216,1.4755368242-.6046695999,2.3655408978-2.343676506,4.1795287249-4.0193710361,5.861318039"/>
    <path class="cls-3" d="m368.7983265393,360.6204698461c-1.5077064639-.1075567132-3.0273156996-.0248159961-4.5168431348.2459361467"/>
  </g>
  <g>
    <path class="cls-3" d="m363.8292024449,390.5861357195c.4244493626-.8386897197,1.3249201057-1.4459262636,2.303348125-1.5532732911.5003297929-.0548931505,1.0669201878.0418628396,1.3744813797.4182384321.2139450718.2618137224.2639444252.6198031306.1952523109.9439866569s-.244553483.6196034489-.4460731506.8900515574c-.6475305471.8690138079-1.5927901617,1.5371779216-2.6586680646,1.8793001942"/>
    <path class="cls-3" d="m363.5159047921,395.9343320776c.1526737102.3409818903.494066154.5860149096.8678233818.6985125505s.7775593228.1051216947,1.165196769.0481376848c.7783529894-.114420655,1.5518297404-.4498341006,2.0141993435-1.0515947662s.5352370278-1.4956568859.0400546496-2.0737088112c-.3380680883-.3946443447-.884254517-.5931948228-1.4211373022-.6228731686s-1.0701765035.0918044756-1.5838632611.2420561047"/>
  </g>
  <g>
    <path class="cls-3" d="m406.634943164,289.5111850215c-.1096803755,2.7374339262-.0896146528,5.4811978536.0600876764,8.2163199935"/>
    <line class="cls-2" x1="398.3300925261" y1="293.6193450182" x2="403.3437080882" y2="293.6193450182"/>
    <line class="cls-2" x1="400.8369003072" y1="291.1125372372" x2="400.8369003072" y2="296.1261527993"/>
  </g>
  <g>
    <line class="cls-2" x1="416.246037445" y1="293.6193450182" x2="421.2596530071" y2="293.6193450182"/>
    <path class="cls-3" d="m424.5508880829,289.5111850215c-.1096803755,2.7374339262-.0896146528,5.4811978536.0600876764,8.2163199935"/>
  </g>
  <g>
    <path class="cls-3" d="m442.1653537088,289.5111850215c-.1096803755,2.7374339262-.0896146528,5.4811978536.0600876764,8.2163199935"/>
    <line class="cls-2" x1="433.8605030708" y1="293.6193450182" x2="438.8741186329" y2="293.6193450182"/>
    <line class="cls-2" x1="436.3673108519" y1="291.1125372372" x2="436.3673108519" y2="296.1261527993"/>
  </g>
  <g>
    <line class="cls-2" x1="451.5762479455" y1="293.6193450182" x2="456.5898635076" y2="293.6193450182"/>
    <path class="cls-3" d="m459.8810985834,289.5111850215c-.1096803755,2.7374339262-.0896146528,5.4811978536.0600876764,8.2163199935"/>
  </g>
  <g>
    <path class="cls-3" d="m478.0244154016,289.5111850215c-.1096803755,2.7374339262-.0896146528,5.4811978536.0600876764,8.2163199935"/>
    <line class="cls-2" x1="469.7195647636" y1="293.6193450182" x2="474.7331803257" y2="293.6193450182"/>
    <line class="cls-2" x1="472.2263725447" y1="291.1125372372" x2="472.2263725447" y2="296.1261527993"/>
  </g>
  <g>
    <line class="cls-2" x1="486.9517001556" y1="293.6193450182" x2="491.9653157177" y2="293.6193450182"/>
    <path class="cls-3" d="m495.2565507935,289.5111850215c-.1096803755,2.7374339262-.0896146528,5.4811978536.0600876764,8.2163199935"/>
  </g>
  <g>
    <path class="cls-3" d="m387.8067333756,307.9250739747c-.1096803755,2.7374339262-.0896146528,5.4811978536.0600876764,8.2163199935"/>
    <line class="cls-2" x1="379.5018827377" y1="312.0332339714" x2="384.5154982998" y2="312.0332339714"/>
    <line class="cls-2" x1="382.0086905188" y1="309.5264261904" x2="382.0086905188" y2="314.5400417525"/>
  </g>
  <g>
    <line class="cls-2" x1="379.6675534537" y1="329.9491788903" x2="384.6811690158" y2="329.9491788903"/>
    <path class="cls-3" d="m387.9724040917,325.8410188936c-.1096803755,2.7374339262-.0896146528,5.4811978536.0600876764,8.2163199935"/>
  </g>
  <g>
    <path class="cls-3" d="m387.8067333756,344.5374050493c-.1096803755,2.7374339262-.0896146528,5.4811978536.0600876764,8.2163199935"/>
    <line class="cls-2" x1="379.5018827377" y1="348.645565046" x2="384.5154982998" y2="348.645565046"/>
    <line class="cls-2" x1="382.0086905188" y1="346.138757265" x2="382.0086905188" y2="351.1523728271"/>
  </g>
  <g>
    <line class="cls-2" x1="379.5018827377" y1="365.8930260381" x2="384.5154982998" y2="365.8930260381"/>
    <path class="cls-3" d="m387.8067333756,361.7848660413c-.1096803755,2.7374339262-.0896146528,5.4811978536.0600876764,8.2163199935"/>
  </g>
  <g>
    <path class="cls-3" d="m387.8067333756,379.7245514341c-.1096803755,2.7374339262-.0896146528,5.4811978536.0600876764,8.2163199935"/>
    <line class="cls-2" x1="379.5018827377" y1="383.8327114308" x2="384.5154982998" y2="383.8327114308"/>
    <line class="cls-2" x1="382.0086905188" y1="381.3259036498" x2="382.0086905188" y2="386.3395192119"/>
  </g>
  <g>
    <line class="cls-2" x1="379.5018827377" y1="401.5844466069" x2="384.5154982998" y2="401.5844466069"/>
    <path class="cls-3" d="m387.8067333756,397.4762866101c-.1096803755,2.7374339262-.0896146528,5.4811978536.0600876764,8.2163199935"/>
  </g>
  <path class="cls-1" d="m368.4298964475,414.3190589067c-1.9387351678,2.6055633593-3.628857644,4.7604067211-5.5675928117,7.3659700804"/>
  <path class="cls-1" d="m362.6331916569,414.5589782215l5.7967047906,6.8861314508"/>
  <path class="cls-1" d="m387.3803131039,414.6916419445c-.4576364028,1.1310705532-.8350100181,1.9468985478-1.2790416779,2.9091991511s-.997268974,1.9008100505-1.8064634442,2.5965159177-1.9104594801,1.1225673381-2.968929373.9372831058-2.0052243159-1.0812981246-2.0384243036-2.1374203242c-.0313147741-.9961437547.7503725517-1.9082850127,1.7111851625-2.2270165617s2.0415836961-.1184228755,2.937062023.3492637897,1.6320417326,1.180360608,2.3086567714,1.9226971268,1.3102424782,1.527464764,1.9949085894,2.2702817997"/>
  <g>
    <line class="cls-1" x1="513.7371674207" y1="351.2598640866" x2="513.7371674207" y2="362.5413388166"/>
    <line class="cls-1" x1="508.0964300558" y1="356.9006014516" x2="519.3779047857" y2="356.9006014516"/>
  </g>
  <g>
    <path class="cls-1" d="m506.170164877,271.3422389412c-.1739913055.6823073593-.1734773565.7448232303-.1816279361,1.4429265134s.1622600544,1.415889551.6265013312,1.9919287392,1.2544068009.98742256,2.0752097973.9547554947c1.1142477184-.0443458456,2.0065296816-.8829960316,2.3160945067-1.7934975364s.164037974-1.8821731423.0160653502-2.8215257143c.3630742132,2.1812453972.5936616547,4.1562178734-.1341261728,6.1272107051-.205587361.5567711421-.4793392372,1.103931845-.9059265917,1.5612531335s-1.0199112371.8205125424-1.6947925864.9287852046c-.7374955268.1183181521-1.536951899-.0906916469-2.0685743221-.5408077388s-.7803942422-1.1286241182-.643691168-1.7556233886"/>
    <path class="cls-1" d="m505.9207473475,298.8330326144c-.0707114272-2.649762932-.1087925584-5.4269440033,1.3175660853-7.7841100529.3892147531-.6432074149.935641105-1.2773051141,1.7399035441-1.5142502119s1.8796682788.117160274,2.0163329175.8310135316c.0966350495.5047622878-.2797257164.9845130437-.6894633682,1.3591279715-.9742940523.8907775458-2.6050359878,1.5371596611-3.9916524919,1.8384673153.6474081481-.2051754402,1.6604052463-.4129124639,2.3511900861-.42690047s1.427509731.2014537722,1.8148313083.6876256839c.4366928884.5481435243.312096827,1.333138677-.1788877805,1.8470499065s-1.2790008661.7766946879-2.0564825898.8187970275-1.5513453115-.114325415-2.2932539693-.3162873629"/>
  </g>
  <g>
    <path class="cls-3" d="m592.6156346939,325.8754710206c-.1096803755,2.7374339262-.0896146528,5.4811978536.0600876764,8.2163199935"/>
    <line class="cls-2" x1="584.3107840559" y1="329.9836310173" x2="589.324399618" y2="329.9836310173"/>
    <line class="cls-2" x1="586.817591837" y1="327.4768232363" x2="586.817591837" y2="332.4904387984"/>
  </g>
  <g>
    <path class="cls-3" d="m495.4506127445,379.8847615142c-.1096803755,2.7374339262-.0896146528,5.4811978536.0600876764,8.2163199935"/>
    <line class="cls-2" x1="487.1457621065" y1="383.992921511" x2="492.1593776686" y2="383.992921511"/>
    <line class="cls-2" x1="489.6525698876" y1="381.48611373" x2="489.6525698876" y2="386.499729292"/>
  </g>
  <g>
    <path class="cls-3" d="m477.4761495214,397.824446907c-.1096803755,2.7374339262-.0896146528,5.4811978536.0600876764,8.2163199935"/>
    <line class="cls-2" x1="469.1712988835" y1="401.9326069038" x2="474.1849144456" y2="401.9326069038"/>
    <line class="cls-2" x1="471.6781066645" y1="399.4257991227" x2="471.6781066645" y2="404.4394146848"/>
  </g>
  <g>
    <line class="cls-2" x1="487.1457621065" y1="401.9326069038" x2="492.1593776686" y2="401.9326069038"/>
    <path class="cls-3" d="m495.4506127445,397.824446907c-.1096803755,2.7374339262-.0896146528,5.4811978536.0600876764,8.2163199935"/>
  </g>
  <g>
    <line class="cls-1" x1="448.797924863" y1="417.0061613654" x2="444.6891235848" y2="425.6187305333"/>
    <line class="cls-1" x1="448.9632315527" y1="417.0061613654" x2="453.0720328309" y2="425.6187305333"/>
    <line class="cls-1" x1="445.7792007064" y1="417.0061613654" x2="441.6703994282" y2="425.6187305333"/>
  </g>
  <g>
    <line class="cls-1" x1="618.5383328501" y1="417.0061613654" x2="614.4295315719" y2="425.6187305333"/>
    <line class="cls-1" x1="618.7036395398" y1="417.0061613654" x2="622.812440818" y2="425.6187305333"/>
    <line class="cls-1" x1="615.5196086935" y1="417.0061613654" x2="611.4108074153" y2="425.6187305333"/>
  </g>
  <g>
    <line class="cls-1" x1="618.5984472772" y1="254.4680295727" x2="614.489645999" y2="263.0805987406"/>
    <line class="cls-1" x1="618.7637539669" y1="254.4680295727" x2="622.8725552451" y2="263.0805987406"/>
    <line class="cls-1" x1="615.5797231206" y1="254.4680295727" x2="611.4709218424" y2="263.0805987406"/>
  </g>
  <g>
    <line class="cls-1" x1="448.8580392901" y1="254.4680295727" x2="444.7492380119" y2="263.0805987406"/>
    <line class="cls-1" x1="449.0233459799" y1="254.4680295727" x2="453.132147258" y2="263.0805987406"/>
    <line class="cls-1" x1="445.8393151335" y1="254.4680295727" x2="441.7305138554" y2="263.0805987406"/>
  </g>
  <g>
    <line class="cls-1" x1="448.6984166913" y1="17.5546388159" x2="444.5896154132" y2="26.1672079838"/>
    <line class="cls-1" x1="448.8637233811" y1="17.5546388159" x2="452.9725246593" y2="26.1672079838"/>
    <line class="cls-1" x1="445.6796925348" y1="17.5546388159" x2="441.5708912566" y2="26.1672079838"/>
  </g>
  <g>
    <line class="cls-1" x1="228.5693436961" y1="18.3258293953" x2="224.4605424179" y2="26.9383985632"/>
    <line class="cls-1" x1="228.7346503859" y1="18.3258293953" x2="232.843451664" y2="26.9383985632"/>
    <line class="cls-1" x1="225.5506195395" y1="18.3258293953" x2="221.4418182613" y2="26.9383985632"/>
  </g>
  <g>
    <line class="cls-1" x1="89.4611973387" y1="17.5546388159" x2="85.3523960605" y2="26.1672079838"/>
    <line class="cls-1" x1="89.6265040284" y1="17.5546388159" x2="93.7353053066" y2="26.1672079838"/>
    <line class="cls-1" x1="86.4424731821" y1="17.5546388159" x2="82.3336719039" y2="26.1672079838"/>
  </g>
  <g>
    <line class="cls-2" x1="82.2920132467" y1="6.8219808178" x2="89.3863604473" y2="6.8219808178"/>
    <path class="cls-3" d="m92.4770700471.5c-.0812460285,4.2125926899-.0663822913,8.4349265162.0445101053,12.6439616356"/>
  </g>
  <g>
    <path class="cls-3" d="m86.6754908876,194.3368498846c.760291195-1.5022955986,2.3732515095-2.5900027276,4.1258521107-2.7822871485.8962113498-.098326874,1.9111114212.074986444,2.4620277066.7491659204.3832272319.4689715322.4727881349,1.1102169173.349743988,1.6909078132s-.4380542797,1.1098592392-.7990246155,1.5942970395c-1.1598834086,1.5566133553-2.8530713959,2.7534564591-4.7623158335,3.3662799768"/>
    <path class="cls-3" d="m86.1142992171,203.9167596658c.2734754433.610780818.8849916615,1.049694063,1.554481015,1.2512044747s1.3927963118.1882983129,2.0871484846.0862262054c1.3942179601-.204954994,2.7797014009-.8057613841,3.607916894-1.8836598944s.9587386279-2.6790822683.0717475394-3.7145127055c-.6055614957-.7069032184-1.5839131419-1.0625550194-2.5455997181-1.1157160958s-1.9169442681.1644439611-2.8370811636.4335808728"/>
  </g>
  <g>
    <g>
      <line class="cls-1" x1="5.8416866177" y1="48.0667068753" x2="9.516565715" y2="42.0753296304"/>
      <line class="cls-1" x1="5.8416866177" y1="48.0667068753" x2="9.7864496115" y2="54.1355730357"/>
    </g>
    <g>
      <line class="cls-1" x1="29.6784914376" y1="47.8582633598" x2="26.0036123403" y2="53.8496406048"/>
      <line class="cls-1" x1="29.6784914376" y1="47.8582633598" x2="25.7337284438" y2="41.7893971995"/>
    </g>
    <path class="cls-1" d="m11.5290944087,43.7362537241c-.1512867004,2.8594445236-.3025734007,5.7188890472-.4778105414,8.6517385186l3.9986275602-.2911023221"/>
    <g>
      <path class="cls-1" d="m16.7893456232,52.2397775243c.0670135551-2.7665793776.1340271101-5.5331587551.2900864548-8.3553090819h3.8157190951"/>
      <path class="cls-1" d="m17.0236746439,47.8195189021l3.7600317874.0253906591"/>
    </g>
    <text class="cls-5" transform="translate(21.2227432393 52.2396448023)"><tspan x="0" y="0"></tspan></text>
  </g>
  <g>
    <g>
      <line class="cls-1" x1="181.144037722" y1="47.2397210478" x2="184.8189168193" y2="41.2483438028"/>
      <line class="cls-1" x1="181.144037722" y1="47.2397210478" x2="185.0888007158" y2="53.3085872081"/>
    </g>
    <g>
      <line class="cls-1" x1="200.4409093422" y1="47.2738816135" x2="196.7660302449" y2="53.2652588585"/>
      <line class="cls-1" x1="200.4409093422" y1="47.2738816135" x2="196.4961463484" y2="41.2050154532"/>
    </g>
    <path class="cls-1" d="m192.1517091338,42.6354662964c-.9413270687-.7826628431-2.4544559685-.873449943-3.4938283578-.2096282373s-1.5081863765,2.0204272179-1.0824957498,3.1324144359,1.6770129562,1.5923151487,2.956798259,1.7636304903c-1.2022176891-.2368939941-2.4862736282-.5793285922-3.4973707999.0808833127s-1.5070376767,1.98008531-1.0718824128,3.0632302726,1.8175765535,1.7695586206,2.9895070948,1.4158818734c.4281489074-.1292105876.8068938078-.3742949982,1.2285012976-.5213193713s.9373110587-.1780241438,1.2832701071.092188275.3254349777.9066823864-.1029679423,1.0351470109"/>
    <text class="cls-5" transform="translate(192.1517746114 51.4862268335)"><tspan x="0" y="0"></tspan></text>
  </g>
  <g>
    <path class="cls-1" d="m366.1463151478,45.4698351722c.0812651788-.6315256142.0161767709-1.3004867615-.30245647-1.8517593697s-.9211837956-.9606916867-1.5575033199-.9377549558c-.8978301702.0323628174-1.5610862392.8543394948-1.9329144851,1.6721966435-.8601751555,1.8920037003-.8188983413,4.1708901385.109228686,6.0305028232.3048742446.6108518567.7880438659,1.2322001687,1.4675796903,1.2979213472.4947033343.0478454749.9796616192-.2271021113,1.2940936917-.6120086781s.4832847238-.8671980047.6065985092-1.3500103679"/>
    <path class="cls-1" d="m367.6906128091,42.8599808174c.042779377,2.9419917383.085558754,5.8839834766.1309029682,8.8259379197v.0135161907"/>
    <path class="cls-1" d="m367.8124360803,47.6438487746c1.2109386548-.2042440808,2.4218773095-.4084881616,3.6314188054-.62101583h-.0135161907"/>
    <path class="cls-1" d="m371.5763839304,42.7631495678c-.1304953966,2.3587371888-.0560450935,4.7234659551.0184400879,7.0846356084.0117611695.3728267595.023522342.7456535134.0333438594,1.1159148475"/>
    <path class="cls-1" d="m378.5262735138,42.8599808174c.042779377,2.9419917383.085558754,5.8839834766.1309029682,8.8259379197v.0135161907"/>
    <path class="cls-1" d="m378.648096785,47.6438487746c1.2109386548-.2042440808,2.4218773095-.4084881616,3.6314188054-.62101583h-.0135161907"/>
    <path class="cls-1" d="m382.4120446351,42.7631495678c-.1304953966,2.3587371888-.0560450935,4.7234659551.0184400879,7.0846356084.0117611695.3728267595.023522342.7456535134.0333438594,1.1159148475"/>
    <path class="cls-1" d="m376.9594724731,44.9967090233c.31972527-.687743136.0221694113-1.5793052325-.611298208-1.9963587599s-1.5189582447-.3638016049-2.1429479323.067303648-.9821065959,1.1935519129-.9944769466,1.9518802348c-.0086123844.5279564311.1423148732,1.0625735993.4538331565,1.48891679.4327757457.5922960126,1.1219266265.9280097343,1.7542463026,1.299871579s1.272269644.8554500161,1.4713426216,1.5614807193c.1966009335.6972636015-.1278130611,1.4968337345-.7335679895,1.894186652s-1.4412316217.3872552061-2.0599894316.0104699266-1.0067069118-1.0888430436-1.0312275456-1.8128783416"/>
    <g>
      <line class="cls-1" x1="357.7914915353" y1="47.3379247515" x2="361.4663706326" y2="41.3465475066"/>
      <line class="cls-1" x1="357.7914915353" y1="47.3379247515" x2="361.7362545291" y2="53.4067909119"/>
    </g>
    <g>
      <line class="cls-1" x1="390.9792949316" y1="47.1756779098" x2="387.3044158343" y2="53.1670551548"/>
      <line class="cls-1" x1="390.9792949316" y1="47.1756779098" x2="387.0345319378" y2="41.1068117495"/>
    </g>
    <text class="cls-5" transform="translate(382.8421432637 50.9638879663)"><tspan x="0" y="0"></tspan></text>
  </g>
  <g>
    <g>
      <line class="cls-1" x1="365.6774071858" y1="285.1788290871" x2="369.3522862832" y2="279.1874518421"/>
      <line class="cls-1" x1="365.6774071858" y1="285.1788290871" x2="369.6221701796" y2="291.2476952474"/>
    </g>
    <g>
      <line class="cls-1" x1="385.4276808406" y1="285.2563180025" x2="381.7528017433" y2="291.2476952474"/>
      <line class="cls-1" x1="385.4276808406" y1="285.2563180025" x2="381.4829178468" y2="279.1874518421"/>
    </g>
    <path class="cls-1" d="m371.1385348374,280.5081195831c1.5096030154.971933244,2.9564058482,2.1371376434,3.8403652252,3.6998824449s1.1108924262,3.5924727809.1969792503,5.1378912361c-.4904827635.8294016997-1.3060751043,1.076888837-2.1759557071.662415388-.8380767227-.3993195679-1.2078651041-2.1691867966-1.1216919314-3.0935259435.3061935001-3.2843880154,2.217364391-4.4815385695,4.9697891191-6.6851085808"/>
    <text class="cls-5" transform="translate(377.0522262715 289.3628137476)"><tspan x="0" y="0"></tspan></text>
  </g>
  <g>
    <g>
      <line class="cls-1" x1="534.7808056189" y1="284.2426284916" x2="538.4556847163" y2="278.2512512467"/>
      <line class="cls-1" x1="534.7808056189" y1="284.2426284916" x2="538.7255686127" y2="290.311494652"/>
    </g>
    <g>
      <line class="cls-1" x1="554.8031714811" y1="284.2767890574" x2="551.1282923838" y2="290.2681663023"/>
      <line class="cls-1" x1="554.8031714811" y1="284.2767890574" x2="550.8584084873" y2="278.207922897"/>
    </g>
    <path class="cls-1" d="m544.8124349856,285.6531253413c-.791273889-.8654214376-2.3812202426-1.1404146876-3.3567455529-.4897081478s-1.3671123787,2.0473910807-.8720603284,3.1104019459,1.8160915541,1.6621124992,2.9419412354,1.3341931078,1.9185752406-1.5426845235,1.7653915758-2.7052693148c-.1393489814-1.0575885646-.926654411-1.8984947334-1.3776888551-2.8651796084-.5080035764-1.0887832956-.5776029289-2.3747580531-.1900770257-3.5120091856s1.2278753901-2.1131547581,2.2950024621-2.6652021077"/>
    <text class="cls-5" transform="translate(546.0183975362 287.2766931421)"><tspan x="0" y="0"></tspan></text>
  </g>
  <g>
    <g>
      <line class="cls-1" x1="311.2357653593" y1="356.9026106031" x2="314.9106444566" y2="350.9112333581"/>
      <line class="cls-1" x1="311.2357653593" y1="356.9026106031" x2="315.1805283531" y2="362.9714767634"/>
    </g>
    <g>
      <line class="cls-1" x1="330.5326369795" y1="356.9367711688" x2="326.8577578822" y2="362.9281484138"/>
      <line class="cls-1" x1="330.5326369795" y1="356.9367711688" x2="326.5878739857" y2="350.8679050085"/>
    </g>
    <path class="cls-1" d="m322.2434367711,352.2983558517c-.9413270687-.7826628431-2.4544559685-.873449943-3.4938283578-.2096282373s-1.5081863765,2.0204272179-1.0824957498,3.1324144359,1.6770129562,1.5923151487,2.956798259,1.7636304903c-1.2022176891-.2368939941-2.4862736282-.5793285922-3.4973707999.0808833127s-1.5070376767,1.98008531-1.0718824128,3.0632302726,1.8175765535,1.7695586206,2.9895070948,1.4158818734c.4281489074-.1292105876.8068938078-.3742949982,1.2285012976-.5213193713s.9373110587-.1780241438,1.2832701071.092188275.3254349777.9066823864-.1029679423,1.0351470109"/>
    <text class="cls-5" transform="translate(322.2435104512 361.1491296655)"><tspan x="0" y="0"></tspan></text>
  </g>
  <g>
    <path class="cls-3" d="m224.3872787592,194.408408857c.6951641948-1.8053092544,2.234599229-3.2156988902,4.0151830853-3.6786044772,1.1124615878-.2892116591,2.4680271767-.1283714134,3.1247776955.8702246487.55381952.8420890454.4292596229,1.984865291.1757212714,2.9767384007-1.2198565214,4.7722268353-4.7281177532,8.4317540898-8.1086530092,11.8245849233"/>
    <path class="cls-3" d="m232.7055881554,205.9671875609c-3.0416372227-.2169842144-6.10728702-.0500636294-9.1122499883.4961499842"/>
  </g>
  <g>
    <line class="cls-2" x1="221.4001596042" y1="8.3815880401" x2="228.4945068047" y2="8.3815880401"/>
    <path class="cls-3" d="m231.5852164045,2.0596072223c-.0812460285,4.2125926899-.0663822913,8.4349265162.0445101053,12.6439616356"/>
  </g>
  <g>
    <line class="cls-2" x1="442.2564326767" y1="10.3934597201" x2="449.3507798773" y2="10.3934597201"/>
    <path class="cls-3" d="m452.4414894771,4.0714789023c-.0812460285,4.2125926899-.0663822913,8.4349265162.0445101053,12.6439616356"/>
  </g>
  <path class="cls-2" d="m449.3942423764,190.5432478926c-.6709206851-.3924060763-1.5290873048-.3067515671-2.2114031283.0634463655s-1.2123019525.9893613815-1.6551064272,1.6473988971c-.9744033216,1.4480296088-1.5991022062,3.1523683078-1.8002939867,4.9116635392-.1896950893,1.6587634674.0228099804,3.4358128032.9490967821,4.7954724865s2.6749127755,2.1727352807,4.1810127864,1.6252688105c1.1728561236-.4263324815,1.9906267897-1.5545806582,2.5167970794-2.7329240399.8942984806-2.002756076,1.1379342145-4.317247236.6817131309-6.4761397461-.2054300917-.9721212802-.5594616337-1.9311476584-1.1787419783-2.686240522s-1.531906821-1.2849879295-1.4830742583-1.1479457906Z"/>
  <g>
    <line class="cls-2" x1="442.2564326767" y1="245.6333593737" x2="449.3507798773" y2="245.6333593737"/>
    <path class="cls-3" d="m452.4414894771,239.3113785559c-.0812460285,4.2125926899-.0663822913,8.4349265162.0445101053,12.6439616356"/>
  </g>
  <path class="cls-3" d="m448.366215563,429.5623155809c-.0812460285,4.2125926899-.0663822913,8.4349265162.0445101053,12.6439616356"/>
  <path class="cls-3" d="m618.1066235501,429.5623155809c-.0812460285,4.2125926899-.0663822913,8.4349265162.0445101053,12.6439616356"/>
  <path class="cls-2" d="m618.5334711443,236.9430649793c-.6709206851-.3924060763-1.5290873048-.3067515671-2.2114031283.0634463655s-1.2123019525.9893613815-1.6551064272,1.6473988971c-.9744033216,1.4480296088-1.5991022062,3.1523683078-1.8002939867,4.9116635392-.1896950893,1.6587634674.0228099804,3.4358128032.9490967821,4.7954724865s2.6749127755,2.1727352807,4.1810127864,1.6252688105c1.1728561236-.4263324815,1.9906267897-1.5545806582,2.5167970794-2.7329240399.8942984806-2.002756076,1.1379342145-4.317247236.6817131309-6.4761397461-.2054300917-.9721212802-.5594616337-1.9311476584-1.1787419783-2.686240522s-1.531906821-1.2849879295-1.4830742583-1.1479457906Z"/>
</svg>